<?xml version="1.0" standalone="no"?>
<!DOCTYPE svg PUBLIC "-//W3C//DTD SVG 1.1//EN" "http://www.w3.org/Graphics/SVG/1.1/DTD/svg11.dtd" >
<svg xmlns="http://www.w3.org/2000/svg" xmlns:xlink="http://www.w3.org/1999/xlink" version="1.1">
<metadata>
Created by FontForge 20161003 at Wed Jun  7 07:47:13 2017
 By www-data
\(c\) 2014 Apple Inc. All rights reserved.
</metadata>
<defs>
<font id="SanFranciscoDisplay-Bold" horiz-adv-x="0" >
  <font-face 
    font-family="San Francisco Display"
    font-weight="700"
    font-stretch="normal"
    units-per-em="2048"
    panose-1="0 0 0 0 0 0 0 0 0 0"
    ascent="1638"
    descent="-410"
    x-height="1064"
    cap-height="1365"
    bbox="-676 -507 2074 2003"
    underline-thickness="50"
    underline-position="-75"
    stemh="279"
    stemv="347"
    unicode-range="U+000D-FB02"
  />
<missing-glyph horiz-adv-x="1293" 
d="M120 0v1365h1053v-1365h-1053zM501 313c0 -63 49 -107 120 -107c74 0 122 43 122 107c0 65 -48 108 -122 108c-72 0 -120 -44 -120 -108zM339 888h169c1 79 49 130 125 130c72 0 120 -43 120 -110c0 -51 -20 -78 -103 -138c-92 -65 -125 -129 -118 -221l1 -18h166v15
c0 64 15 87 107 153c97 70 133 130 133 218c0 151 -117 250 -296 250c-190 0 -310 -109 -304 -279z" />
    <glyph glyph-name=".notdef" horiz-adv-x="1293" 
d="M120 0v1365h1053v-1365h-1053zM501 313c0 -63 49 -107 120 -107c74 0 122 43 122 107c0 65 -48 108 -122 108c-72 0 -120 -44 -120 -108zM339 888h169c1 79 49 130 125 130c72 0 120 -43 120 -110c0 -51 -20 -78 -103 -138c-92 -65 -125 -129 -118 -221l1 -18h166v15
c0 64 15 87 107 153c97 70 133 130 133 218c0 151 -117 250 -296 250c-190 0 -310 -109 -304 -279z" />
    <glyph glyph-name=".null" 
 />
    <glyph glyph-name="CR" unicode="&#xd;" 
 />
    <glyph glyph-name="space" unicode=" " horiz-adv-x="402" 
 />
    <glyph glyph-name="exclam" unicode="!" horiz-adv-x="564" 
d="M113 124c0 88 67 146 169 146c105 0 171 -58 171 -146c0 -85 -66 -144 -171 -144c-102 0 -169 59 -169 144zM129 1365h309l-33 -948h-244z" />
    <glyph glyph-name="quotedbl" unicode="&#x22;" horiz-adv-x="990" 
d="M93 1365h306l-36 -564h-234zM591 1365h307l-37 -564h-233z" />
    <glyph glyph-name="numbersign" unicode="#" horiz-adv-x="1237" 
d="M1174 812h-207l-49 -244h198l-39 -204h-200l-72 -364h-212l72 364h-218l-74 -364h-211l72 364h-194l39 204h196l49 244h-188l39 204h190l69 349h214l-71 -349h219l69 349h213l-70 -349h204zM521 834l-58 -288h259l57 288h-258z" />
    <glyph glyph-name="dollar" unicode="$" horiz-adv-x="1185" 
d="M345 1013c0 -75 47 -132 144 -166c12 -4 23 -8 36 -11v352c-103 -13 -180 -74 -180 -175zM873 383c0 88 -50 147 -176 184l-24 6v-379c118 10 200 79 200 189zM675 -129h-154v125c-319 24 -445 212 -448 397h238c6 -100 78 -180 214 -198v406l-83 20
c-179 40 -340 151 -340 374c0 237 185 366 420 389v129h154v-130c244 -25 409 -175 414 -386h-232c-3 90 -69 172 -185 190v-382l84 -19c203 -46 358 -147 358 -380c0 -240 -177 -383 -441 -408z" />
    <glyph glyph-name="percent" unicode="%" horiz-adv-x="1385" 
d="M175 1041v-11c0 -122 47 -190 119 -190c71 0 119 67 119 188v11c0 122 -46 188 -118 188c-75 0 -120 -69 -120 -186zM-2 1020v31c0 187 113 330 298 330c184 0 295 -142 295 -332v-31c0 -178 -106 -333 -299 -333c-185 0 -294 145 -294 335zM976 340v-11
c0 -121 47 -190 119 -190c71 0 119 67 119 189v11c0 121 -46 187 -118 187c-75 0 -120 -68 -120 -186zM799 319v31c0 187 113 331 298 331c184 0 295 -142 295 -332v-31c0 -179 -106 -334 -299 -334c-185 0 -294 146 -294 335zM270 -1h-209l559 717l493 649h209l-549 -703z
" />
    <glyph glyph-name="ampersand" unicode="&#x26;" horiz-adv-x="1362" 
d="M1066 0l-105 112c-106 -92 -259 -140 -420 -140c-286 0 -475 149 -475 383c0 175 105 281 251 363c20 11 40 22 62 32c-97 100 -169 191 -169 311c0 185 169 316 385 316c195 0 379 -109 379 -312c0 -174 -135 -276 -276 -352l260 -282c36 65 48 158 48 267v70h228v-86
c0 -160 -36 -311 -114 -418l252 -264h-306zM468 588c-84 -47 -147 -112 -147 -211c0 -135 114 -206 247 -206c87 0 190 30 250 96l-313 340c-13 -6 -25 -12 -37 -19zM571 840c103 54 175 111 175 207c0 91 -65 148 -150 148c-88 0 -151 -62 -151 -148
c0 -63 33 -115 126 -207z" />
    <glyph glyph-name="quotesingle" unicode="'" horiz-adv-x="492" 
d="M93 1365h306l-36 -564h-234z" />
    <glyph glyph-name="parenleft" unicode="(" horiz-adv-x="686" 
d="M377 1363h259c-80 -91 -236 -359 -236 -795c0 -434 148 -682 233 -830h-265c-105 130 -255 390 -255 828c0 440 144 644 264 797z" />
    <glyph glyph-name="parenright" unicode=")" horiz-adv-x="686" 
d="M50 1363h257c121 -153 266 -357 266 -797c0 -438 -151 -698 -257 -828h-264c86 148 232 396 232 830c0 436 -155 704 -234 795z" />
    <glyph glyph-name="asterisk" unicode="*" horiz-adv-x="779" 
d="M468 719h-156l26 224l-183 -133l-79 135l208 91l-208 91l79 136l184 -137l-27 227h156l-28 -227l186 137l78 -136l-209 -91l209 -91l-78 -135l-184 133z" />
    <glyph glyph-name="plus" unicode="+" horiz-adv-x="1185" 
d="M716 434v-419h-243v419h-391v238h391v405h243v-405h392v-238h-392z" />
    <glyph glyph-name="comma" unicode="," horiz-adv-x="456" 
d="M221 -264h-213l97 541h274z" />
    <glyph glyph-name="hyphen" unicode="-" horiz-adv-x="788" 
d="M709 435h-630v250h630v-250z" />
    <glyph glyph-name="period" unicode="." horiz-adv-x="543" 
d="M108 139c0 98 73 159 163 159c93 0 166 -63 166 -159c0 -97 -73 -158 -166 -158c-90 0 -163 61 -163 158z" />
    <glyph glyph-name="slash" unicode="/" horiz-adv-x="685" 
d="M242 -289h-253l460 1726h252z" />
    <glyph glyph-name="zero" unicode="0" horiz-adv-x="1198" 
d="M365 728v-90c0 -285 92 -429 234 -429s235 145 235 429v90c0 284 -93 428 -235 428s-234 -143 -234 -428zM75 637v92c0 396 191 662 527 662c338 0 521 -264 521 -662v-92c0 -377 -176 -663 -526 -663c-338 0 -522 267 -522 663z" />
    <glyph glyph-name="one" unicode="1" horiz-adv-x="847" 
d="M693 0h-286v1091h-11c-36 -20 -265 -170 -312 -203v266c51 37 276 183 329 211h280v-1365z" />
    <glyph glyph-name="two" unicode="2" horiz-adv-x="1148" 
d="M364 952h-274v15c0 208 151 424 475 424c287 0 474 -166 474 -384c0 -191 -125 -307 -241 -434l-297 -331v-9h562v-233h-954v179l492 528c72 77 152 162 152 272c0 106 -83 182 -194 182c-123 0 -196 -90 -196 -192c0 -6 1 -14 1 -17z" />
    <glyph glyph-name="three" unicode="3" horiz-adv-x="1172" 
d="M423 593v220h141c126 0 209 76 209 183c-1 100 -83 174 -205 174c-134 0 -201 -95 -205 -182h-270c7 226 177 403 485 403c274 0 475 -148 478 -356c3 -194 -143 -298 -246 -312v-11c127 -10 287 -111 289 -329c3 -249 -241 -410 -532 -410c-335 0 -493 192 -498 412h266
c10 -106 97 -187 239 -187c149 0 238 86 237 200c-1 112 -86 195 -240 195h-148z" />
    <glyph glyph-name="four" unicode="4" horiz-adv-x="1213" 
d="M584 1365h413v-887h164v-231h-164v-247h-271v247h-660v232c157 298 343 594 518 886zM324 478h402v673h-11c-133 -213 -272 -442 -391 -670v-3z" />
    <glyph glyph-name="five" unicode="5" horiz-adv-x="1213" 
d="M108 372h266c16 -105 109 -171 239 -171c122 0 243 93 243 250c0 149 -105 248 -242 248c-130 0 -204 -75 -233 -137h-255l63 804h850v-231h-620l-33 -337h11c31 45 131 117 292 117c238 0 450 -171 450 -451c0 -300 -224 -490 -533 -490c-315 0 -490 182 -498 398z" />
    <glyph glyph-name="six" unicode="6" horiz-adv-x="1177" 
d="M1077 1022h-270c-9 68 -79 143 -193 143c-175 0 -269 -192 -267 -464h12c37 89 136 196 319 196c223 0 431 -157 431 -444c0 -306 -223 -479 -500 -479c-328 0 -533 239 -533 681c0 476 212 734 545 734c293 0 446 -199 456 -367zM381 441c0 -152 103 -241 228 -241
c122 0 225 85 225 241c0 155 -105 242 -226 242c-127 0 -227 -92 -227 -242z" />
    <glyph glyph-name="seven" unicode="7" horiz-adv-x="1110" 
d="M70 1365h955v-238l-553 -1127h-304l572 1124v8h-670v233z" />
    <glyph glyph-name="eight" unicode="8" horiz-adv-x="1225" 
d="M613 179c142 0 250 88 250 217c0 130 -108 219 -250 219c-141 0 -250 -89 -250 -219c0 -129 109 -217 250 -217zM613 807c119 0 207 78 207 190c0 111 -88 187 -207 187c-118 0 -207 -76 -207 -187c0 -112 89 -190 207 -190zM611 -26c-328 0 -536 165 -536 402
c0 217 163 316 289 340v9c-121 37 -234 130 -234 305c0 208 190 361 483 361s484 -153 484 -361c0 -177 -117 -269 -235 -305v-9c127 -24 288 -124 288 -339c0 -237 -211 -403 -539 -403z" />
    <glyph glyph-name="nine" unicode="9" horiz-adv-x="1177" 
d="M95 352h269c12 -78 87 -152 205 -152c197 0 275 221 268 467h-14c-31 -96 -135 -196 -325 -196c-222 0 -422 155 -422 445c0 304 231 474 494 474c333 0 538 -225 538 -692c0 -448 -198 -723 -545 -723c-308 0 -459 207 -468 377zM805 921c0 157 -98 244 -227 244
c-122 0 -227 -84 -227 -241c0 -155 99 -240 224 -240c128 0 230 99 230 237z" />
    <glyph glyph-name="colon" unicode=":" horiz-adv-x="567" 
d="M117 815c0 98 73 159 164 159c93 0 165 -63 165 -159c0 -97 -73 -158 -165 -158c-90 0 -164 61 -164 158zM117 139c0 98 73 159 164 159c93 0 165 -63 165 -159c0 -97 -73 -158 -165 -158c-90 0 -164 61 -164 158z" />
    <glyph glyph-name="semicolon" unicode=";" horiz-adv-x="565" 
d="M121 815c0 98 73 159 164 159c93 0 165 -63 165 -159c0 -97 -73 -158 -165 -158c-90 0 -164 61 -164 158zM273 -314h-214l89 541h273z" />
    <glyph glyph-name="less" unicode="&#x3c;" horiz-adv-x="1185" 
d="M124 439v180l933 512v-280l-607 -310v-12l607 -303v-276z" />
    <glyph glyph-name="equal" unicode="=" horiz-adv-x="1185" 
d="M1067 224h-948v221h948v-221zM1067 657h-948v222h948v-222z" />
    <glyph glyph-name="greater" unicode="&#x3e;" horiz-adv-x="1185" 
d="M1057 619v-180l-933 -489v276l607 303v12l-607 310v280z" />
    <glyph glyph-name="question" unicode="?" horiz-adv-x="982" 
d="M293 124c0 88 67 146 169 146c105 0 171 -58 171 -146c0 -85 -66 -144 -171 -144c-102 0 -169 59 -169 144zM39 983c-10 297 226 409 458 409c239 0 447 -120 447 -367c0 -175 -103 -254 -200 -322c-117 -82 -162 -114 -162 -224v-51h-252l-2 56c-11 152 61 249 176 326
c94 65 154 108 154 200c0 113 -86 161 -177 161c-120 0 -182 -82 -183 -188h-259z" />
    <glyph glyph-name="at" unicode="@" horiz-adv-x="1717" 
d="M1280 133c-123 0 -226 57 -250 146h-9c-25 -87 -119 -145 -230 -145c-173 0 -281 126 -281 328v113c0 192 107 321 284 321c129 0 194 -75 212 -139h8v125h190v-498c0 -66 44 -102 102 -102c79 0 157 98 157 324v29c0 293 -216 538 -574 538h-9
c-359 0 -609 -245 -609 -630v-38c0 -427 283 -614 596 -614h9c126 0 224 17 284 43v-157c-51 -23 -151 -42 -294 -42h-9c-433 0 -765 265 -765 764v51c0 472 326 780 788 780h8c482 0 750 -327 750 -688v-49c0 -269 -136 -460 -358 -460zM716 492c0 -139 56 -192 140 -192
c77 0 138 45 138 180v83c0 122 -65 173 -140 173c-81 0 -138 -58 -138 -189v-55z" />
    <glyph glyph-name="A" unicode="A" horiz-adv-x="1271" 
d="M302 0h-289l452 1365h343l450 -1365h-309l-101 339h-444zM634 1093h-13l-160 -541h331z" />
    <glyph glyph-name="B" unicode="B" horiz-adv-x="1266" 
d="M141 0v1365h581c243 0 409 -123 409 -335c0 -175 -109 -270 -237 -299v-13c164 -15 305 -128 305 -332c0 -251 -209 -386 -475 -386h-583zM428 1153v-351h172c166 0 247 63 247 178c0 114 -80 173 -194 173h-225zM428 606v-393h193c174 0 284 52 284 193
c0 128 -88 200 -236 200h-241z" />
    <glyph glyph-name="C" unicode="C" horiz-adv-x="1286" 
d="M380 757v-154c0 -263 112 -386 288 -386c172 0 261 117 261 258h278v-30c0 -248 -197 -471 -544 -471c-363 0 -577 231 -577 630v154c0 399 216 633 578 633c338 0 543 -220 543 -484v-29h-278c0 140 -91 270 -263 270c-173 0 -286 -129 -286 -391z" />
    <glyph glyph-name="D" unicode="D" horiz-adv-x="1336" 
d="M141 1365h511c441 0 612 -276 612 -678c0 -401 -170 -687 -612 -687h-511v1365zM431 1132v-898h179c223 0 357 113 357 447c0 255 -81 451 -357 451h-179z" />
    <glyph glyph-name="E" unicode="E" horiz-adv-x="1133" 
d="M1032 234v-234h-891v1365h891v-234h-604v-332h568v-218h-568v-347h604z" />
    <glyph glyph-name="F" unicode="F" horiz-adv-x="1077" 
d="M431 0h-290v1365h883v-236h-593v-364h541v-231h-541v-534z" />
    <glyph glyph-name="G" unicode="G" horiz-adv-x="1311" 
d="M1223 924h-282c-17 143 -124 226 -268 226c-172 0 -295 -119 -295 -380v-167c0 -225 84 -388 298 -388c169 0 274 106 274 236v77h-267v212h542v-270c0 -220 -144 -496 -553 -496c-407 0 -586 269 -586 628v170c0 375 219 619 591 619c360 0 537 -230 546 -467z" />
    <glyph glyph-name="H" unicode="H" horiz-adv-x="1412" 
d="M1271 0h-290v577h-550v-577h-290v1365h290v-550h550v550h290v-1365z" />
    <glyph glyph-name="I" unicode="I" horiz-adv-x="572" 
d="M431 0h-290v1365h290v-1365z" />
    <glyph glyph-name="J" unicode="J" horiz-adv-x="1083" 
d="M26 405h278c3 -110 77 -174 175 -174c116 0 183 65 183 207v927h290v-922c0 -316 -186 -469 -470 -469c-306 0 -456 201 -456 431z" />
    <glyph glyph-name="K" unicode="K" horiz-adv-x="1273" 
d="M1260 1365l-483 -589l503 -776h-346l-369 584l-134 -154v-430h-290v1365h290v-601h13l501 601h315z" />
    <glyph glyph-name="L" unicode="L" horiz-adv-x="1025" 
d="M1000 245v-245h-859v1365h290v-1120h569z" />
    <glyph glyph-name="M" unicode="M" horiz-adv-x="1640" 
d="M402 0h-258v1365h296l377 -846h9l377 846h294v-1365h-261v884h-12l-314 -702h-181l-315 702h-12v-884z" />
    <glyph glyph-name="N" unicode="N" horiz-adv-x="1385" 
d="M413 0h-272v1365h237l584 -876h10v876h272v-1365h-236l-585 882h-10v-882z" />
    <glyph glyph-name="O" unicode="O" horiz-adv-x="1357" 
d="M380 766v-174c0 -255 124 -378 298 -378c175 0 298 123 298 378v174c0 254 -123 386 -298 386c-174 0 -298 -132 -298 -386zM86 593v170c0 388 222 628 593 628c372 0 592 -242 592 -628v-170c0 -385 -222 -619 -594 -619c-371 0 -591 234 -591 619z" />
    <glyph glyph-name="P" unicode="P" horiz-adv-x="1207" 
d="M141 1365h556c300 0 467 -204 467 -461c0 -260 -169 -456 -470 -456h-264v-448h-289v1365zM429 1138v-468h153c179 0 288 57 288 234c0 150 -88 234 -233 234h-208z" />
    <glyph glyph-name="Q" unicode="Q" horiz-adv-x="1361" 
d="M89 599v165c0 386 230 627 592 627c363 0 593 -243 593 -627v-165c0 -208 -67 -372 -186 -480l170 -251h-283l-95 139c-59 -21 -127 -33 -199 -33c-362 0 -592 241 -592 625zM373 766v-172c0 -265 127 -395 300 -399c28 0 53 5 76 14l-140 205h261l55 -75
c40 61 65 146 65 255v172c0 257 -131 387 -309 387c-177 0 -308 -130 -308 -387z" />
    <glyph glyph-name="R" unicode="R" horiz-adv-x="1270" 
d="M697 1365c328 0 486 -190 486 -436c0 -225 -147 -344 -247 -384l274 -545h-322l-237 502h-225v-502h-285v1365h556zM426 714h225c144 0 234 73 234 210c0 145 -98 219 -230 219h-229v-429z" />
    <glyph glyph-name="S" unicode="S" horiz-adv-x="1217" 
d="M59 392h278c8 -101 99 -191 272 -191c161 0 247 72 247 178c0 93 -70 138 -208 169l-205 47c-192 41 -352 149 -352 381c0 268 228 417 517 417c305 0 510 -168 513 -409h-270c-7 96 -86 185 -244 185c-140 0 -227 -66 -227 -171c0 -79 64 -132 186 -157l207 -46
c200 -43 369 -140 369 -388c0 -268 -209 -433 -547 -433c-402 0 -532 225 -536 418z" />
    <glyph glyph-name="T" unicode="T" horiz-adv-x="1083" 
d="M686 0h-289v1125h-383v240h1055v-240h-383v-1125z" />
    <glyph glyph-name="U" unicode="U" horiz-adv-x="1367" 
d="M415 1365v-862c0 -184 107 -284 269 -284c160 0 269 101 269 284v862h289v-892c0 -301 -219 -499 -558 -499s-558 200 -558 501v890h289z" />
    <glyph glyph-name="V" unicode="V" horiz-adv-x="1261" 
d="M809 0h-353l-449 1365h335l292 -1044h12l288 1044h321z" />
    <glyph glyph-name="W" unicode="W" horiz-adv-x="1763" 
d="M630 0h-268l-357 1365h311l196 -955h11l236 955h247l235 -955h12l195 955h310l-357 -1365h-268l-246 921h-10z" />
    <glyph glyph-name="X" unicode="X" horiz-adv-x="1198" 
d="M1215 1365l-431 -684l425 -681h-330l-280 472h-13l-280 -472h-313l418 688l-416 677h341l271 -481h13l269 481h326z" />
    <glyph glyph-name="Y" unicode="Y" horiz-adv-x="1164" 
d="M727 0h-289v505l-457 860h319l281 -573h10l282 573h311l-457 -853v-512z" />
    <glyph glyph-name="Z" unicode="Z" horiz-adv-x="1183" 
d="M84 0v188l646 931v11h-630v235h980v-187l-644 -930v-12h664v-236h-1016z" />
    <glyph glyph-name="bracketleft" unicode="[" horiz-adv-x="730" 
d="M113 1365h546v-206h-277v-1182h290v-205h-559v1593z" />
    <glyph glyph-name="backslash" unicode="\" horiz-adv-x="685" 
d="M701 -289h-252l-460 1726h253z" />
    <glyph glyph-name="bracketright" unicode="]" horiz-adv-x="730" 
d="M70 1365h547v-1593h-559v205h290v1182h-278v206z" />
    <glyph glyph-name="asciicircum" unicode="^" horiz-adv-x="896" 
d="M861 795h-244l-164 348h-11l-168 -348h-238l294 570h240z" />
    <glyph glyph-name="underscore" unicode="_" horiz-adv-x="856" 
d="M883 -318h-910v215h910v-215z" />
    <glyph glyph-name="grave" unicode="`" horiz-adv-x="948" 
d="M672 1229h-236l-263 290h283z" />
    <glyph glyph-name="a" unicode="a" horiz-adv-x="1105" 
d="M709 134c-40 -77 -129 -150 -286 -150c-207 0 -350 122 -350 322c0 192 133 317 379 317h256v103c0 97 -61 142 -164 142c-107 0 -160 -54 -167 -134h-265c7 179 118 346 438 346c253 0 436 -100 436 -362v-718h-265v134h-12zM516 186c106 0 192 70 192 167v105h-189
c-111 0 -167 -54 -167 -132c0 -94 80 -140 164 -140z" />
    <glyph glyph-name="b" unicode="b" horiz-adv-x="1205" 
d="M724 -13c-159 0 -267 76 -305 178h-12v-165h-278v1437h282v-530h12c41 92 134 170 304 170c252 0 398 -183 398 -493v-102c0 -319 -152 -495 -401 -495zM625 209c125 0 210 96 210 282v78c0 187 -81 286 -210 286s-214 -109 -214 -279v-91c0 -156 74 -276 214 -276z" />
    <glyph glyph-name="c" unicode="c" horiz-adv-x="1073" 
d="M78 489v94c0 291 175 500 480 500c280 0 443 -172 445 -384h-258c-7 79 -69 164 -179 164c-136 0 -205 -121 -205 -283v-89c0 -172 75 -286 205 -286c122 0 171 71 183 150h258c-5 -233 -190 -374 -450 -374c-298 0 -479 193 -479 508z" />
    <glyph glyph-name="d" unicode="d" horiz-adv-x="1206" 
d="M480 1077c159 0 267 -72 303 -170h11v530h282v-1437h-278v165h-11c-31 -98 -144 -178 -307 -178c-254 0 -400 188 -400 491v109c0 301 145 490 400 490zM579 854c-137 0 -210 -111 -210 -288v-68c0 -179 75 -289 213 -289c130 0 212 101 212 288v73
c0 180 -83 284 -215 284z" />
    <glyph glyph-name="e" unicode="e" horiz-adv-x="1106" 
d="M570 -19c-308 0 -492 186 -492 508v83c0 322 191 511 478 511c301 0 475 -202 475 -510v-100h-677v-36c0 -135 77 -242 215 -242c116 0 180 60 190 132h263c-13 -148 -135 -346 -452 -346zM354 645h406v2c0 133 -76 228 -202 228c-125 0 -204 -96 -204 -228v-2z" />
    <glyph glyph-name="f" unicode="f" horiz-adv-x="759" 
d="M210 0v836h-158v215h158v106c0 216 113 301 365 301c66 0 102 -5 121 -7v-197c-14 2 -27 3 -65 3c-98 0 -147 -31 -147 -124v-82h203v-215h-197v-836h-280z" />
    <glyph glyph-name="g" unicode="g" horiz-adv-x="1182" 
d="M565 -189c149 0 221 80 221 221v150h-12c-39 -94 -149 -167 -300 -167c-233 0 -399 174 -399 483v93c0 307 163 486 401 486c166 0 262 -77 301 -170h12v157h277v-1050c0 -305 -249 -408 -509 -408c-318 0 -455 158 -460 325h271c13 -70 80 -120 197 -120zM579 855
c-131 0 -216 -103 -216 -279v-80c0 -177 90 -273 217 -273c129 0 205 110 205 267v86c0 167 -79 279 -206 279z" />
    <glyph glyph-name="h" unicode="h" horiz-adv-x="1210" 
d="M130 0v1437h281v-531h13c28 74 119 174 296 174c225 0 372 -152 372 -404v-676h-282v609c0 158 -81 233 -195 233c-119 0 -204 -79 -204 -234v-608h-281z" />
    <glyph glyph-name="i" unicode="i" horiz-adv-x="570" 
d="M145 0v1064h281v-1064h-281zM123 1332c0 80 63 138 161 138c100 0 163 -58 163 -138c0 -81 -62 -139 -163 -139c-98 0 -161 58 -161 139z" />
    <glyph glyph-name="j" unicode="j" horiz-adv-x="570" 
d="M123 1332c0 80 63 138 161 138c100 0 163 -58 163 -138c0 -81 -62 -139 -163 -139c-98 0 -161 58 -161 139zM425 1064v-1076c0 -245 -146 -352 -362 -352c-38 0 -93 4 -112 8v200c14 -3 37 -4 57 -4c91 0 137 42 137 151v1073h280z" />
    <glyph glyph-name="k" unicode="k" horiz-adv-x="1120" 
d="M409 366v-366h-281v1437h281v-810h13l339 437h316l-381 -459l408 -605h-328l-295 446z" />
    <glyph glyph-name="l" unicode="l" horiz-adv-x="550" 
d="M134 0v1437h282v-1437h-282z" />
    <glyph glyph-name="m" unicode="m" horiz-adv-x="1791" 
d="M126 0v1064h274v-157h14c28 78 118 173 281 173s261 -75 296 -185h12c33 90 143 185 323 185c218 0 344 -141 344 -352v-728h-281v647c0 135 -72 200 -176 200c-111 0 -180 -75 -180 -209v-638h-270v638c0 151 -78 209 -178 209c-97 0 -178 -63 -178 -207v-640h-281z" />
    <glyph glyph-name="n" unicode="n" horiz-adv-x="1204" 
d="M126 0v1064h274v-158h12c34 81 136 174 307 174c211 0 364 -130 364 -381v-699h-281v617c0 165 -83 225 -195 225c-119 0 -200 -76 -200 -231v-611h-281z" />
    <glyph glyph-name="o" unicode="o" horiz-adv-x="1141" 
d="M572 1083c323 0 491 -211 491 -513v-70c0 -319 -168 -519 -491 -519c-325 0 -494 198 -494 518v70c0 296 169 514 494 514zM571 868c-163 0 -209 -149 -209 -302v-67c0 -150 44 -302 209 -302s207 151 207 302v67c0 154 -44 302 -207 302z" />
    <glyph glyph-name="p" unicode="p" horiz-adv-x="1202" 
d="M724 -13c-160 0 -259 73 -303 169h-12v-508h-282v1416h278v-157h12c42 100 149 170 310 170c236 0 394 -172 394 -488v-114c0 -315 -156 -488 -397 -488zM623 209c123 0 209 93 209 283v81c0 185 -82 282 -211 282s-212 -104 -212 -273v-96c0 -163 82 -277 214 -277z" />
    <glyph glyph-name="q" unicode="q" horiz-adv-x="1201" 
d="M479 1077c158 0 266 -68 306 -170h12v157h278v-1417h-282v509h-12c-39 -100 -150 -169 -304 -169c-246 0 -397 179 -397 488v117c0 306 156 485 399 485zM580 854c-133 0 -211 -101 -211 -281v-83c0 -181 82 -282 212 -282c135 0 212 116 212 280v86
c0 178 -82 280 -213 280z" />
    <glyph glyph-name="r" unicode="r" horiz-adv-x="789" 
d="M135 0v1064h282v-147h12c23 68 86 162 246 162c39 0 67 -3 87 -8v-242c-21 7 -65 11 -108 11c-170 0 -230 -99 -230 -242v-598h-289z" />
    <glyph glyph-name="s" unicode="s" horiz-adv-x="1037" 
d="M87 748c0 239 204 335 434 335c252 0 412 -124 412 -326h-248c-7 64 -50 136 -169 136c-100 0 -161 -48 -161 -122c0 -107 163 -120 277 -140c196 -33 334 -108 334 -301c0 -217 -171 -349 -462 -349c-277 0 -438 131 -438 320h273c9 -73 71 -128 178 -128
c124 0 176 55 176 125c0 99 -126 111 -263 137c-189 38 -343 106 -343 313z" />
    <glyph glyph-name="t" unicode="t" horiz-adv-x="757" 
d="M204 1051v264h273v-264h205v-215h-205v-493c0 -102 45 -134 151 -134c23 0 46 0 58 2v-207c-22 -4 -70 -9 -127 -9c-267 0 -361 88 -361 307v534h-152v215h158z" />
    <glyph glyph-name="u" unicode="u" horiz-adv-x="1201" 
d="M1075 1064v-1064h-274v158h-13c-32 -82 -130 -174 -307 -174c-216 0 -361 127 -361 378v702h281v-628c0 -170 97 -215 194 -215c111 0 198 73 198 218v625h282z" />
    <glyph glyph-name="v" unicode="v" horiz-adv-x="1058" 
d="M361 0l-349 1064h306l199 -806h11l223 806h296l-370 -1064h-316z" />
    <glyph glyph-name="w" unicode="w" horiz-adv-x="1584" 
d="M1565 1064l-275 -1064h-293l-197 745h-9l-194 -745h-296l-282 1064h295l148 -774h11l191 774h264l195 -774h11l151 774h280z" />
    <glyph glyph-name="x" unicode="x" horiz-adv-x="1094" 
d="M743 0l-197 352h-11l-198 -352h-298l327 529l-339 535h325l193 -350h12l198 350h309l-346 -526l339 -538h-314z" />
    <glyph glyph-name="y" unicode="y" horiz-adv-x="1099" 
d="M1073 1064c0 0 -339 -1015 -343 -1027l-27 -73c-74 -195 -178 -341 -457 -341c-61 0 -124 6 -152 12v200c18 -4 58 -7 88 -7c132 0 176 51 191 138l9 34l-363 1064h310l214 -826h12l219 826h299z" />
    <glyph glyph-name="z" unicode="z" horiz-adv-x="1006" 
d="M84 0v157l497 679v13h-490v215h830v-174l-479 -661v-13h492v-216h-850z" />
    <glyph glyph-name="braceleft" unicode="{" horiz-adv-x="804" 
d="M316 598v-28c129 -11 198 -90 198 -235v-249c0 -145 44 -195 202 -195h41v-204h-100c-275 0 -411 96 -411 363v209c0 135 -29 197 -158 197v256c129 0 158 62 158 197v178c0 265 136 354 411 354h100v-203h-41c-158 0 -202 -50 -202 -195v-226c0 -145 -69 -207 -198 -219
z" />
    <glyph glyph-name="bar" unicode="|" horiz-adv-x="711" 
d="M482 -299h-253v1736h253v-1736z" />
    <glyph glyph-name="braceright" unicode="}" horiz-adv-x="805" 
d="M489 570v28c-128 12 -197 74 -197 219v226c0 145 -46 195 -202 195h-42v203h100c275 0 410 -89 410 -354v-178c0 -135 30 -197 160 -197v-256c-130 0 -160 -62 -160 -197v-209c0 -267 -135 -363 -410 -363h-100v204h42c156 0 202 50 202 195v249c0 145 69 224 197 235z
" />
    <glyph glyph-name="asciitilde" unicode="~" horiz-adv-x="1115" 
d="M754 477c-89 0 -157 41 -225 100c-53 44 -101 90 -153 90c-85 0 -109 -81 -113 -157h-206c0 219 85 390 301 390c92 0 158 -39 224 -97c50 -45 96 -88 152 -88c88 0 111 77 115 155h206c0 -218 -93 -393 -301 -393z" />
    <glyph glyph-name="nonbreakingspace" unicode="&#xa0;" horiz-adv-x="402" 
 />
    <glyph glyph-name="exclamdown" unicode="&#xa1;" horiz-adv-x="564" 
d="M435 -278h-309l34 949h243zM452 961c0 -86 -65 -144 -171 -144c-101 0 -169 58 -169 144c0 88 67 145 169 145c105 0 171 -57 171 -145z" />
    <glyph glyph-name="cent" unicode="&#xa2;" horiz-adv-x="1185" 
d="M1054 501c-4 -192 -153 -338 -355 -360v-223h-212v222c-206 22 -381 183 -381 475v142c0 279 178 440 381 465v225h212v-228c211 -23 347 -188 351 -365h-253c-7 71 -72 165 -206 165c-142 0 -226 -109 -226 -261v-145c0 -164 90 -265 228 -265c131 0 197 75 208 153h253
z" />
    <glyph glyph-name="sterling" unicode="&#xa3;" horiz-adv-x="1185" 
d="M1119 227v-227h-1028v236c92 9 161 47 161 215v132h-173v191h173v245c0 230 164 370 428 370c267 0 428 -133 432 -381h-264c-3 86 -59 155 -165 155c-114 0 -165 -78 -165 -177v-212h291v-191h-291l-1 -142c-2 -94 -25 -170 -85 -198v-16h687z" />
    <glyph glyph-name="currency" unicode="&#xa4;" horiz-adv-x="1185" 
d="M969 124l-161 162c-63 -38 -137 -60 -216 -60c-80 0 -155 22 -219 62l-163 -164l-142 142l163 163c-41 64 -64 140 -64 221c0 80 22 154 61 218l-160 159l142 142l159 -159c64 41 141 65 223 65c80 0 156 -23 220 -63l157 157l142 -142l-157 -157c39 -64 62 -139 62 -220
c0 -82 -24 -159 -65 -224l160 -160zM375 650c0 -119 97 -216 217 -216c118 0 216 97 216 216c0 120 -98 217 -216 217c-120 0 -217 -97 -217 -217z" />
    <glyph glyph-name="yen" unicode="&#xa5;" horiz-adv-x="1185" 
d="M1027 194h-290v-194h-288v194h-285v174h285v118h-285v175h205l-378 704h319l280 -573h12l281 573h311l-380 -704h213v-175h-290v-118h290v-174z" />
    <glyph glyph-name="brokenbar" unicode="&#xa6;" horiz-adv-x="581" 
d="M417 780h-253v657h253v-657zM417 -299h-253v679h253v-679z" />
    <glyph glyph-name="section" unicode="&#xa7;" horiz-adv-x="932" 
d="M627 73c0 101 -126 123 -264 163c-162 46 -304 116 -304 301c0 141 94 213 166 253v7c-81 47 -158 123 -158 259c0 222 188 336 408 336c241 0 392 -135 392 -327h-231c-4 64 -64 133 -168 133c-90 0 -149 -53 -149 -127c0 -104 129 -129 260 -164
c153 -41 309 -101 309 -298c0 -132 -83 -218 -156 -267v-7c81 -48 148 -111 148 -238c0 -207 -163 -348 -417 -348c-236 0 -407 123 -410 326h234c12 -76 69 -131 175 -131c118 0 165 63 165 129zM545 405c56 25 98 88 98 154c0 89 -71 131 -172 155c-20 5 -43 9 -63 13
c-54 -21 -106 -82 -106 -153c0 -91 74 -126 171 -152c23 -6 47 -11 72 -17z" />
    <glyph glyph-name="dieresis" unicode="&#xa8;" horiz-adv-x="948" 
d="M143 1333c0 72 49 121 124 121c76 0 125 -49 125 -121c0 -71 -49 -120 -125 -120c-74 0 -124 49 -124 120zM547 1333c0 72 49 121 123 121c77 0 125 -49 125 -121c0 -71 -48 -120 -125 -120c-74 0 -123 49 -123 120z" />
    <glyph glyph-name="copyright" unicode="&#xa9;" horiz-adv-x="1641" 
d="M484 632v99c0 212 150 332 348 332c193 0 319 -129 322 -270h-175c-5 51 -46 115 -146 115c-103 0 -167 -51 -167 -183v-94c0 -122 71 -174 167 -174c95 0 141 42 149 99h174c-3 -137 -119 -259 -324 -259c-198 0 -348 117 -348 335zM240 642c0 -333 234 -574 586 -574
c351 0 588 241 588 574v105c0 307 -240 553 -588 553c-349 0 -586 -245 -586 -553v-105zM826 -64c-426 0 -720 302 -720 708v103c0 382 300 685 720 685c421 0 720 -307 720 -685v-103c0 -406 -293 -708 -720 -708z" />
    <glyph glyph-name="ordfeminine" unicode="&#xaa;" horiz-adv-x="661" 
d="M256 753c-133 0 -215 66 -215 180c0 109 73 179 233 179h145v49c0 48 -34 70 -89 70c-54 0 -82 -22 -87 -54h-175c5 96 65 186 266 186c159 0 274 -54 274 -207v-394h-180v73h-9c-21 -42 -71 -82 -163 -82zM318 879c54 0 101 31 101 80v51h-98c-60 0 -93 -22 -93 -63
c0 -48 43 -68 90 -68z" />
    <glyph glyph-name="guillemotleft" unicode="&#xab;" horiz-adv-x="1298" 
d="M597 565l344 404h260l-339 -403v-6l339 -405h-269l-335 402v8zM91 565l344 404h260l-339 -403v-6l339 -405h-269l-335 402v8z" />
    <glyph glyph-name="logicalnot" unicode="&#xac;" horiz-adv-x="1185" 
d="M1099 86h-244v345h-774v224h1018v-569z" />
    <glyph glyph-name="registered" unicode="&#xae;" horiz-adv-x="1159" 
d="M578 414c-292 0 -504 207 -504 484v71c0 261 216 468 504 468c286 0 503 -210 503 -468v-71c0 -277 -210 -484 -503 -484zM578 523c227 0 391 162 391 376v68c0 199 -165 363 -391 363s-390 -163 -390 -363v-68c0 -214 163 -376 390 -376zM504 1088v-132h78
c42 0 88 8 88 66c0 41 -29 66 -80 66h-86zM504 696h-120v482h241c104 0 171 -67 171 -155c0 -72 -42 -128 -95 -143l110 -184h-133l-95 170h-79v-170z" />
    <glyph glyph-name="macron" unicode="&#xaf;" horiz-adv-x="948" 
d="M768 1258h-590v145h590v-145z" />
    <glyph glyph-name="degree" unicode="&#xb0;" horiz-adv-x="562" 
d="M282 885c-141 0 -251 110 -251 251c0 140 109 249 251 249c140 0 250 -109 250 -249c0 -141 -110 -251 -250 -251zM282 1028c60 0 106 49 106 108c0 60 -46 107 -106 107c-58 0 -106 -47 -106 -107c0 -59 48 -108 106 -108z" />
    <glyph glyph-name="plusminus" unicode="&#xb1;" horiz-adv-x="1185" 
d="M711 642v-246h-243v246h-361v212h361v230h243v-230h365v-212h-365zM1078 64h-969v219h969v-219z" />
    <glyph glyph-name="twosuperior" unicode="&#xb2;" horiz-adv-x="647" 
d="M237 1148h-181v13c0 105 77 221 263 221c158 0 258 -85 258 -200c0 -106 -86 -178 -124 -214l-132 -117v-5h266v-148h-514v115l243 232c31 30 75 74 75 119c0 42 -34 72 -77 72c-48 0 -77 -35 -77 -74v-14z" />
    <glyph glyph-name="threesuperior" unicode="&#xb3;" horiz-adv-x="660" 
d="M244 971v136h75c53 0 83 31 83 70c0 41 -34 67 -83 67c-57 0 -83 -35 -85 -74h-175c5 127 97 212 265 212c157 0 256 -72 256 -180c0 -84 -64 -138 -128 -152v-6c80 -10 148 -58 148 -155c0 -137 -133 -204 -276 -204c-187 0 -271 105 -272 213h175c1 -41 32 -73 90 -73
s96 32 96 74c0 40 -33 72 -92 72h-77z" />
    <glyph glyph-name="acute" unicode="&#xb4;" horiz-adv-x="948" 
d="M449 1225h-236l207 294h283z" />
    <glyph glyph-name="paragraph" unicode="&#xb6;" horiz-adv-x="1422" 
d="M847 -210h-266v650h-20c-210 0 -470 148 -470 464c0 344 260 461 471 461h285v-1575zM1010 -210v1575h266v-1575h-266z" />
    <glyph glyph-name="periodcentered" unicode="&#xb7;" horiz-adv-x="609" 
d="M125 760c0 98 73 159 163 159c93 0 166 -63 166 -159c0 -97 -73 -158 -166 -158c-90 0 -163 61 -163 158z" />
    <glyph glyph-name="cedilla" unicode="&#xb8;" horiz-adv-x="948" 
d="M355 -236v105l52 136h161l-47 -122c117 0 192 -63 192 -169c0 -135 -103 -193 -248 -196c-68 -2 -122 8 -146 15v126c27 -8 75 -14 111 -14c52 0 109 11 109 60c0 50 -44 59 -129 59h-55z" />
    <glyph glyph-name="onesuperior" unicode="&#xb9;" horiz-adv-x="562" 
d="M434 698h-192v498h-9l-155 -107v163l164 113h192v-667z" />
    <glyph glyph-name="ordmasculine" unicode="&#xba;" horiz-adv-x="673" 
d="M337 1226c-79 0 -112 -64 -112 -143v-56c0 -76 29 -144 112 -144c81 0 110 67 110 144v56c0 79 -32 143 -110 143zM337 1363c182 0 297 -110 297 -280v-53c0 -182 -115 -284 -297 -284c-183 0 -298 101 -298 283v54c0 167 116 280 298 280z" />
    <glyph glyph-name="guillemotright" unicode="&#xbb;" horiz-adv-x="1298" 
d="M1206 565v-8l-335 -402h-269l339 405v6l-339 403h260zM700 565v-8l-335 -402h-269l339 405v6l-339 403h260z" />
    <glyph glyph-name="onequarter" unicode="&#xbc;" horiz-adv-x="1393" 
d="M960 242h168v290h-8c-58 -94 -108 -185 -160 -288v-2zM1041 666h257v-424h81v-137h-81v-105h-170v105h-332v136c76 142 162 287 245 425zM365 698h-192v498h-9l-155 -107v163l164 113h192v-667zM256 -1h-209l559 717l493 649h209l-549 -703z" />
    <glyph glyph-name="onehalf" unicode="&#xbd;" horiz-adv-x="1403" 
d="M1058 443h-182v13c0 106 77 223 265 223c160 0 261 -86 261 -202c0 -107 -87 -180 -125 -216l-134 -118v-5h269v-149h-519v116l245 234c32 30 76 75 76 120c0 42 -34 73 -78 73c-48 0 -78 -36 -78 -75v-14zM365 698h-192v498h-9l-155 -107v163l164 113h192v-667zM256 -1
h-209l559 717l493 649h209l-549 -703z" />
    <glyph glyph-name="threequarters" unicode="&#xbe;" horiz-adv-x="1444" 
d="M1011 243h169v289h-9c-58 -94 -107 -184 -160 -287v-2zM1092 666h259v-423h79v-138h-79v-105h-171v105h-333v136c76 142 162 287 245 425zM201 959v137h75c54 0 84 31 84 71c0 41 -34 67 -84 67c-57 0 -83 -35 -85 -75h-177c5 128 98 214 267 214c159 0 258 -72 258 -181
c0 -85 -64 -139 -129 -153v-6c81 -10 150 -59 150 -157c0 -138 -134 -205 -279 -205c-188 0 -273 106 -274 215h177c1 -42 32 -74 90 -74c59 0 97 32 97 75c0 40 -33 72 -93 72h-77zM307 -1h-209l559 717l493 649h209l-549 -703z" />
    <glyph glyph-name="questiondown" unicode="&#xbf;" horiz-adv-x="982" 
d="M690 952c0 -86 -66 -144 -171 -144c-102 0 -169 58 -169 144c0 88 67 145 169 145c105 0 171 -57 171 -145zM943 95c10 -298 -226 -410 -458 -410c-239 0 -447 120 -447 368c0 174 103 253 200 321c117 83 162 115 162 224v51h252l2 -56c11 -151 -61 -248 -176 -326
c-94 -64 -154 -107 -154 -200c0 -113 86 -161 177 -161c120 0 182 82 183 189h259z" />
    <glyph glyph-name="Agrave" unicode="&#xc0;" horiz-adv-x="1271" 
d="M302 0h-289l452 1365h343l450 -1365h-309l-101 339h-444zM634 1093h-13l-160 -541h331zM778 1504h-234l-305 214h278z" />
    <glyph glyph-name="Aacute" unicode="&#xc1;" horiz-adv-x="1271" 
d="M302 0h-289l452 1365h343l450 -1365h-309l-101 339h-444zM634 1093h-13l-160 -541h331zM474 1504l271 222h290l-316 -222h-245z" />
    <glyph glyph-name="Acircumflex" unicode="&#xc2;" horiz-adv-x="1271" 
d="M302 0h-289l452 1365h343l450 -1365h-309l-101 339h-444zM634 1093h-13l-160 -541h331zM277 1495l269 244h190l262 -244h-219l-133 128h-14l-137 -128h-218z" />
    <glyph glyph-name="Atilde" unicode="&#xc3;" horiz-adv-x="1271" 
d="M302 0h-289l452 1365h343l450 -1365h-309l-101 339h-444zM634 1093h-13l-160 -541h331zM620 1521c-24 22 -46 51 -82 51c-49 0 -64 -43 -66 -85h-144c0 105 59 217 187 217c71 0 109 -24 152 -63c30 -26 49 -51 82 -51c47 0 63 55 65 99h144c0 -119 -78 -223 -192 -223
c-83 0 -115 26 -146 55z" />
    <glyph glyph-name="Adieresis" unicode="&#xc4;" horiz-adv-x="1271" 
d="M302 0h-289l452 1365h343l450 -1365h-309l-101 339h-444zM634 1093h-13l-160 -541h331zM358 1581c0 65 44 109 112 109c69 0 112 -44 112 -109c0 -64 -43 -108 -112 -108c-67 0 -112 44 -112 108zM716 1581c0 65 43 109 111 109c69 0 113 -44 113 -109
c0 -64 -43 -108 -113 -108c-68 0 -111 44 -111 108z" />
    <glyph glyph-name="Aring" unicode="&#xc5;" horiz-adv-x="1272" 
d="M518 1468c0 -62 50 -110 113 -110c62 0 113 48 113 110c0 65 -51 111 -113 111c-63 0 -113 -46 -113 -111zM793 552l-158 541h-14l-160 -541h332zM302 0h-289l429 1289c-50 42 -82 108 -82 181c0 150 120 266 271 266s271 -116 271 -266c0 -68 -29 -129 -73 -170
l430 -1300h-310l-100 339h-445z" />
    <glyph glyph-name="AE" unicode="&#xc6;" horiz-adv-x="1900" 
d="M845 1132l-261 -572l328 1v571h-67zM912 338h-423l-164 -338h-318l657 1365h1135v-233h-601v-333h565v-218h-565v-347h601v-234h-887v338z" />
    <glyph glyph-name="Ccedilla" unicode="&#xc7;" horiz-adv-x="1286" 
d="M649 -482c-68 -2 -121 8 -146 15v126c27 -8 76 -14 111 -14c52 0 109 11 109 60c0 50 -44 59 -128 59h-55v105l41 109c-313 33 -495 258 -495 626v154c0 399 216 633 578 633c338 0 543 -220 543 -484v-29h-278c0 140 -91 270 -263 270c-173 0 -286 -129 -286 -391v-154
c0 -263 112 -386 288 -386c172 0 261 117 261 258h278v-30c0 -226 -164 -436 -464 -466l-38 -96c117 0 192 -63 192 -169c0 -135 -102 -193 -248 -196z" />
    <glyph glyph-name="Egrave" unicode="&#xc8;" horiz-adv-x="1133" 
d="M719 1504h-234l-305 214h278zM1032 234v-234h-891v1365h891v-234h-604v-332h568v-218h-568v-347h604z" />
    <glyph glyph-name="Eacute" unicode="&#xc9;" horiz-adv-x="1133" 
d="M415 1504l271 222h290l-316 -222h-245zM1032 234v-234h-891v1365h891v-234h-604v-332h568v-218h-568v-347h604z" />
    <glyph glyph-name="Ecircumflex" unicode="&#xca;" horiz-adv-x="1133" 
d="M218 1495l269 244h190l262 -244h-219l-133 128h-14l-137 -128h-218zM1032 234v-234h-891v1365h891v-234h-604v-332h568v-218h-568v-347h604z" />
    <glyph glyph-name="Edieresis" unicode="&#xcb;" horiz-adv-x="1133" 
d="M300 1581c0 65 44 109 112 109c69 0 112 -44 112 -109c0 -64 -43 -108 -112 -108c-67 0 -112 44 -112 108zM658 1581c0 65 43 109 111 109c69 0 113 -44 113 -109c0 -64 -43 -108 -113 -108c-68 0 -111 44 -111 108zM1032 234v-234h-891v1365h891v-234h-604v-332h568
v-218h-568v-347h604z" />
    <glyph glyph-name="Igrave" unicode="&#xcc;" horiz-adv-x="572" 
d="M431 0h-290v1365h290v-1365zM428 1504h-234l-305 214h278z" />
    <glyph glyph-name="Iacute" unicode="&#xcd;" horiz-adv-x="572" 
d="M431 0h-290v1365h290v-1365zM124 1504l271 222h290l-316 -222h-245z" />
    <glyph glyph-name="Icircumflex" unicode="&#xce;" horiz-adv-x="572" 
d="M431 0h-290v1365h290v-1365zM-73 1495l269 244h190l262 -244h-219l-133 128h-14l-137 -128h-218z" />
    <glyph glyph-name="Idieresis" unicode="&#xcf;" horiz-adv-x="572" 
d="M431 0h-290v1365h290v-1365zM8 1581c0 65 44 109 112 109c69 0 112 -44 112 -109c0 -64 -43 -108 -112 -108c-67 0 -112 44 -112 108zM366 1581c0 65 43 109 111 109c69 0 113 -44 113 -109c0 -64 -43 -108 -113 -108c-68 0 -111 44 -111 108z" />
    <glyph glyph-name="Eth" unicode="&#xd0;" horiz-adv-x="1426" 
d="M742 0h-511v567h-165v250h165v548h511c441 0 612 -276 612 -678c0 -401 -170 -687 -612 -687zM520 240h179c223 0 356 112 356 446c0 256 -80 452 -356 452h-179v-321h235v-250h-235v-327z" />
    <glyph glyph-name="Ntilde" unicode="&#xd1;" horiz-adv-x="1385" 
d="M676 1521c-24 22 -46 51 -82 51c-49 0 -64 -43 -66 -85h-144c0 105 59 217 187 217c71 0 109 -24 152 -63c30 -26 49 -51 82 -51c47 0 63 55 65 99h144c0 -119 -78 -223 -192 -223c-83 0 -115 26 -146 55zM413 0h-272v1365h237l584 -876h10v876h272v-1365h-236l-585 882
h-10v-882z" />
    <glyph glyph-name="Ograve" unicode="&#xd2;" horiz-adv-x="1357" 
d="M820 1504h-234l-305 214h278zM380 766v-174c0 -255 124 -378 298 -378c175 0 298 123 298 378v174c0 254 -123 386 -298 386c-174 0 -298 -132 -298 -386zM86 593v170c0 388 222 628 593 628c372 0 592 -242 592 -628v-170c0 -385 -222 -619 -594 -619
c-371 0 -591 234 -591 619z" />
    <glyph glyph-name="Oacute" unicode="&#xd3;" horiz-adv-x="1357" 
d="M516 1504l271 222h290l-316 -222h-245zM380 766v-174c0 -255 124 -378 298 -378c175 0 298 123 298 378v174c0 254 -123 386 -298 386c-174 0 -298 -132 -298 -386zM86 593v170c0 388 222 628 593 628c372 0 592 -242 592 -628v-170c0 -385 -222 -619 -594 -619
c-371 0 -591 234 -591 619z" />
    <glyph glyph-name="Ocircumflex" unicode="&#xd4;" horiz-adv-x="1357" 
d="M319 1495l269 244h190l262 -244h-219l-133 128h-14l-137 -128h-218zM380 766v-174c0 -255 124 -378 298 -378c175 0 298 123 298 378v174c0 254 -123 386 -298 386c-174 0 -298 -132 -298 -386zM86 593v170c0 388 222 628 593 628c372 0 592 -242 592 -628v-170
c0 -385 -222 -619 -594 -619c-371 0 -591 234 -591 619z" />
    <glyph glyph-name="Otilde" unicode="&#xd5;" horiz-adv-x="1357" 
d="M380 766v-174c0 -255 124 -378 298 -378c175 0 298 123 298 378v174c0 254 -123 386 -298 386c-174 0 -298 -132 -298 -386zM86 593v170c0 388 222 628 593 628c372 0 592 -242 592 -628v-170c0 -385 -222 -619 -594 -619c-371 0 -591 234 -591 619zM662 1521
c-24 22 -46 51 -82 51c-49 0 -64 -43 -66 -85h-144c0 105 59 217 187 217c71 0 109 -24 152 -63c30 -26 49 -51 82 -51c47 0 63 55 65 99h144c0 -119 -78 -223 -192 -223c-83 0 -115 26 -146 55z" />
    <glyph glyph-name="Odieresis" unicode="&#xd6;" horiz-adv-x="1357" 
d="M400 1581c0 65 44 109 112 109c69 0 112 -44 112 -109c0 -64 -43 -108 -112 -108c-67 0 -112 44 -112 108zM758 1581c0 65 43 109 111 109c69 0 113 -44 113 -109c0 -64 -43 -108 -113 -108c-68 0 -111 44 -111 108zM380 766v-174c0 -255 124 -378 298 -378
c175 0 298 123 298 378v174c0 254 -123 386 -298 386c-174 0 -298 -132 -298 -386zM86 593v170c0 388 222 628 593 628c372 0 592 -242 592 -628v-170c0 -385 -222 -619 -594 -619c-371 0 -591 234 -591 619z" />
    <glyph glyph-name="multiply" unicode="&#xd7;" horiz-adv-x="1185" 
d="M895 60l-302 303l-303 -303l-172 173l302 303l-302 302l172 173l303 -303l302 303l172 -173l-302 -302l302 -303z" />
    <glyph glyph-name="Oslash" unicode="&#xd8;" horiz-adv-x="1357" 
d="M677 -26c-153 0 -280 41 -376 119l-99 -122l-126 103l111 137c-66 100 -101 229 -101 382v170c0 388 222 628 593 628c150 0 277 -41 372 -117l88 109l130 -96l-105 -129c70 -103 107 -237 107 -395v-170c0 -385 -222 -619 -594 -619zM373 589c0 -47 6 -94 18 -129
l494 611c-53 57 -125 86 -208 86c-178 0 -304 -133 -304 -391v-177zM677 206c179 0 305 125 305 383v177c0 53 -7 104 -21 142l-497 -614c53 -60 128 -88 213 -88z" />
    <glyph glyph-name="Ugrave" unicode="&#xd9;" horiz-adv-x="1367" 
d="M825 1504h-234l-305 214h278zM415 1365v-862c0 -184 107 -284 269 -284c160 0 269 101 269 284v862h289v-892c0 -301 -219 -499 -558 -499s-558 200 -558 501v890h289z" />
    <glyph glyph-name="Uacute" unicode="&#xda;" horiz-adv-x="1367" 
d="M521 1504l271 222h290l-316 -222h-245zM415 1365v-862c0 -184 107 -284 269 -284c160 0 269 101 269 284v862h289v-892c0 -301 -219 -499 -558 -499s-558 200 -558 501v890h289z" />
    <glyph glyph-name="Ucircumflex" unicode="&#xdb;" horiz-adv-x="1367" 
d="M324 1495l269 244h190l262 -244h-219l-133 128h-14l-137 -128h-218zM415 1365v-862c0 -184 107 -284 269 -284c160 0 269 101 269 284v862h289v-892c0 -301 -219 -499 -558 -499s-558 200 -558 501v890h289z" />
    <glyph glyph-name="Udieresis" unicode="&#xdc;" horiz-adv-x="1367" 
d="M406 1581c0 65 44 109 112 109c69 0 112 -44 112 -109c0 -64 -43 -108 -112 -108c-67 0 -112 44 -112 108zM764 1581c0 65 43 109 111 109c69 0 113 -44 113 -109c0 -64 -43 -108 -113 -108c-68 0 -111 44 -111 108zM415 1365v-862c0 -184 107 -284 269 -284
c160 0 269 101 269 284v862h289v-892c0 -301 -219 -499 -558 -499s-558 200 -558 501v890h289z" />
    <glyph glyph-name="Yacute" unicode="&#xdd;" horiz-adv-x="1164" 
d="M727 0h-289v505l-457 860h319l281 -573h10l282 573h311l-457 -853v-512zM420 1504l271 222h290l-316 -222h-245z" />
    <glyph glyph-name="Thorn" unicode="&#xde;" horiz-adv-x="1205" 
d="M141 1365h288v-224h258c300 0 467 -184 467 -441c0 -260 -169 -437 -470 -437h-254v-263h-289v1365zM429 914v-428h176c146 0 255 44 255 214c0 146 -88 214 -233 214h-198z" />
    <glyph glyph-name="germandbls" unicode="&#xdf;" horiz-adv-x="1323" 
d="M419 0h-283v1048c0 270 222 398 494 399c300 0 491 -152 490 -363c0 -193 -132 -300 -235 -318v-16c177 -3 362 -122 362 -361c0 -274 -229 -406 -492 -406c-78 0 -149 10 -180 19v221c21 -8 63 -19 134 -19c137 0 250 59 250 199c0 135 -122 205 -281 205h-79v233h47
c101 0 199 77 199 195c0 105 -72 185 -209 185c-162 0 -217 -96 -217 -230v-991z" />
    <glyph glyph-name="agrave" unicode="&#xe0;" horiz-adv-x="1105" 
d="M709 134c-40 -77 -129 -150 -286 -150c-207 0 -350 122 -350 322c0 192 133 317 379 317h256v103c0 97 -61 142 -164 142c-107 0 -160 -54 -167 -134h-265c7 179 118 346 438 346c253 0 436 -100 436 -362v-718h-265v134h-12zM516 186c106 0 192 70 192 167v105h-189
c-111 0 -167 -54 -167 -132c0 -94 80 -140 164 -140zM718 1230h-236l-263 290h283z" />
    <glyph glyph-name="aacute" unicode="&#xe1;" horiz-adv-x="1105" 
d="M709 134c-40 -77 -129 -150 -286 -150c-207 0 -350 122 -350 322c0 192 133 317 379 317h256v103c0 97 -61 142 -164 142c-107 0 -160 -54 -167 -134h-265c7 179 118 346 438 346c253 0 436 -100 436 -362v-718h-265v134h-12zM516 186c106 0 192 70 192 167v105h-189
c-111 0 -167 -54 -167 -132c0 -94 80 -140 164 -140zM663 1226h-236l207 294h283z" />
    <glyph glyph-name="acircumflex" unicode="&#xe2;" horiz-adv-x="1105" 
d="M709 134c-40 -77 -129 -150 -286 -150c-207 0 -350 122 -350 322c0 192 133 317 379 317h256v103c0 97 -61 142 -164 142c-107 0 -160 -54 -167 -134h-265c7 179 118 346 438 346c253 0 436 -100 436 -362v-718h-265v134h-12zM516 186c106 0 192 70 192 167v105h-189
c-111 0 -167 -54 -167 -132c0 -94 80 -140 164 -140zM217 1226l230 308h201l219 -309h-216l-101 176h-9l-113 -175h-211z" />
    <glyph glyph-name="atilde" unicode="&#xe3;" horiz-adv-x="1105" 
d="M709 134c-40 -77 -129 -150 -286 -150c-207 0 -350 122 -350 322c0 192 133 317 379 317h256v103c0 97 -61 142 -164 142c-107 0 -160 -54 -167 -134h-265c7 179 118 346 438 346c253 0 436 -100 436 -362v-718h-265v134h-12zM516 186c106 0 192 70 192 167v105h-189
c-111 0 -167 -54 -167 -132c0 -94 80 -140 164 -140zM519 1238c-22 23 -47 49 -85 49c-55 0 -71 -48 -73 -97h-160c0 145 66 279 217 279c67 0 110 -28 160 -77c27 -26 48 -53 85 -53c51 0 68 62 70 112h159c0 -144 -86 -279 -223 -279c-78 0 -117 33 -150 66z" />
    <glyph glyph-name="adieresis" unicode="&#xe4;" horiz-adv-x="1105" 
d="M709 134c-40 -77 -129 -150 -286 -150c-207 0 -350 122 -350 322c0 192 133 317 379 317h256v103c0 97 -61 142 -164 142c-107 0 -160 -54 -167 -134h-265c7 179 118 346 438 346c253 0 436 -100 436 -362v-718h-265v134h-12zM516 186c106 0 192 70 192 167v105h-189
c-111 0 -167 -54 -167 -132c0 -94 80 -140 164 -140zM229 1296c0 72 49 121 124 121c76 0 125 -49 125 -121c0 -71 -49 -120 -125 -120c-74 0 -124 49 -124 120zM633 1296c0 72 49 121 123 121c77 0 125 -49 125 -121c0 -71 -48 -120 -125 -120c-74 0 -123 49 -123 120z" />
    <glyph glyph-name="aring" unicode="&#xe5;" horiz-adv-x="1105" 
d="M709 134c-40 -77 -129 -150 -286 -150c-207 0 -350 122 -350 322c0 192 133 317 379 317h256v103c0 97 -61 142 -164 142c-107 0 -160 -54 -167 -134h-265c7 179 118 346 438 346c253 0 436 -100 436 -362v-718h-265v134h-12zM516 186c106 0 192 70 192 167v105h-189
c-111 0 -167 -54 -167 -132c0 -94 80 -140 164 -140zM549 1183c-124 0 -219 88 -219 212s95 211 219 211s218 -87 218 -211s-95 -212 -218 -212zM456 1394c0 -53 39 -93 92 -93s93 40 93 93s-40 93 -93 93s-92 -40 -92 -93z" />
    <glyph glyph-name="ae" unicode="&#xe6;" horiz-adv-x="1751" 
d="M1218 -19c-208 0 -336 83 -392 195h-16c-56 -98 -175 -195 -365 -195c-227 0 -374 122 -374 326c0 195 136 320 384 320h254v93c0 100 -65 148 -167 148s-155 -46 -167 -110h-265c10 173 135 324 438 324c141 0 267 -49 328 -128h16c60 79 180 128 312 128
c280 0 471 -187 471 -490v-121h-673v-64c0 -127 91 -212 215 -212c104 0 175 50 185 116h264c-10 -136 -137 -330 -448 -330zM1206 875c-117 0 -204 -90 -204 -218v-20h401v14c0 137 -75 224 -197 224zM518 186c104 0 191 70 191 167v109h-189c-111 0 -172 -55 -172 -134
c0 -95 84 -142 170 -142z" />
    <glyph glyph-name="ccedilla" unicode="&#xe7;" horiz-adv-x="1073" 
d="M539 -472c-68 -1 -121 8 -146 16v125c27 -8 76 -13 111 -13c52 0 109 11 109 60s-39 59 -123 59h-55v104l44 107c-252 30 -401 217 -401 503v94c0 291 175 500 480 500c280 0 443 -172 445 -384h-258c-7 79 -69 164 -179 164c-136 0 -205 -121 -205 -283v-89
c0 -172 75 -286 205 -286c122 0 171 71 183 150h258c-4 -205 -149 -342 -366 -369l-41 -93c117 0 187 -62 187 -168c0 -136 -102 -194 -248 -197z" />
    <glyph glyph-name="egrave" unicode="&#xe8;" horiz-adv-x="1106" 
d="M719 1230h-236l-263 290h283zM570 -19c-308 0 -492 186 -492 508v83c0 322 191 511 478 511c301 0 475 -202 475 -510v-100h-677v-36c0 -135 77 -242 215 -242c116 0 180 60 190 132h263c-13 -148 -135 -346 -452 -346zM354 645h406v2c0 133 -76 228 -202 228
c-125 0 -204 -96 -204 -228v-2z" />
    <glyph glyph-name="eacute" unicode="&#xe9;" horiz-adv-x="1106" 
d="M664 1226h-236l207 294h283zM570 -19c-308 0 -492 186 -492 508v83c0 322 191 511 478 511c301 0 475 -202 475 -510v-100h-677v-36c0 -135 77 -242 215 -242c116 0 180 60 190 132h263c-13 -148 -135 -346 -452 -346zM354 645h406v2c0 133 -76 228 -202 228
c-125 0 -204 -96 -204 -228v-2z" />
    <glyph glyph-name="ecircumflex" unicode="&#xea;" horiz-adv-x="1106" 
d="M218 1226l230 308h201l219 -309h-216l-101 176h-9l-113 -175h-211zM570 -19c-308 0 -492 186 -492 508v83c0 322 191 511 478 511c301 0 475 -202 475 -510v-100h-677v-36c0 -135 77 -242 215 -242c116 0 180 60 190 132h263c-13 -148 -135 -346 -452 -346zM354 645h406
v2c0 133 -76 228 -202 228c-125 0 -204 -96 -204 -228v-2z" />
    <glyph glyph-name="edieresis" unicode="&#xeb;" horiz-adv-x="1106" 
d="M570 -19c-308 0 -492 186 -492 508v83c0 322 191 511 478 511c301 0 475 -202 475 -510v-100h-677v-36c0 -135 77 -242 215 -242c116 0 180 60 190 132h263c-13 -148 -135 -346 -452 -346zM354 645h406v2c0 133 -76 228 -202 228c-125 0 -204 -96 -204 -228v-2zM230 1296
c0 72 49 121 124 121c76 0 125 -49 125 -121c0 -71 -49 -120 -125 -120c-74 0 -124 49 -124 120zM634 1296c0 72 49 121 123 121c77 0 125 -49 125 -121c0 -71 -48 -120 -125 -120c-74 0 -123 49 -123 120z" />
    <glyph glyph-name="igrave" unicode="&#xec;" horiz-adv-x="570" 
d="M456 1230h-236l-263 290h283zM148 0v1064h288v-1064h-288z" />
    <glyph glyph-name="iacute" unicode="&#xed;" horiz-adv-x="570" 
d="M401 1226h-236l207 294h283zM148 0v1064h288v-1064h-288z" />
    <glyph glyph-name="icircumflex" unicode="&#xee;" horiz-adv-x="570" 
d="M-45 1226l230 308h201l219 -309h-216l-101 176h-9l-113 -175h-211zM148 0v1064h288v-1064h-288z" />
    <glyph glyph-name="idieresis" unicode="&#xef;" horiz-adv-x="570" 
d="M148 0v1064h288v-1064h-288zM-33 1296c0 72 49 121 124 121c76 0 125 -49 125 -121c0 -71 -49 -120 -125 -120c-74 0 -124 49 -124 120zM371 1296c0 72 49 121 123 121c77 0 125 -49 125 -121c0 -71 -48 -120 -125 -120c-74 0 -123 49 -123 120z" />
    <glyph glyph-name="eth" unicode="&#xf0;" horiz-adv-x="1141" 
d="M570 -19c-295 0 -492 178 -492 498v60c0 296 166 494 429 494c122 0 193 -47 232 -93h13c-2 7 -9 47 -13 55c-19 70 -68 153 -129 223l-276 -107l-52 131l220 85c-69 63 -143 118 -214 168l276 49c66 -33 119 -72 173 -123l237 92l55 -128l-180 -70
c127 -151 214 -360 214 -606v-220c0 -319 -192 -508 -493 -508zM572 819c-128 0 -216 -102 -216 -275v-66c0 -175 84 -275 216 -275c131 0 214 100 214 275v73c0 178 -86 268 -214 268z" />
    <glyph glyph-name="ntilde" unicode="&#xf1;" horiz-adv-x="1204" 
d="M569 1238c-22 23 -47 49 -85 49c-55 0 -71 -48 -73 -97h-160c0 145 66 279 217 279c67 0 110 -28 160 -77c27 -26 48 -53 85 -53c51 0 68 62 70 112h159c0 -144 -86 -279 -223 -279c-78 0 -117 33 -150 66zM126 0v1064h274v-158h12c34 81 136 174 307 174
c211 0 364 -130 364 -381v-699h-281v617c0 165 -83 225 -195 225c-119 0 -200 -76 -200 -231v-611h-281z" />
    <glyph glyph-name="ograve" unicode="&#xf2;" horiz-adv-x="1141" 
d="M736 1230h-236l-263 290h283zM572 1083c323 0 491 -211 491 -513v-70c0 -319 -168 -519 -491 -519c-325 0 -494 198 -494 518v70c0 296 169 514 494 514zM571 868c-163 0 -209 -149 -209 -302v-67c0 -150 44 -302 209 -302s207 151 207 302v67c0 154 -44 302 -207 302z
" />
    <glyph glyph-name="oacute" unicode="&#xf3;" horiz-adv-x="1141" 
d="M681 1226h-236l207 294h283zM572 1083c323 0 491 -211 491 -513v-70c0 -319 -168 -519 -491 -519c-325 0 -494 198 -494 518v70c0 296 169 514 494 514zM571 868c-163 0 -209 -149 -209 -302v-67c0 -150 44 -302 209 -302s207 151 207 302v67c0 154 -44 302 -207 302z
" />
    <glyph glyph-name="ocircumflex" unicode="&#xf4;" horiz-adv-x="1141" 
d="M235 1226l230 308h201l219 -309h-216l-101 176h-9l-113 -175h-211zM572 1083c323 0 491 -211 491 -513v-70c0 -319 -168 -519 -491 -519c-325 0 -494 198 -494 518v70c0 296 169 514 494 514zM571 868c-163 0 -209 -149 -209 -302v-67c0 -150 44 -302 209 -302
s207 151 207 302v67c0 154 -44 302 -207 302z" />
    <glyph glyph-name="otilde" unicode="&#xf5;" horiz-adv-x="1141" 
d="M537 1238c-22 23 -47 49 -85 49c-55 0 -71 -48 -73 -97h-160c0 145 66 279 217 279c67 0 110 -28 160 -77c27 -26 48 -53 85 -53c51 0 68 62 70 112h159c0 -144 -86 -279 -223 -279c-78 0 -117 33 -150 66zM572 1083c323 0 491 -211 491 -513v-70
c0 -319 -168 -519 -491 -519c-325 0 -494 198 -494 518v70c0 296 169 514 494 514zM571 868c-163 0 -209 -149 -209 -302v-67c0 -150 44 -302 209 -302s207 151 207 302v67c0 154 -44 302 -207 302z" />
    <glyph glyph-name="odieresis" unicode="&#xf6;" horiz-adv-x="1141" 
d="M247 1296c0 72 49 121 124 121c76 0 125 -49 125 -121c0 -71 -49 -120 -125 -120c-74 0 -124 49 -124 120zM651 1296c0 72 49 121 123 121c77 0 125 -49 125 -121c0 -71 -48 -120 -125 -120c-74 0 -123 49 -123 120zM572 1083c323 0 491 -211 491 -513v-70
c0 -319 -168 -519 -491 -519c-325 0 -494 198 -494 518v70c0 296 169 514 494 514zM571 868c-163 0 -209 -149 -209 -302v-67c0 -150 44 -302 209 -302s207 151 207 302v67c0 154 -44 302 -207 302z" />
    <glyph glyph-name="divide" unicode="&#xf7;" horiz-adv-x="1185" 
d="M1077 473h-968v206h968v-206zM425 988c0 94 71 157 161 157c92 0 163 -64 163 -157c0 -92 -72 -154 -163 -154c-89 0 -161 62 -161 154zM431 166c0 94 71 157 161 157c91 0 163 -65 163 -157c0 -93 -72 -154 -163 -154c-89 0 -161 61 -161 154z" />
    <glyph glyph-name="oslash" unicode="&#xf8;" horiz-adv-x="1141" 
d="M425 256c34 -40 81 -64 146 -64c151 0 215 135 215 288v123c0 34 -7 65 -18 90zM355 465c0 -34 7 -70 18 -94l343 441c-33 40 -81 65 -145 65c-145 0 -216 -133 -216 -289v-123zM572 -19c-116 0 -217 29 -297 83l-105 -128l-106 89l110 135c-61 81 -96 189 -96 319v110
c0 296 196 494 494 494c112 0 212 -30 291 -84l102 124l111 -91l-108 -133c61 -82 95 -187 95 -309v-110c0 -319 -195 -499 -491 -499z" />
    <glyph glyph-name="ugrave" unicode="&#xf9;" horiz-adv-x="1201" 
d="M766 1230h-236l-263 290h283zM1075 1064v-1064h-274v158h-13c-32 -82 -130 -174 -307 -174c-216 0 -361 127 -361 378v702h281v-628c0 -170 97 -215 194 -215c111 0 198 73 198 218v625h282z" />
    <glyph glyph-name="uacute" unicode="&#xfa;" horiz-adv-x="1201" 
d="M711 1226h-236l207 294h283zM1075 1064v-1064h-274v158h-13c-32 -82 -130 -174 -307 -174c-216 0 -361 127 -361 378v702h281v-628c0 -170 97 -215 194 -215c111 0 198 73 198 218v625h282z" />
    <glyph glyph-name="ucircumflex" unicode="&#xfb;" horiz-adv-x="1201" 
d="M265 1226l230 308h201l219 -309h-216l-101 176h-9l-113 -175h-211zM1075 1064v-1064h-274v158h-13c-32 -82 -130 -174 -307 -174c-216 0 -361 127 -361 378v702h281v-628c0 -170 97 -215 194 -215c111 0 198 73 198 218v625h282z" />
    <glyph glyph-name="udieresis" unicode="&#xfc;" horiz-adv-x="1201" 
d="M1075 1064v-1064h-274v158h-13c-32 -82 -130 -174 -307 -174c-216 0 -361 127 -361 378v702h281v-628c0 -170 97 -215 194 -215c111 0 198 73 198 218v625h282zM277 1296c0 72 49 121 124 121c76 0 125 -49 125 -121c0 -71 -49 -120 -125 -120c-74 0 -124 49 -124 120z
M681 1296c0 72 49 121 123 121c77 0 125 -49 125 -121c0 -71 -48 -120 -125 -120c-74 0 -123 49 -123 120z" />
    <glyph glyph-name="yacute" unicode="&#xfd;" horiz-adv-x="1099" 
d="M1073 1064c0 0 -339 -1015 -343 -1027l-27 -73c-74 -195 -178 -341 -457 -341c-61 0 -124 6 -152 12v200c18 -4 58 -7 88 -7c132 0 176 51 191 138l9 34l-363 1064h310l214 -826h12l219 826h299zM660 1226h-236l207 294h283z" />
    <glyph glyph-name="thorn" unicode="&#xfe;" horiz-adv-x="1202" 
d="M724 -13c-163 0 -261 78 -301 177h-14v-516h-282l-1 1789h278l1 -542h14c39 103 145 182 308 182c239 0 394 -170 394 -476v-136c0 -308 -156 -478 -397 -478zM623 209c123 0 209 89 209 279v88c0 185 -82 279 -211 279s-212 -96 -212 -265v-127c0 -157 87 -254 214 -254
z" />
    <glyph glyph-name="ydieresis" unicode="&#xff;" horiz-adv-x="1099" 
d="M1073 1064c0 0 -339 -1015 -343 -1027l-27 -73c-74 -195 -178 -341 -457 -341c-61 0 -124 6 -152 12v200c18 -4 58 -7 88 -7c132 0 176 51 191 138l9 34l-363 1064h310l214 -826h12l219 826h299zM226 1296c0 72 49 121 124 121c76 0 125 -49 125 -121
c0 -71 -49 -120 -125 -120c-74 0 -124 49 -124 120zM630 1296c0 72 49 121 123 121c77 0 125 -49 125 -121c0 -71 -48 -120 -125 -120c-74 0 -123 49 -123 120z" />
    <glyph glyph-name="Amacron" unicode="&#x100;" horiz-adv-x="1271" 
d="M302 0h-289l452 1365h343l450 -1365h-309l-101 339h-444zM634 1093h-13l-160 -541h331zM931 1505h-590v140h590v-140z" />
    <glyph glyph-name="amacron" unicode="&#x101;" horiz-adv-x="1105" 
d="M709 134c-40 -77 -129 -150 -286 -150c-207 0 -350 122 -350 322c0 192 133 317 379 317h256v103c0 97 -61 142 -164 142c-107 0 -160 -54 -167 -134h-265c7 179 118 346 438 346c253 0 436 -100 436 -362v-718h-265v134h-12zM516 186c106 0 192 70 192 167v105h-189
c-111 0 -167 -54 -167 -132c0 -94 80 -140 164 -140zM849 1226h-590v145h590v-145z" />
    <glyph glyph-name="Abreve" unicode="&#x102;" horiz-adv-x="1271" 
d="M302 0h-289l452 1365h343l450 -1365h-309l-101 339h-444zM634 1093h-13l-160 -541h331zM298 1766h164c0 -80 62 -139 174 -139s174 59 174 139h161c0 -163 -110 -291 -335 -291s-338 127 -338 291z" />
    <glyph glyph-name="abreve" unicode="&#x103;" horiz-adv-x="1105" 
d="M709 134c-40 -77 -129 -150 -286 -150c-207 0 -350 122 -350 322c0 192 133 317 379 317h256v103c0 97 -61 142 -164 142c-107 0 -160 -54 -167 -134h-265c7 179 118 346 438 346c253 0 436 -100 436 -362v-718h-265v134h-12zM516 186c106 0 192 70 192 167v105h-189
c-111 0 -167 -54 -167 -132c0 -94 80 -140 164 -140zM221 1482h163c0 -84 48 -164 159 -164s160 80 160 164h160c0 -163 -109 -314 -320 -314s-323 151 -322 314z" />
    <glyph glyph-name="Aogonek" unicode="&#x104;" horiz-adv-x="1272" 
d="M302 0h-289l452 1365h344l437 -1325c-80 -32 -156 -90 -159 -162c-2 -61 43 -101 118 -101c24 0 60 4 77 8v-154c-23 -10 -85 -21 -147 -21c-128 0 -249 63 -249 200c0 104 65 166 115 203v9h-59l-93 317h-445zM635 1093h-14l-160 -541h332z" />
    <glyph glyph-name="aogonek" unicode="&#x105;" horiz-adv-x="1105" 
d="M516 186c106 0 192 70 192 167v105h-189c-111 0 -167 -54 -167 -132c0 -94 80 -140 164 -140zM998 -368c-26 -9 -78 -22 -142 -22c-125 0 -247 61 -247 204c0 98 51 160 125 206v114h-14c-41 -78 -133 -150 -291 -150c-206 0 -356 122 -356 324c0 190 133 315 379 315
h256v103c0 97 -61 142 -164 142c-107 0 -160 -54 -167 -134h-265c7 182 119 346 440 346c251 0 434 -100 434 -362v-679c-81 -25 -176 -82 -176 -168c0 -59 51 -91 115 -91c23 0 54 3 73 8v-156z" />
    <glyph glyph-name="Cacute" unicode="&#x106;" horiz-adv-x="1286" 
d="M491 1504l271 222h290l-316 -222h-245zM380 757v-154c0 -263 112 -386 288 -386c172 0 261 117 261 258h278v-30c0 -248 -197 -471 -544 -471c-363 0 -577 231 -577 630v154c0 399 216 633 578 633c338 0 543 -220 543 -484v-29h-278c0 140 -91 270 -263 270
c-173 0 -286 -129 -286 -391z" />
    <glyph glyph-name="cacute" unicode="&#x107;" horiz-adv-x="1073" 
d="M78 489v94c0 291 175 500 480 500c280 0 443 -172 445 -384h-258c-7 79 -69 164 -179 164c-136 0 -205 -121 -205 -283v-89c0 -172 75 -286 205 -286c122 0 171 71 183 150h258c-5 -233 -190 -374 -450 -374c-298 0 -479 193 -479 508zM647 1226h-236l207 294h283z" />
    <glyph glyph-name="Ccircumflex" unicode="&#x108;" horiz-adv-x="1286" 
d="M380 757v-154c0 -263 112 -386 288 -386c172 0 261 117 261 258h278v-30c0 -248 -197 -471 -544 -471c-363 0 -577 231 -577 630v154c0 399 216 633 578 633c338 0 543 -220 543 -484v-29h-278c0 140 -91 270 -263 270c-173 0 -286 -129 -286 -391zM294 1495l269 244h190
l262 -244h-219l-133 128h-14l-137 -128h-218z" />
    <glyph glyph-name="ccircumflex" unicode="&#x109;" horiz-adv-x="1073" 
d="M201 1226l230 308h201l219 -309h-216l-101 176h-9l-113 -175h-211zM78 489v94c0 291 175 500 480 500c280 0 443 -172 445 -384h-258c-7 79 -69 164 -179 164c-136 0 -205 -121 -205 -283v-89c0 -172 75 -286 205 -286c122 0 171 71 183 150h258
c-5 -233 -190 -374 -450 -374c-298 0 -479 193 -479 508z" />
    <glyph glyph-name="Cdotaccent" unicode="&#x10a;" horiz-adv-x="1286" 
d="M380 757v-154c0 -263 112 -386 288 -386c172 0 261 117 261 258h278v-30c0 -248 -197 -471 -544 -471c-363 0 -577 231 -577 630v154c0 399 216 633 578 633c338 0 543 -220 543 -484v-29h-278c0 140 -91 270 -263 270c-173 0 -286 -129 -286 -391zM527 1605
c0 74 54 129 127 129c74 0 131 -55 131 -129s-57 -126 -131 -126c-73 0 -127 52 -127 126z" />
    <glyph glyph-name="cdotaccent" unicode="&#x10b;" horiz-adv-x="1073" 
d="M78 489v94c0 291 175 500 480 500c280 0 443 -172 445 -384h-258c-7 79 -69 164 -179 164c-136 0 -205 -121 -205 -283v-89c0 -172 75 -286 205 -286c122 0 171 71 183 150h258c-5 -233 -190 -374 -450 -374c-298 0 -479 193 -479 508zM410 1303c0 74 54 129 127 129
c74 0 131 -55 131 -129s-57 -126 -131 -126c-73 0 -127 52 -127 126z" />
    <glyph glyph-name="Ccaron" unicode="&#x10c;" horiz-adv-x="1286" 
d="M380 757v-154c0 -263 112 -386 288 -386c172 0 261 117 261 258h278v-30c0 -248 -197 -471 -544 -471c-363 0 -577 231 -577 630v154c0 399 216 633 578 633c338 0 543 -220 543 -484v-29h-278c0 140 -91 270 -263 270c-173 0 -286 -129 -286 -391zM293 1732h218
l137 -120h14l133 120h219l-262 -233h-190z" />
    <glyph glyph-name="ccaron" unicode="&#x10d;" horiz-adv-x="1073" 
d="M215 1507h210l113 -175h10l101 176h216l-220 -309h-200zM78 489v94c0 291 175 500 480 500c280 0 443 -172 445 -384h-258c-7 79 -69 164 -179 164c-136 0 -205 -121 -205 -283v-89c0 -172 75 -286 205 -286c122 0 171 71 183 150h258c-5 -233 -190 -374 -450 -374
c-298 0 -479 193 -479 508z" />
    <glyph glyph-name="Dcaron" unicode="&#x10e;" horiz-adv-x="1336" 
d="M250 1732h218l137 -120h14l133 120h219l-262 -233h-190zM141 1365h511c441 0 612 -276 612 -678c0 -401 -170 -687 -612 -687h-511v1365zM431 1132v-898h179c223 0 357 113 357 447c0 255 -81 451 -357 451h-179z" />
    <glyph glyph-name="dcaron" unicode="&#x10f;" horiz-adv-x="1448" 
d="M1253 1436h225l-47 -488h-178v488zM480 1077c159 0 267 -72 303 -170h11v530h282v-1437h-278v165h-11c-31 -98 -144 -178 -307 -178c-254 0 -400 188 -400 491v109c0 301 145 490 400 490zM579 854c-137 0 -210 -111 -210 -288v-68c0 -179 75 -289 213 -289
c130 0 212 101 212 288v73c0 180 -83 284 -215 284z" />
    <glyph glyph-name="Dcroat" unicode="&#x110;" horiz-adv-x="1426" 
d="M742 0h-511v567h-165v250h165v548h511c441 0 612 -276 612 -678c0 -401 -170 -687 -612 -687zM520 240h179c223 0 356 112 356 446c0 256 -80 452 -356 452h-179v-321h235v-250h-235v-327z" />
    <glyph glyph-name="dcroat" unicode="&#x111;" horiz-adv-x="1206" 
d="M578 854c-126 0 -208 -96 -208 -273v-98c0 -179 84 -274 211 -274s214 96 214 265v127c0 157 -91 253 -217 253zM785 170c-31 -98 -142 -183 -309 -183c-239 0 -395 174 -395 471v149c0 294 155 470 397 470c163 0 267 -77 303 -175h14v245h-225v161h236v154h261v-154
h128v-161h-118v-1147h-278v170h-14z" />
    <glyph glyph-name="Emacron" unicode="&#x112;" horiz-adv-x="1133" 
d="M1032 234v-234h-891v1365h891v-234h-604v-332h568v-218h-568v-347h604zM872 1505h-590v140h590v-140z" />
    <glyph glyph-name="emacron" unicode="&#x113;" horiz-adv-x="1106" 
d="M570 -19c-308 0 -492 186 -492 508v83c0 322 191 511 478 511c301 0 475 -202 475 -510v-100h-677v-36c0 -135 77 -242 215 -242c116 0 180 60 190 132h263c-13 -148 -135 -346 -452 -346zM354 645h406v2c0 133 -76 228 -202 228c-125 0 -204 -96 -204 -228v-2zM850 1226
h-590v145h590v-145z" />
    <glyph glyph-name="Ebreve" unicode="&#x114;" horiz-adv-x="1133" 
d="M1032 234v-234h-891v1365h891v-234h-604v-332h568v-218h-568v-347h604zM239 1766h164c0 -80 62 -139 174 -139s174 59 174 139h161c0 -163 -110 -291 -335 -291s-338 127 -338 291z" />
    <glyph glyph-name="ebreve" unicode="&#x115;" horiz-adv-x="1106" 
d="M570 -19c-308 0 -492 186 -492 508v83c0 322 191 511 478 511c301 0 475 -202 475 -510v-100h-677v-36c0 -135 77 -242 215 -242c116 0 180 60 190 132h263c-13 -148 -135 -346 -452 -346zM354 645h406v2c0 133 -76 228 -202 228c-125 0 -204 -96 -204 -228v-2zM222 1482
h163c0 -84 48 -164 159 -164s160 80 160 164h160c0 -163 -109 -314 -320 -314s-323 151 -322 314z" />
    <glyph glyph-name="Edotaccent" unicode="&#x116;" horiz-adv-x="1133" 
d="M451 1605c0 74 54 129 127 129c74 0 131 -55 131 -129s-57 -126 -131 -126c-73 0 -127 52 -127 126zM1032 234v-234h-891v1365h891v-234h-604v-332h568v-218h-568v-347h604z" />
    <glyph glyph-name="edotaccent" unicode="&#x117;" horiz-adv-x="1106" 
d="M427 1303c0 74 54 129 127 129c74 0 131 -55 131 -129s-57 -126 -131 -126c-73 0 -127 52 -127 126zM570 -19c-308 0 -492 186 -492 508v83c0 322 191 511 478 511c301 0 475 -202 475 -510v-100h-677v-36c0 -135 77 -242 215 -242c116 0 180 60 190 132h263
c-13 -148 -135 -346 -452 -346zM354 645h406v2c0 133 -76 228 -202 228c-125 0 -204 -96 -204 -228v-2z" />
    <glyph glyph-name="Eogonek" unicode="&#x118;" horiz-adv-x="1133" 
d="M1033 -369c-31 -10 -90 -21 -142 -21c-132 0 -247 62 -247 200c0 78 42 139 102 180v10h-605v1365h891v-234h-604v-332h568v-218h-568v-347h604v-189c-85 -18 -189 -76 -189 -172c0 -62 49 -96 119 -96c23 0 54 4 71 8v-154z" />
    <glyph glyph-name="eogonek" unicode="&#x119;" horiz-adv-x="1106" 
d="M657 5c-24 -11 -76 -19 -122 -19c-273 0 -457 181 -457 503v83c0 322 191 511 478 511c301 0 475 -202 475 -510v-100h-677v-36c0 -135 76 -242 217 -242c114 0 178 61 188 132h261c-10 -114 -65 -188 -134 -255c-62 -61 -114 -115 -114 -189c0 -70 55 -103 120 -103
c25 0 59 5 73 8v-157c-22 -8 -71 -21 -141 -21c-148 0 -251 74 -251 198c0 96 55 150 91 184zM354 645h406v2c0 133 -76 228 -202 228c-125 0 -204 -96 -204 -228v-2z" />
    <glyph glyph-name="Ecaron" unicode="&#x11a;" horiz-adv-x="1133" 
d="M217 1732h218l137 -120h14l133 120h219l-262 -233h-190zM1032 234v-234h-891v1365h891v-234h-604v-332h568v-218h-568v-347h604z" />
    <glyph glyph-name="ecaron" unicode="&#x11b;" horiz-adv-x="1106" 
d="M232 1507h210l113 -175h10l101 176h216l-220 -309h-200zM570 -19c-308 0 -492 186 -492 508v83c0 322 191 511 478 511c301 0 475 -202 475 -510v-100h-677v-36c0 -135 77 -242 215 -242c116 0 180 60 190 132h263c-13 -148 -135 -346 -452 -346zM354 645h406v2
c0 133 -76 228 -202 228c-125 0 -204 -96 -204 -228v-2z" />
    <glyph glyph-name="Gcircumflex" unicode="&#x11c;" horiz-adv-x="1311" 
d="M306 1495l269 244h190l262 -244h-219l-133 128h-14l-137 -128h-218zM1223 924h-282c-17 143 -124 226 -268 226c-172 0 -295 -119 -295 -380v-167c0 -225 84 -388 298 -388c169 0 274 106 274 236v77h-267v212h542v-270c0 -220 -144 -496 -553 -496
c-407 0 -586 269 -586 628v170c0 375 219 619 591 619c360 0 537 -230 546 -467z" />
    <glyph glyph-name="gcircumflex" unicode="&#x11d;" horiz-adv-x="1182" 
d="M256 1226l230 308h201l219 -309h-216l-101 176h-9l-113 -175h-211zM565 -189c149 0 221 80 221 221v150h-12c-39 -94 -149 -167 -300 -167c-233 0 -399 174 -399 483v93c0 307 163 486 401 486c166 0 262 -77 301 -170h12v157h277v-1050c0 -305 -249 -408 -509 -408
c-318 0 -455 158 -460 325h271c13 -70 80 -120 197 -120zM579 855c-131 0 -216 -103 -216 -279v-80c0 -177 90 -273 217 -273c129 0 205 110 205 267v86c0 167 -79 279 -206 279z" />
    <glyph glyph-name="Gbreve" unicode="&#x11e;" horiz-adv-x="1311" 
d="M1223 924h-282c-17 143 -124 226 -268 226c-172 0 -295 -119 -295 -380v-167c0 -225 84 -388 298 -388c169 0 274 106 274 236v77h-267v212h542v-270c0 -220 -144 -496 -553 -496c-407 0 -586 269 -586 628v170c0 375 219 619 591 619c360 0 537 -230 546 -467zM327 1766
h164c0 -80 62 -139 174 -139s174 59 174 139h161c0 -163 -110 -291 -335 -291s-338 127 -338 291z" />
    <glyph glyph-name="gbreve" unicode="&#x11f;" horiz-adv-x="1182" 
d="M260 1482h163c0 -84 48 -164 159 -164s160 80 160 164h160c0 -163 -109 -314 -320 -314s-323 151 -322 314zM565 -189c149 0 221 80 221 221v150h-12c-39 -94 -149 -167 -300 -167c-233 0 -399 174 -399 483v93c0 307 163 486 401 486c166 0 262 -77 301 -170h12v157h277
v-1050c0 -305 -249 -408 -509 -408c-318 0 -455 158 -460 325h271c13 -70 80 -120 197 -120zM579 855c-131 0 -216 -103 -216 -279v-80c0 -177 90 -273 217 -273c129 0 205 110 205 267v86c0 167 -79 279 -206 279z" />
    <glyph glyph-name="Gdotaccent" unicode="&#x120;" horiz-adv-x="1311" 
d="M539 1605c0 74 54 129 127 129c74 0 131 -55 131 -129s-57 -126 -131 -126c-73 0 -127 52 -127 126zM1223 924h-282c-17 143 -124 226 -268 226c-172 0 -295 -119 -295 -380v-167c0 -225 84 -388 298 -388c169 0 274 106 274 236v77h-267v212h542v-270
c0 -220 -144 -496 -553 -496c-407 0 -586 269 -586 628v170c0 375 219 619 591 619c360 0 537 -230 546 -467z" />
    <glyph glyph-name="gdotaccent" unicode="&#x121;" horiz-adv-x="1182" 
d="M465 1303c0 74 54 129 127 129c74 0 131 -55 131 -129s-57 -126 -131 -126c-73 0 -127 52 -127 126zM565 -189c149 0 221 80 221 221v150h-12c-39 -94 -149 -167 -300 -167c-233 0 -399 174 -399 483v93c0 307 163 486 401 486c166 0 262 -77 301 -170h12v157h277v-1050
c0 -305 -249 -408 -509 -408c-318 0 -455 158 -460 325h271c13 -70 80 -120 197 -120zM579 855c-131 0 -216 -103 -216 -279v-80c0 -177 90 -273 217 -273c129 0 205 110 205 267v86c0 167 -79 279 -206 279z" />
    <glyph glyph-name="Gcommaaccent" unicode="&#x122;" horiz-adv-x="1311" 
d="M668 -489h-189l85 335h218zM1223 924h-282c-17 143 -124 226 -268 226c-172 0 -295 -119 -295 -380v-167c0 -225 84 -388 298 -388c169 0 274 106 274 236v77h-267v212h542v-270c0 -220 -144 -496 -553 -496c-407 0 -586 269 -586 628v170c0 375 219 619 591 619
c360 0 537 -230 546 -467z" />
    <glyph glyph-name="gcommaaccent" unicode="&#x123;" horiz-adv-x="1182" 
d="M563 1593h188l-85 -335h-217zM565 -189c149 0 221 80 221 221v150h-12c-39 -94 -149 -167 -300 -167c-233 0 -399 174 -399 483v93c0 307 163 486 401 486c166 0 262 -77 301 -170h12v157h277v-1050c0 -305 -249 -408 -509 -408c-318 0 -455 158 -460 325h271
c13 -70 80 -120 197 -120zM579 855c-131 0 -216 -103 -216 -279v-80c0 -177 90 -273 217 -273c129 0 205 110 205 267v86c0 167 -79 279 -206 279z" />
    <glyph glyph-name="Hcircumflex" unicode="&#x124;" horiz-adv-x="1412" 
d="M1271 0h-290v577h-550v-577h-290v1365h290v-550h550v550h290v-1365zM346 1495l269 244h190l262 -244h-219l-133 128h-14l-137 -128h-218z" />
    <glyph glyph-name="hcircumflex" unicode="&#x125;" horiz-adv-x="1210" 
d="M130 0v1437h281v-531h13c28 74 119 174 296 174c225 0 372 -152 372 -404v-676h-282v609c0 158 -81 233 -195 233c-119 0 -204 -79 -204 -234v-608h-281zM-65 1600l230 308h201l219 -309h-216l-101 176h-9l-113 -175h-211z" />
    <glyph glyph-name="Hbar" unicode="&#x126;" horiz-adv-x="1412" 
d="M431 800h550v195h-550v-195zM431 562v-562h-290v995h-90v177h90v193h290v-193h550v193h290v-193h89v-177h-89v-995h-290v562h-550z" />
    <glyph glyph-name="hbar" unicode="&#x127;" horiz-adv-x="1210" 
d="M411 591v-591h-281v1147h-112v161h123v129h261v-129h235v-161h-226v-270h14c23 77 114 203 315 203c207 0 352 -123 352 -372v-708h-282v633c0 154 -84 213 -187 213c-128 0 -212 -100 -212 -255z" />
    <glyph glyph-name="Itilde" unicode="&#x128;" horiz-adv-x="572" 
d="M431 0h-290v1365h290v-1365zM270 1521c-24 22 -46 51 -82 51c-49 0 -64 -43 -66 -85h-144c0 105 59 217 187 217c71 0 109 -24 152 -63c30 -26 49 -51 82 -51c47 0 63 55 65 99h144c0 -119 -78 -223 -192 -223c-83 0 -115 26 -146 55z" />
    <glyph glyph-name="itilde" unicode="&#x129;" horiz-adv-x="570" 
d="M148 0v1064h288v-1064h-288zM257 1238c-22 23 -47 49 -85 49c-55 0 -71 -48 -73 -97h-160c0 145 66 279 217 279c67 0 110 -28 160 -77c27 -26 48 -53 85 -53c51 0 68 62 70 112h159c0 -144 -86 -279 -223 -279c-78 0 -117 33 -150 66z" />
    <glyph glyph-name="Imacron" unicode="&#x12a;" horiz-adv-x="572" 
d="M431 0h-290v1365h290v-1365zM581 1505h-590v140h590v-140z" />
    <glyph glyph-name="imacron" unicode="&#x12b;" horiz-adv-x="570" 
d="M148 0v1064h288v-1064h-288zM587 1226h-590v145h590v-145z" />
    <glyph glyph-name="Ibreve" unicode="&#x12c;" horiz-adv-x="572" 
d="M431 0h-290v1365h290v-1365zM-52 1766h164c0 -80 62 -139 174 -139s174 59 174 139h161c0 -163 -110 -291 -335 -291s-338 127 -338 291z" />
    <glyph glyph-name="ibreve" unicode="&#x12d;" horiz-adv-x="570" 
d="M148 0v1064h288v-1064h-288zM-41 1482h163c0 -84 48 -164 159 -164s160 80 160 164h160c0 -163 -109 -314 -320 -314s-323 151 -322 314z" />
    <glyph glyph-name="Iogonek" unicode="&#x12e;" horiz-adv-x="571" 
d="M453 -366c-20 -10 -80 -24 -146 -24c-159 0 -246 83 -246 204c0 103 66 163 120 196v8h-40v1347h290v-1323c-113 -45 -167 -103 -167 -171c0 -63 48 -95 114 -95c23 0 59 4 75 9v-151z" />
    <glyph glyph-name="iogonek" unicode="&#x12f;" horiz-adv-x="570" 
d="M438 -371c-26 -9 -82 -19 -140 -19c-169 0 -277 72 -277 207c0 101 62 164 124 201v1046h281v-1010c-76 -27 -189 -88 -189 -180c0 -63 51 -97 122 -97c23 0 62 3 79 8v-156zM112 1374c0 88 67 151 172 151c107 0 175 -63 175 -151c0 -87 -67 -150 -175 -150
c-105 0 -172 63 -172 150z" />
    <glyph glyph-name="Idotaccent" unicode="&#x130;" horiz-adv-x="572" 
d="M431 0h-290v1365h290v-1365zM160 1605c0 74 54 129 127 129c74 0 131 -55 131 -129s-57 -126 -131 -126c-73 0 -127 52 -127 126z" />
    <glyph glyph-name="dotlessi" unicode="&#x131;" horiz-adv-x="570" 
d="M148 0v1064h288v-1064h-288z" />
    <glyph glyph-name="Jcircumflex" unicode="&#x134;" horiz-adv-x="1083" 
d="M26 405h278c3 -110 77 -174 175 -174c116 0 183 65 183 207v927h290v-922c0 -316 -186 -469 -470 -469c-306 0 -456 201 -456 431zM448 1495l269 244h190l262 -244h-219l-133 128h-14l-137 -128h-218z" />
    <glyph glyph-name="jcircumflex" unicode="&#x135;" horiz-adv-x="570" 
d="M425 1064v-1076c0 -245 -146 -352 -362 -352c-38 0 -93 4 -112 8v200c14 -3 37 -4 57 -4c91 0 137 42 137 151v1073h280zM-36 1213l230 308h201l219 -309h-216l-101 176h-9l-113 -175h-211z" />
    <glyph glyph-name="Kcommaaccent" unicode="&#x136;" horiz-adv-x="1273" 
d="M1260 1365l-483 -589l503 -776h-346l-369 584l-134 -154v-430h-290v1365h290v-601h13l501 601h315zM639 -489h-189l85 335h218z" />
    <glyph glyph-name="kcommaaccent" unicode="&#x137;" horiz-adv-x="1120" 
d="M409 366v-366h-281v1437h281v-810h13l339 437h316l-381 -459l408 -605h-328l-295 446zM577 -489h-189l85 335h218z" />
    <glyph glyph-name="Lacute" unicode="&#x139;" horiz-adv-x="1025" 
d="M123 1504l271 222h290l-316 -222h-245zM1000 245v-245h-859v1365h290v-1120h569z" />
    <glyph glyph-name="lacute" unicode="&#x13a;" horiz-adv-x="550" 
d="M386 1600h-236l207 294h283zM134 0v1437h282v-1437h-282z" />
    <glyph glyph-name="Lcommaaccent" unicode="&#x13b;" horiz-adv-x="1025" 
d="M522 -489h-189l85 335h218zM1000 245v-245h-859v1365h290v-1120h569z" />
    <glyph glyph-name="lcommaaccent" unicode="&#x13c;" horiz-adv-x="550" 
d="M278 -489h-189l85 335h218zM134 0v1437h282v-1437h-282z" />
    <glyph glyph-name="Lcaron" unicode="&#x13d;" horiz-adv-x="1025" 
d="M634 1436h229l-50 -488h-179v488zM1000 245v-245h-859v1365h290v-1120h569z" />
    <glyph glyph-name="lcaron" unicode="&#x13e;" horiz-adv-x="759" 
d="M570 1436h224l-47 -488h-177v488zM134 0v1437h282v-1437h-282z" />
    <glyph glyph-name="Lslash" unicode="&#x141;" horiz-adv-x="1052" 
d="M1027 0h-859v510l-119 -68v242l119 68v613h289v-451l309 178v-245l-309 -176v-426h570v-245z" />
    <glyph glyph-name="lslash" unicode="&#x142;" horiz-adv-x="648" 
d="M466 0h-282v556l-139 -86v230l139 88v649h282v-482l137 87v-243l-137 -85v-714z" />
    <glyph glyph-name="Nacute" unicode="&#x143;" horiz-adv-x="1385" 
d="M530 1504l271 222h290l-316 -222h-245zM413 0h-272v1365h237l584 -876h10v876h272v-1365h-236l-585 882h-10v-882z" />
    <glyph glyph-name="nacute" unicode="&#x144;" horiz-adv-x="1204" 
d="M713 1226h-236l207 294h283zM126 0v1064h274v-158h12c34 81 136 174 307 174c211 0 364 -130 364 -381v-699h-281v617c0 165 -83 225 -195 225c-119 0 -200 -76 -200 -231v-611h-281z" />
    <glyph glyph-name="Ncommaaccent" unicode="&#x145;" horiz-adv-x="1385" 
d="M695 -489h-189l85 335h218zM413 0h-272v1365h237l584 -876h10v876h272v-1365h-236l-585 882h-10v-882z" />
    <glyph glyph-name="ncommaaccent" unicode="&#x146;" horiz-adv-x="1204" 
d="M605 -489h-189l85 335h218zM126 0v1064h274v-158h12c34 81 136 174 307 174c211 0 364 -130 364 -381v-699h-281v617c0 165 -83 225 -195 225c-119 0 -200 -76 -200 -231v-611h-281z" />
    <glyph glyph-name="Ncaron" unicode="&#x147;" horiz-adv-x="1385" 
d="M332 1732h218l137 -120h14l133 120h219l-262 -233h-190zM413 0h-272v1365h237l584 -876h10v876h272v-1365h-236l-585 882h-10v-882z" />
    <glyph glyph-name="ncaron" unicode="&#x148;" horiz-adv-x="1204" 
d="M281 1507h210l113 -175h10l101 176h216l-220 -309h-200zM126 0v1064h274v-158h12c34 81 136 174 307 174c211 0 364 -130 364 -381v-699h-281v617c0 165 -83 225 -195 225c-119 0 -200 -76 -200 -231v-611h-281z" />
    <glyph glyph-name="Omacron" unicode="&#x14c;" horiz-adv-x="1357" 
d="M380 766v-174c0 -255 124 -378 298 -378c175 0 298 123 298 378v174c0 254 -123 386 -298 386c-174 0 -298 -132 -298 -386zM86 593v170c0 388 222 628 593 628c372 0 592 -242 592 -628v-170c0 -385 -222 -619 -594 -619c-371 0 -591 234 -591 619zM973 1505h-590v140
h590v-140z" />
    <glyph glyph-name="omacron" unicode="&#x14d;" horiz-adv-x="1141" 
d="M867 1226h-590v145h590v-145zM572 1083c323 0 491 -211 491 -513v-70c0 -319 -168 -519 -491 -519c-325 0 -494 198 -494 518v70c0 296 169 514 494 514zM571 868c-163 0 -209 -149 -209 -302v-67c0 -150 44 -302 209 -302s207 151 207 302v67c0 154 -44 302 -207 302z
" />
    <glyph glyph-name="Obreve" unicode="&#x14e;" horiz-adv-x="1357" 
d="M380 766v-174c0 -255 124 -378 298 -378c175 0 298 123 298 378v174c0 254 -123 386 -298 386c-174 0 -298 -132 -298 -386zM86 593v170c0 388 222 628 593 628c372 0 592 -242 592 -628v-170c0 -385 -222 -619 -594 -619c-371 0 -591 234 -591 619zM340 1766h164
c0 -80 62 -139 174 -139s174 59 174 139h161c0 -163 -110 -291 -335 -291s-338 127 -338 291z" />
    <glyph glyph-name="obreve" unicode="&#x14f;" horiz-adv-x="1141" 
d="M239 1482h163c0 -84 48 -164 159 -164s160 80 160 164h160c0 -163 -109 -314 -320 -314s-323 151 -322 314zM572 1083c323 0 491 -211 491 -513v-70c0 -319 -168 -519 -491 -519c-325 0 -494 198 -494 518v70c0 296 169 514 494 514zM571 868c-163 0 -209 -149 -209 -302
v-67c0 -150 44 -302 209 -302s207 151 207 302v67c0 154 -44 302 -207 302z" />
    <glyph glyph-name="Ohungarumlaut" unicode="&#x150;" horiz-adv-x="1357" 
d="M367 1504l280 229h236l-314 -229h-202zM745 1504l280 229h236l-313 -229h-203zM380 766v-174c0 -255 124 -378 298 -378c175 0 298 123 298 378v174c0 254 -123 386 -298 386c-174 0 -298 -132 -298 -386zM86 593v170c0 388 222 628 593 628c372 0 592 -242 592 -628
v-170c0 -385 -222 -619 -594 -619c-371 0 -591 234 -591 619z" />
    <glyph glyph-name="ohungarumlaut" unicode="&#x151;" horiz-adv-x="1141" 
d="M450 1226h-168l229 329h213zM794 1226h-169l229 329h213zM572 1083c323 0 491 -211 491 -513v-70c0 -319 -168 -519 -491 -519c-325 0 -494 198 -494 518v70c0 296 169 514 494 514zM571 868c-163 0 -209 -149 -209 -302v-67c0 -150 44 -302 209 -302s207 151 207 302v67
c0 154 -44 302 -207 302z" />
    <glyph glyph-name="OE" unicode="&#x152;" horiz-adv-x="1966" 
d="M390 766v-175c0 -255 125 -379 299 -379c175 0 300 117 300 372v193c0 254 -125 375 -300 375c-174 0 -299 -132 -299 -386zM635 -26c-340 0 -549 240 -549 621v167c0 406 227 629 551 629c160 0 296 -57 365 -167h17v141h846v-234h-599v-332h563v-218h-563v-347h599
v-234h-846v145h-17c-68 -104 -198 -171 -367 -171z" />
    <glyph glyph-name="oe" unicode="&#x153;" horiz-adv-x="1817" 
d="M1280 -19c-152 0 -283 60 -347 146h-17c-67 -87 -201 -146 -344 -146c-300 0 -494 178 -494 498v110c0 296 196 494 494 494c142 0 276 -55 343 -152h17c63 91 191 152 334 152c280 0 475 -188 475 -491v-121h-678v-49c0 -135 86 -227 215 -227c104 0 180 50 190 116h264
c-10 -136 -142 -330 -452 -330zM571 868c-141 0 -209 -129 -209 -282v-107c0 -150 62 -282 209 -282c146 0 207 131 207 282v107c0 154 -65 282 -207 282zM1063 637h406v10c0 137 -79 228 -201 228s-205 -91 -205 -228v-10z" />
    <glyph glyph-name="Racute" unicode="&#x154;" horiz-adv-x="1270" 
d="M453 1504l271 222h290l-316 -222h-245zM697 1365c328 0 486 -190 486 -436c0 -225 -147 -344 -247 -384l274 -545h-322l-237 502h-225v-502h-285v1365h556zM426 714h225c144 0 234 73 234 210c0 145 -98 219 -230 219h-229v-429z" />
    <glyph glyph-name="racute" unicode="&#x155;" horiz-adv-x="789" 
d="M541 1226h-236l207 294h283zM135 0v1064h282v-147h12c23 68 86 162 246 162c39 0 67 -3 87 -8v-242c-21 7 -65 11 -108 11c-170 0 -230 -99 -230 -242v-598h-289z" />
    <glyph glyph-name="Rcommaaccent" unicode="&#x156;" horiz-adv-x="1270" 
d="M697 1365c328 0 486 -190 486 -436c0 -225 -147 -344 -247 -384l274 -545h-322l-237 502h-225v-502h-285v1365h556zM426 714h225c144 0 234 73 234 210c0 145 -98 219 -230 219h-229v-429zM618 -489h-189l85 335h218z" />
    <glyph glyph-name="rcommaaccent" unicode="&#x157;" horiz-adv-x="789" 
d="M135 0v1064h282v-147h12c23 68 86 162 246 162c39 0 67 -3 87 -8v-242c-21 7 -65 11 -108 11c-170 0 -230 -99 -230 -242v-598h-289zM285 -489h-189l85 335h218z" />
    <glyph glyph-name="Rcaron" unicode="&#x158;" horiz-adv-x="1270" 
d="M697 1365c328 0 486 -190 486 -436c0 -225 -147 -344 -247 -384l274 -545h-322l-237 502h-225v-502h-285v1365h556zM426 714h225c144 0 234 73 234 210c0 145 -98 219 -230 219h-229v-429zM255 1732h218l137 -120h14l133 120h219l-262 -233h-190z" />
    <glyph glyph-name="rcaron" unicode="&#x159;" horiz-adv-x="789" 
d="M109 1507h210l113 -175h10l101 176h216l-220 -309h-200zM135 0v1064h282v-147h12c23 68 86 162 246 162c39 0 67 -3 87 -8v-242c-21 7 -65 11 -108 11c-170 0 -230 -99 -230 -242v-598h-289z" />
    <glyph glyph-name="Sacute" unicode="&#x15a;" horiz-adv-x="1217" 
d="M445 1504l271 222h290l-316 -222h-245zM59 392h278c8 -101 99 -191 272 -191c161 0 247 72 247 178c0 93 -70 138 -208 169l-205 47c-192 41 -352 149 -352 381c0 268 228 417 517 417c305 0 510 -168 513 -409h-270c-7 96 -86 185 -244 185c-140 0 -227 -66 -227 -171
c0 -79 64 -132 186 -157l207 -46c200 -43 369 -140 369 -388c0 -268 -209 -433 -547 -433c-402 0 -532 225 -536 418z" />
    <glyph glyph-name="sacute" unicode="&#x15b;" horiz-adv-x="1037" 
d="M87 748c0 239 204 335 434 335c252 0 412 -124 412 -326h-248c-7 64 -50 136 -169 136c-100 0 -161 -48 -161 -122c0 -107 163 -120 277 -140c196 -33 334 -108 334 -301c0 -217 -171 -349 -462 -349c-277 0 -438 131 -438 320h273c9 -73 71 -128 178 -128
c124 0 176 55 176 125c0 99 -126 111 -263 137c-189 38 -343 106 -343 313zM629 1226h-236l207 294h283z" />
    <glyph glyph-name="Scircumflex" unicode="&#x15c;" horiz-adv-x="1217" 
d="M59 392h278c8 -101 99 -191 272 -191c161 0 247 72 247 178c0 93 -70 138 -208 169l-205 47c-192 41 -352 149 -352 381c0 268 228 417 517 417c305 0 510 -168 513 -409h-270c-7 96 -86 185 -244 185c-140 0 -227 -66 -227 -171c0 -79 64 -132 186 -157l207 -46
c200 -43 369 -140 369 -388c0 -268 -209 -433 -547 -433c-402 0 -532 225 -536 418zM248 1495l269 244h190l262 -244h-219l-133 128h-14l-137 -128h-218z" />
    <glyph glyph-name="scircumflex" unicode="&#x15d;" horiz-adv-x="1037" 
d="M183 1226l230 308h201l219 -309h-216l-101 176h-9l-113 -175h-211zM87 748c0 239 204 335 434 335c252 0 412 -124 412 -326h-248c-7 64 -50 136 -169 136c-100 0 -161 -48 -161 -122c0 -107 163 -120 277 -140c196 -33 334 -108 334 -301c0 -217 -171 -349 -462 -349
c-277 0 -438 131 -438 320h273c9 -73 71 -128 178 -128c124 0 176 55 176 125c0 99 -126 111 -263 137c-189 38 -343 106 -343 313z" />
    <glyph glyph-name="Scedilla" unicode="&#x15e;" horiz-adv-x="1217" 
d="M607 -472c-68 -1 -122 8 -146 16v125c27 -8 75 -13 111 -13c52 0 109 11 109 60s-40 59 -124 59h-55v104l39 96c-360 19 -478 233 -482 417h278c8 -101 99 -191 272 -191c161 0 247 72 247 178c0 93 -70 138 -208 169l-205 47c-192 41 -352 149 -352 381
c0 268 228 417 517 417c305 0 510 -168 513 -409h-270c-7 96 -86 185 -244 185c-140 0 -227 -66 -227 -171c0 -79 64 -132 186 -157l207 -46c200 -43 369 -140 369 -388c0 -238 -166 -394 -438 -427l-37 -87c117 0 188 -62 188 -168c0 -136 -103 -194 -248 -197z" />
    <glyph glyph-name="scedilla" unicode="&#x15f;" horiz-adv-x="1037" 
d="M510 -469c-68 -1 -121 8 -146 16v125c27 -8 76 -13 111 -13c52 0 109 11 109 60s-44 59 -128 59h-55v104l38 101c-238 20 -373 144 -373 318h273c9 -73 71 -128 178 -128c124 0 176 55 176 125c0 99 -126 111 -263 137c-189 38 -343 106 -343 313c0 239 204 335 434 335
c252 0 412 -124 412 -326h-248c-7 64 -50 136 -169 136c-100 0 -161 -48 -161 -122c0 -107 163 -120 277 -140c196 -33 334 -108 334 -301c0 -192 -134 -317 -364 -343l-36 -91c117 0 192 -62 192 -168c0 -136 -102 -194 -248 -197z" />
    <glyph glyph-name="Scaron" unicode="&#x160;" horiz-adv-x="1217" 
d="M59 392h278c8 -101 99 -191 272 -191c161 0 247 72 247 178c0 93 -70 138 -208 169l-205 47c-192 41 -352 149 -352 381c0 268 228 417 517 417c305 0 510 -168 513 -409h-270c-7 96 -86 185 -244 185c-140 0 -227 -66 -227 -171c0 -79 64 -132 186 -157l207 -46
c200 -43 369 -140 369 -388c0 -268 -209 -433 -547 -433c-402 0 -532 225 -536 418zM247 1732h218l137 -120h14l133 120h219l-262 -233h-190z" />
    <glyph glyph-name="scaron" unicode="&#x161;" horiz-adv-x="1037" 
d="M197 1507h210l113 -175h10l101 176h216l-220 -309h-200zM87 748c0 239 204 335 434 335c252 0 412 -124 412 -326h-248c-7 64 -50 136 -169 136c-100 0 -161 -48 -161 -122c0 -107 163 -120 277 -140c196 -33 334 -108 334 -301c0 -217 -171 -349 -462 -349
c-277 0 -438 131 -438 320h273c9 -73 71 -128 178 -128c124 0 176 55 176 125c0 99 -126 111 -263 137c-189 38 -343 106 -343 313z" />
    <glyph glyph-name="Tcedilla" unicode="&#x162;" horiz-adv-x="1083" 
d="M533 -482c-68 -2 -122 8 -146 15v126c27 -8 75 -14 111 -14c52 0 109 11 109 60c0 50 -44 59 -129 59h-55v105l50 131h-76v1125h-383v240h1055v-240h-383v-1125h-52l-45 -117c117 0 192 -63 192 -169c0 -135 -103 -193 -248 -196z" />
    <glyph glyph-name="tcedilla" unicode="&#x163;" horiz-adv-x="770" 
d="M421 -461c-68 -1 -122 8 -146 16v125c27 -8 75 -13 111 -13c52 0 109 11 109 60s-44 59 -129 59h-55v104l49 132c-116 40 -162 128 -162 280v534h-152v215h158v264h273v-264h205v-215h-205v-493c0 -102 45 -134 151 -134c23 0 46 0 58 2v-207c-22 -4 -70 -9 -127 -9
c-16 0 -32 0 -46 1l-36 -92c117 0 192 -62 192 -168c0 -136 -103 -194 -248 -197z" />
    <glyph glyph-name="Tcaron" unicode="&#x164;" horiz-adv-x="1083" 
d="M181 1732h218l137 -120h14l133 120h219l-262 -233h-190zM686 0h-289v1125h-383v240h1055v-240h-383v-1125z" />
    <glyph glyph-name="tcaron" unicode="&#x165;" horiz-adv-x="831" 
d="M637 1679h224l-47 -488h-177v488zM204 1051v264h273v-264h205v-215h-205v-493c0 -102 45 -134 151 -134c23 0 46 0 58 2v-207c-22 -4 -70 -9 -127 -9c-267 0 -361 88 -361 307v534h-152v215h158z" />
    <glyph glyph-name="Tbar" unicode="&#x166;" horiz-adv-x="1083" 
d="M915 589h-229v-589h-288v589h-228v177h228v359h-383v240h1055v-240h-384v-359h229v-177z" />
    <glyph glyph-name="tbar" unicode="&#x167;" horiz-adv-x="757" 
d="M686 4c-25 -5 -73 -9 -127 -9c-267 0 -361 88 -361 307v190h-136v161h136v183h-152v215h158v264h273v-264h205v-215h-205v-183h198v-161h-198v-149c0 -102 45 -134 151 -134c26 0 40 0 58 2v-207z" />
    <glyph glyph-name="Utilde" unicode="&#x168;" horiz-adv-x="1367" 
d="M415 1365v-862c0 -184 107 -284 269 -284c160 0 269 101 269 284v862h289v-892c0 -301 -219 -499 -558 -499s-558 200 -558 501v890h289zM667 1521c-24 22 -46 51 -82 51c-49 0 -64 -43 -66 -85h-144c0 105 59 217 187 217c71 0 109 -24 152 -63c30 -26 49 -51 82 -51
c47 0 63 55 65 99h144c0 -119 -78 -223 -192 -223c-83 0 -115 26 -146 55z" />
    <glyph glyph-name="utilde" unicode="&#x169;" horiz-adv-x="1201" 
d="M1075 1064v-1064h-274v158h-13c-32 -82 -130 -174 -307 -174c-216 0 -361 127 -361 378v702h281v-628c0 -170 97 -215 194 -215c111 0 198 73 198 218v625h282zM567 1238c-22 23 -47 49 -85 49c-55 0 -71 -48 -73 -97h-160c0 145 66 279 217 279c67 0 110 -28 160 -77
c27 -26 48 -53 85 -53c51 0 68 62 70 112h159c0 -144 -86 -279 -223 -279c-78 0 -117 33 -150 66z" />
    <glyph glyph-name="Umacron" unicode="&#x16a;" horiz-adv-x="1367" 
d="M415 1365v-862c0 -184 107 -284 269 -284c160 0 269 101 269 284v862h289v-892c0 -301 -219 -499 -558 -499s-558 200 -558 501v890h289zM978 1505h-590v140h590v-140z" />
    <glyph glyph-name="umacron" unicode="&#x16b;" horiz-adv-x="1201" 
d="M1075 1064v-1064h-274v158h-13c-32 -82 -130 -174 -307 -174c-216 0 -361 127 -361 378v702h281v-628c0 -170 97 -215 194 -215c111 0 198 73 198 218v625h282zM897 1226h-590v145h590v-145z" />
    <glyph glyph-name="Ubreve" unicode="&#x16c;" horiz-adv-x="1367" 
d="M415 1365v-862c0 -184 107 -284 269 -284c160 0 269 101 269 284v862h289v-892c0 -301 -219 -499 -558 -499s-558 200 -558 501v890h289zM345 1766h164c0 -80 62 -139 174 -139s174 59 174 139h161c0 -163 -110 -291 -335 -291s-338 127 -338 291z" />
    <glyph glyph-name="ubreve" unicode="&#x16d;" horiz-adv-x="1201" 
d="M1075 1064v-1064h-274v158h-13c-32 -82 -130 -174 -307 -174c-216 0 -361 127 -361 378v702h281v-628c0 -170 97 -215 194 -215c111 0 198 73 198 218v625h282zM269 1482h163c0 -84 48 -164 159 -164s160 80 160 164h160c0 -163 -109 -314 -320 -314s-323 151 -322 314z
" />
    <glyph glyph-name="Uring" unicode="&#x16e;" horiz-adv-x="1367" 
d="M415 1365v-862c0 -184 107 -284 269 -284c160 0 269 101 269 284v862h289v-892c0 -301 -219 -499 -558 -499s-558 200 -558 501v890h289zM680 1485c-124 0 -219 88 -219 212s95 211 219 211s218 -87 218 -211s-95 -212 -218 -212zM587 1696c0 -53 39 -93 92 -93
s93 40 93 93s-40 93 -93 93s-92 -40 -92 -93z" />
    <glyph glyph-name="uring" unicode="&#x16f;" horiz-adv-x="1201" 
d="M1075 1064v-1064h-274v158h-13c-32 -82 -130 -174 -307 -174c-216 0 -361 127 -361 378v702h281v-628c0 -170 97 -215 194 -215c111 0 198 73 198 218v625h282zM597 1183c-124 0 -219 88 -219 212s95 211 219 211s218 -87 218 -211s-95 -212 -218 -212zM504 1394
c0 -53 39 -93 92 -93s93 40 93 93s-40 93 -93 93s-92 -40 -92 -93z" />
    <glyph glyph-name="Uhungarumlaut" unicode="&#x170;" horiz-adv-x="1367" 
d="M415 1365v-862c0 -184 107 -284 269 -284c160 0 269 101 269 284v862h289v-892c0 -301 -219 -499 -558 -499s-558 200 -558 501v890h289zM372 1504l280 229h236l-314 -229h-202zM750 1504l280 229h236l-313 -229h-203z" />
    <glyph glyph-name="uhungarumlaut" unicode="&#x171;" horiz-adv-x="1201" 
d="M480 1226h-168l229 329h213zM824 1226h-169l229 329h213zM1075 1064v-1064h-274v158h-13c-32 -82 -130 -174 -307 -174c-216 0 -361 127 -361 378v702h281v-628c0 -170 97 -215 194 -215c111 0 198 73 198 218v625h282z" />
    <glyph glyph-name="Uogonek" unicode="&#x172;" horiz-adv-x="1367" 
d="M988 -390c-150 0 -246 78 -246 203c0 63 19 128 77 183l-2 5c-35 -13 -74 -27 -141 -27c-328 0 -550 200 -550 501v890h289v-862c0 -184 107 -284 269 -284c160 0 269 101 269 284v862h289v-892c0 -173 -64 -289 -150 -374c-71 -75 -155 -129 -155 -220
c0 -71 53 -100 118 -100c22 0 50 3 76 11v-157c-25 -9 -80 -23 -143 -23z" />
    <glyph glyph-name="uogonek" unicode="&#x173;" horiz-adv-x="1201" 
d="M1081 -370c-27 -10 -86 -20 -144 -20c-130 0 -253 60 -253 204c0 104 69 166 127 209v155h-14c-28 -83 -128 -194 -319 -194c-209 0 -358 110 -358 363v717h281v-646c0 -159 93 -201 183 -201c115 0 209 84 209 213v634h282v-1059c-77 -13 -191 -51 -191 -136
c0 -61 53 -89 121 -89c25 0 59 3 76 8v-158z" />
    <glyph glyph-name="Wcircumflex" unicode="&#x174;" horiz-adv-x="1763" 
d="M522 1495l269 244h190l262 -244h-219l-133 128h-14l-137 -128h-218zM630 0h-268l-357 1365h311l196 -955h11l236 955h247l235 -955h12l195 955h310l-357 -1365h-268l-246 921h-10z" />
    <glyph glyph-name="wcircumflex" unicode="&#x175;" horiz-adv-x="1584" 
d="M457 1226l230 308h201l219 -309h-216l-101 176h-9l-113 -175h-211zM1565 1064l-275 -1064h-293l-197 745h-9l-194 -745h-296l-282 1064h295l148 -774h11l191 774h264l195 -774h11l151 774h280z" />
    <glyph glyph-name="Ycircumflex" unicode="&#x176;" horiz-adv-x="1164" 
d="M727 0h-289v505l-457 860h319l281 -573h10l282 573h311l-457 -853v-512zM223 1495l269 244h190l262 -244h-219l-133 128h-14l-137 -128h-218z" />
    <glyph glyph-name="ycircumflex" unicode="&#x177;" horiz-adv-x="1099" 
d="M1073 1064c0 0 -339 -1015 -343 -1027l-27 -73c-74 -195 -178 -341 -457 -341c-61 0 -124 6 -152 12v200c18 -4 58 -7 88 -7c132 0 176 51 191 138l9 34l-363 1064h310l214 -826h12l219 826h299zM214 1226l230 308h201l219 -309h-216l-101 176h-9l-113 -175h-211z" />
    <glyph glyph-name="Ydieresis" unicode="&#x178;" horiz-adv-x="1164" 
d="M727 0h-289v505l-457 860h319l281 -573h10l282 573h311l-457 -853v-512zM304 1581c0 65 44 109 112 109c69 0 112 -44 112 -109c0 -64 -43 -108 -112 -108c-67 0 -112 44 -112 108zM662 1581c0 65 43 109 111 109c69 0 113 -44 113 -109c0 -64 -43 -108 -113 -108
c-68 0 -111 44 -111 108z" />
    <glyph glyph-name="Zacute" unicode="&#x179;" horiz-adv-x="1183" 
d="M429 1504l271 222h290l-316 -222h-245zM84 0v188l646 931v11h-630v235h980v-187l-644 -930v-12h664v-236h-1016z" />
    <glyph glyph-name="zacute" unicode="&#x17a;" horiz-adv-x="1006" 
d="M613 1226h-236l207 294h283zM84 0v157l497 679v13h-490v215h830v-174l-479 -661v-13h492v-216h-850z" />
    <glyph glyph-name="Zdotaccent" unicode="&#x17b;" horiz-adv-x="1183" 
d="M84 0v188l646 931v11h-630v235h980v-187l-644 -930v-12h664v-236h-1016zM465 1605c0 74 54 129 127 129c74 0 131 -55 131 -129s-57 -126 -131 -126c-73 0 -127 52 -127 126z" />
    <glyph glyph-name="zdotaccent" unicode="&#x17c;" horiz-adv-x="1006" 
d="M376 1303c0 74 54 129 127 129c74 0 131 -55 131 -129s-57 -126 -131 -126c-73 0 -127 52 -127 126zM84 0v157l497 679v13h-490v215h830v-174l-479 -661v-13h492v-216h-850z" />
    <glyph glyph-name="Zcaron" unicode="&#x17d;" horiz-adv-x="1183" 
d="M84 0v188l646 931v11h-630v235h980v-187l-644 -930v-12h664v-236h-1016zM231 1732h218l137 -120h14l133 120h219l-262 -233h-190z" />
    <glyph glyph-name="zcaron" unicode="&#x17e;" horiz-adv-x="1006" 
d="M181 1507h210l113 -175h10l101 176h216l-220 -309h-200zM84 0v157l497 679v13h-490v215h830v-174l-479 -661v-13h492v-216h-850z" />
    <glyph glyph-name="florin" unicode="&#x192;" horiz-adv-x="1185" 
d="M113 -186l155 844h-188l38 226h189l27 155c43 247 189 351 446 351c289 0 368 -173 355 -329h-258c3 61 -33 114 -104 114c-76 0 -121 -49 -137 -142l-25 -149h294l-39 -226h-294l-155 -844h-304z" />
    <glyph glyph-name="Ohorn" unicode="&#x1a0;" horiz-adv-x="1386" 
d="M1271 593c0 -385 -222 -619 -594 -619c-371 0 -591 234 -591 619v170c0 388 222 628 593 628c185 0 285 -72 412 -72c115 0 134 60 134 137v123h223v-154c0 -174 -98 -289 -268 -289l-3 -3c52 -84 94 -223 94 -370v-170zM380 766v-175c0 -255 124 -379 298 -379
c175 0 299 124 299 379v175c0 254 -124 386 -299 386c-174 0 -298 -132 -298 -386z" />
    <glyph glyph-name="ohorn" unicode="&#x1a1;" horiz-adv-x="1173" 
d="M572 -19c-300 0 -494 178 -494 498v110c0 296 196 494 494 494c123 0 166 -34 264 -34c90 0 110 42 110 122v158h223v-184c0 -141 -59 -248 -188 -273v-9c41 -66 82 -164 82 -273v-110c0 -319 -195 -499 -491 -499zM571 868c-141 0 -209 -129 -209 -282v-107
c0 -150 62 -282 209 -282c146 0 207 131 207 282v107c0 154 -65 282 -207 282z" />
    <glyph glyph-name="Uhorn" unicode="&#x1af;" horiz-adv-x="1470" 
d="M684 -25c-339 0 -558 200 -558 502v888h289v-861c0 -184 107 -284 269 -284c160 0 269 102 269 284v861h290c84 0 109 46 109 123v127h222v-159c0 -161 -89 -289 -265 -289h-67v-692c0 -302 -219 -500 -558 -500z" />
    <glyph glyph-name="uhorn" unicode="&#x1b0;" horiz-adv-x="1355" 
d="M786 178c-28 -84 -125 -194 -312 -194c-212 0 -354 110 -354 363v717h281v-646c0 -159 92 -201 184 -201c114 0 208 84 208 213v634h250c83 0 99 45 99 122v143h223v-174c0 -161 -89 -288 -266 -288h-24v-867h-275v178h-14z" />
    <glyph glyph-name="Acaron" unicode="&#x1cd;" horiz-adv-x="1271" 
d="M302 0h-289l452 1365h343l450 -1365h-309l-101 339h-444zM634 1093h-13l-160 -541h331zM276 1732h218l137 -120h14l133 120h219l-262 -233h-190z" />
    <glyph glyph-name="acaron" unicode="&#x1ce;" horiz-adv-x="1105" 
d="M709 134c-40 -77 -129 -150 -286 -150c-207 0 -350 122 -350 322c0 192 133 317 379 317h256v103c0 97 -61 142 -164 142c-107 0 -160 -54 -167 -134h-265c7 179 118 346 438 346c253 0 436 -100 436 -362v-718h-265v134h-12zM516 186c106 0 192 70 192 167v105h-189
c-111 0 -167 -54 -167 -132c0 -94 80 -140 164 -140zM231 1507h210l113 -175h10l101 176h216l-220 -309h-200z" />
    <glyph glyph-name="Icaron" unicode="&#x1cf;" horiz-adv-x="572" 
d="M431 0h-290v1365h290v-1365zM-74 1732h218l137 -120h14l133 120h219l-262 -233h-190z" />
    <glyph glyph-name="icaron" unicode="&#x1d0;" horiz-adv-x="570" 
d="M-31 1507h210l113 -175h10l101 176h216l-220 -309h-200zM148 0v1064h288v-1064h-288z" />
    <glyph glyph-name="Ocaron" unicode="&#x1d1;" horiz-adv-x="1357" 
d="M318 1732h218l137 -120h14l133 120h219l-262 -233h-190zM380 766v-174c0 -255 124 -378 298 -378c175 0 298 123 298 378v174c0 254 -123 386 -298 386c-174 0 -298 -132 -298 -386zM86 593v170c0 388 222 628 593 628c372 0 592 -242 592 -628v-170
c0 -385 -222 -619 -594 -619c-371 0 -591 234 -591 619z" />
    <glyph glyph-name="ocaron" unicode="&#x1d2;" horiz-adv-x="1141" 
d="M249 1507h210l113 -175h10l101 176h216l-220 -309h-200zM572 1083c323 0 491 -211 491 -513v-70c0 -319 -168 -519 -491 -519c-325 0 -494 198 -494 518v70c0 296 169 514 494 514zM571 868c-163 0 -209 -149 -209 -302v-67c0 -150 44 -302 209 -302s207 151 207 302v67
c0 154 -44 302 -207 302z" />
    <glyph glyph-name="Ucaron" unicode="&#x1d3;" horiz-adv-x="1367" 
d="M323 1732h218l137 -120h14l133 120h219l-262 -233h-190zM415 1365v-862c0 -184 107 -284 269 -284c160 0 269 101 269 284v862h289v-892c0 -301 -219 -499 -558 -499s-558 200 -558 501v890h289z" />
    <glyph glyph-name="ucaron" unicode="&#x1d4;" horiz-adv-x="1201" 
d="M279 1507h210l113 -175h10l101 176h216l-220 -309h-200zM1075 1064v-1064h-274v158h-13c-32 -82 -130 -174 -307 -174c-216 0 -361 127 -361 378v702h281v-628c0 -170 97 -215 194 -215c111 0 198 73 198 218v625h282z" />
    <glyph glyph-name="Udieresismacron" unicode="&#x1d5;" horiz-adv-x="1367" 
d="M406 1581c0 65 44 109 112 109c69 0 112 -44 112 -109c0 -64 -43 -108 -112 -108c-67 0 -112 44 -112 108zM764 1581c0 65 43 109 111 109c69 0 113 -44 113 -109c0 -64 -43 -108 -113 -108c-68 0 -111 44 -111 108zM415 1365v-862c0 -184 107 -284 269 -284
c160 0 269 101 269 284v862h289v-892c0 -301 -219 -499 -558 -499s-558 200 -558 501v890h289zM978 1792h-590v140h590v-140z" />
    <glyph glyph-name="udieresismacron" unicode="&#x1d6;" horiz-adv-x="1201" 
d="M1075 1064v-1064h-274v158h-13c-32 -82 -130 -174 -307 -174c-216 0 -361 127 -361 378v702h281v-628c0 -170 97 -215 194 -215c111 0 198 73 198 218v625h282zM277 1296c0 72 49 121 124 121c76 0 125 -49 125 -121c0 -71 -49 -120 -125 -120c-74 0 -124 49 -124 120z
M681 1296c0 72 49 121 123 121c77 0 125 -49 125 -121c0 -71 -48 -120 -125 -120c-74 0 -123 49 -123 120zM897 1562h-590v145h590v-145z" />
    <glyph glyph-name="Udieresisacute" unicode="&#x1d7;" horiz-adv-x="1367" 
d="M521 1746l271 222h290l-316 -222h-245zM406 1581c0 65 44 109 112 109c69 0 112 -44 112 -109c0 -64 -43 -108 -112 -108c-67 0 -112 44 -112 108zM764 1581c0 65 43 109 111 109c69 0 113 -44 113 -109c0 -64 -43 -108 -113 -108c-68 0 -111 44 -111 108zM415 1365v-862
c0 -184 107 -284 269 -284c160 0 269 101 269 284v862h289v-892c0 -301 -219 -499 -558 -499s-558 200 -558 501v890h289z" />
    <glyph glyph-name="udieresisacute" unicode="&#x1d8;" horiz-adv-x="1201" 
d="M711 1515h-236l207 294h283zM1075 1064v-1064h-274v158h-13c-32 -82 -130 -174 -307 -174c-216 0 -361 127 -361 378v702h281v-628c0 -170 97 -215 194 -215c111 0 198 73 198 218v625h282zM277 1296c0 72 49 121 124 121c76 0 125 -49 125 -121
c0 -71 -49 -120 -125 -120c-74 0 -124 49 -124 120zM681 1296c0 72 49 121 123 121c77 0 125 -49 125 -121c0 -71 -48 -120 -125 -120c-74 0 -123 49 -123 120z" />
    <glyph glyph-name="Udieresiscaron" unicode="&#x1d9;" horiz-adv-x="1367" 
d="M406 1581c0 65 44 109 112 109c69 0 112 -44 112 -109c0 -64 -43 -108 -112 -108c-67 0 -112 44 -112 108zM764 1581c0 65 43 109 111 109c69 0 113 -44 113 -109c0 -64 -43 -108 -113 -108c-68 0 -111 44 -111 108zM323 1994h218l137 -120h14l133 120h219l-262 -233
h-190zM415 1365v-862c0 -184 107 -284 269 -284c160 0 269 101 269 284v862h289v-892c0 -301 -219 -499 -558 -499s-558 200 -558 501v890h289z" />
    <glyph glyph-name="udieresiscaron" unicode="&#x1da;" horiz-adv-x="1201" 
d="M279 1823h210l113 -175h10l101 176h216l-220 -309h-200zM1075 1064v-1064h-274v158h-13c-32 -82 -130 -174 -307 -174c-216 0 -361 127 -361 378v702h281v-628c0 -170 97 -215 194 -215c111 0 198 73 198 218v625h282zM277 1296c0 72 49 121 124 121
c76 0 125 -49 125 -121c0 -71 -49 -120 -125 -120c-74 0 -124 49 -124 120zM681 1296c0 72 49 121 123 121c77 0 125 -49 125 -121c0 -71 -48 -120 -125 -120c-74 0 -123 49 -123 120z" />
    <glyph glyph-name="Udieresisgrave" unicode="&#x1db;" horiz-adv-x="1367" 
d="M825 1746h-234l-305 214h278zM406 1581c0 65 44 109 112 109c69 0 112 -44 112 -109c0 -64 -43 -108 -112 -108c-67 0 -112 44 -112 108zM764 1581c0 65 43 109 111 109c69 0 113 -44 113 -109c0 -64 -43 -108 -113 -108c-68 0 -111 44 -111 108zM415 1365v-862
c0 -184 107 -284 269 -284c160 0 269 101 269 284v862h289v-892c0 -301 -219 -499 -558 -499s-558 200 -558 501v890h289z" />
    <glyph glyph-name="udieresisgrave" unicode="&#x1dc;" horiz-adv-x="1201" 
d="M766 1514h-236l-263 290h283zM1075 1064v-1064h-274v158h-13c-32 -82 -130 -174 -307 -174c-216 0 -361 127 -361 378v702h281v-628c0 -170 97 -215 194 -215c111 0 198 73 198 218v625h282zM277 1296c0 72 49 121 124 121c76 0 125 -49 125 -121
c0 -71 -49 -120 -125 -120c-74 0 -124 49 -124 120zM681 1296c0 72 49 121 123 121c77 0 125 -49 125 -121c0 -71 -48 -120 -125 -120c-74 0 -123 49 -123 120z" />
    <glyph glyph-name="Adieresismacron" unicode="&#x1de;" horiz-adv-x="1271" 
d="M302 0h-289l452 1365h343l450 -1365h-309l-101 339h-444zM634 1093h-13l-160 -541h331zM358 1581c0 65 44 109 112 109c69 0 112 -44 112 -109c0 -64 -43 -108 -112 -108c-67 0 -112 44 -112 108zM716 1581c0 65 43 109 111 109c69 0 113 -44 113 -109
c0 -64 -43 -108 -113 -108c-68 0 -111 44 -111 108zM931 1792h-590v140h590v-140z" />
    <glyph glyph-name="adieresismacron" unicode="&#x1df;" horiz-adv-x="1105" 
d="M709 134c-40 -77 -129 -150 -286 -150c-207 0 -350 122 -350 322c0 192 133 317 379 317h256v103c0 97 -61 142 -164 142c-107 0 -160 -54 -167 -134h-265c7 179 118 346 438 346c253 0 436 -100 436 -362v-718h-265v134h-12zM516 186c106 0 192 70 192 167v105h-189
c-111 0 -167 -54 -167 -132c0 -94 80 -140 164 -140zM229 1296c0 72 49 121 124 121c76 0 125 -49 125 -121c0 -71 -49 -120 -125 -120c-74 0 -124 49 -124 120zM633 1296c0 72 49 121 123 121c77 0 125 -49 125 -121c0 -71 -48 -120 -125 -120c-74 0 -123 49 -123 120z
M849 1562h-590v145h590v-145z" />
    <glyph glyph-name="Adotmacron" unicode="&#x1e0;" horiz-adv-x="1271" 
d="M302 0h-289l452 1365h343l450 -1365h-309l-101 339h-444zM634 1093h-13l-160 -541h331zM510 1605c0 74 54 129 127 129c74 0 131 -55 131 -129s-57 -126 -131 -126c-73 0 -127 52 -127 126zM931 1792h-590v140h590v-140z" />
    <glyph glyph-name="adotmacron" unicode="&#x1e1;" horiz-adv-x="1105" 
d="M709 134c-40 -77 -129 -150 -286 -150c-207 0 -350 122 -350 322c0 192 133 317 379 317h256v103c0 97 -61 142 -164 142c-107 0 -160 -54 -167 -134h-265c7 179 118 346 438 346c253 0 436 -100 436 -362v-718h-265v134h-12zM516 186c106 0 192 70 192 167v105h-189
c-111 0 -167 -54 -167 -132c0 -94 80 -140 164 -140zM426 1303c0 74 54 129 127 129c74 0 131 -55 131 -129s-57 -126 -131 -126c-73 0 -127 52 -127 126zM849 1562h-590v145h590v-145z" />
    <glyph glyph-name="AEmacron" unicode="&#x1e2;" horiz-adv-x="1900" 
d="M845 1132l-261 -572l328 1v571h-67zM912 338h-423l-164 -338h-318l657 1365h1135v-233h-601v-333h565v-218h-565v-347h601v-234h-887v338zM1644 1505h-590v140h590v-140z" />
    <glyph glyph-name="aemacron" unicode="&#x1e3;" horiz-adv-x="1751" 
d="M1218 -19c-208 0 -336 83 -392 195h-16c-56 -98 -175 -195 -365 -195c-227 0 -374 122 -374 326c0 195 136 320 384 320h254v93c0 100 -65 148 -167 148s-155 -46 -167 -110h-265c10 173 135 324 438 324c141 0 267 -49 328 -128h16c60 79 180 128 312 128
c280 0 471 -187 471 -490v-121h-673v-64c0 -127 91 -212 215 -212c104 0 175 50 185 116h264c-10 -136 -137 -330 -448 -330zM1206 875c-117 0 -204 -90 -204 -218v-20h401v14c0 137 -75 224 -197 224zM518 186c104 0 191 70 191 167v109h-189c-111 0 -172 -55 -172 -134
c0 -95 84 -142 170 -142zM1172 1226h-590v145h590v-145z" />
    <glyph glyph-name="Gcaron" unicode="&#x1e6;" horiz-adv-x="1311" 
d="M305 1732h218l137 -120h14l133 120h219l-262 -233h-190zM1223 924h-282c-17 143 -124 226 -268 226c-172 0 -295 -119 -295 -380v-167c0 -225 84 -388 298 -388c169 0 274 106 274 236v77h-267v212h542v-270c0 -220 -144 -496 -553 -496c-407 0 -586 269 -586 628v170
c0 375 219 619 591 619c360 0 537 -230 546 -467z" />
    <glyph glyph-name="gcaron" unicode="&#x1e7;" horiz-adv-x="1182" 
d="M270 1507h210l113 -175h10l101 176h216l-220 -309h-200zM565 -189c149 0 221 80 221 221v150h-12c-39 -94 -149 -167 -300 -167c-233 0 -399 174 -399 483v93c0 307 163 486 401 486c166 0 262 -77 301 -170h12v157h277v-1050c0 -305 -249 -408 -509 -408
c-318 0 -455 158 -460 325h271c13 -70 80 -120 197 -120zM579 855c-131 0 -216 -103 -216 -279v-80c0 -177 90 -273 217 -273c129 0 205 110 205 267v86c0 167 -79 279 -206 279z" />
    <glyph glyph-name="Kcaron" unicode="&#x1e8;" horiz-adv-x="1273" 
d="M1260 1365l-483 -589l503 -776h-346l-369 584l-134 -154v-430h-290v1365h290v-601h13l501 601h315zM264 1732h218l137 -120h14l133 120h219l-262 -233h-190z" />
    <glyph glyph-name="kcaron" unicode="&#x1e9;" horiz-adv-x="1120" 
d="M-54 1881h210l113 -175h10l101 176h216l-220 -309h-200zM409 366v-366h-281v1437h281v-810h13l339 437h316l-381 -459l408 -605h-328l-295 446z" />
    <glyph glyph-name="Oogonek" unicode="&#x1ea;" horiz-adv-x="1357" 
d="M380 766v-174c0 -255 124 -378 298 -378c175 0 298 123 298 378v174c0 254 -123 386 -298 386c-174 0 -298 -132 -298 -386zM644 -23c-326 0 -558 242 -558 616v170c0 388 222 628 593 628c372 0 592 -242 592 -628v-170c0 -263 -104 -394 -194 -491
c-76 -83 -151 -136 -151 -220c0 -71 53 -99 120 -99c22 0 54 3 74 9v-161c-29 -8 -74 -21 -144 -21c-149 2 -248 75 -249 201c0 73 32 136 92 190l-6 13c-56 -30 -122 -37 -169 -37z" />
    <glyph glyph-name="oogonek" unicode="&#x1eb;" horiz-adv-x="1141" 
d="M571 868c-141 0 -209 -129 -209 -282v-107c0 -149 62 -282 209 -282s207 132 207 282v107c0 155 -66 282 -207 282zM664 14c-55 -20 -93 -28 -146 -28c-250 0 -440 185 -440 488v115c0 296 196 494 496 494c293 0 489 -190 489 -493v-110c0 -224 -90 -326 -170 -407
c-67 -68 -122 -116 -122 -188c0 -71 52 -105 122 -105c22 0 52 4 72 8v-157c-23 -8 -78 -21 -139 -21c-123 0 -254 54 -254 198c0 78 41 146 100 193z" />
    <glyph glyph-name="Oogonekmacron" unicode="&#x1ec;" horiz-adv-x="1357" 
d="M380 766v-174c0 -255 124 -378 298 -378c175 0 298 123 298 378v174c0 254 -123 386 -298 386c-174 0 -298 -132 -298 -386zM644 -23c-326 0 -558 242 -558 616v170c0 388 222 628 593 628c372 0 592 -242 592 -628v-170c0 -263 -104 -394 -194 -491
c-76 -83 -151 -136 -151 -220c0 -71 53 -99 120 -99c22 0 54 3 74 9v-161c-29 -8 -74 -21 -144 -21c-149 2 -248 75 -249 201c0 73 32 136 92 190l-6 13c-56 -30 -122 -37 -169 -37zM973 1505h-590v140h590v-140z" />
    <glyph glyph-name="oogonekmacron" unicode="&#x1ed;" horiz-adv-x="1141" 
d="M571 868c-141 0 -209 -129 -209 -282v-107c0 -149 62 -282 209 -282s207 132 207 282v107c0 155 -66 282 -207 282zM664 14c-55 -20 -93 -28 -146 -28c-250 0 -440 185 -440 488v115c0 296 196 494 496 494c293 0 489 -190 489 -493v-110c0 -224 -90 -326 -170 -407
c-67 -68 -122 -116 -122 -188c0 -71 52 -105 122 -105c22 0 52 4 72 8v-157c-23 -8 -78 -21 -139 -21c-123 0 -254 54 -254 198c0 78 41 146 100 193zM867 1226h-590v145h590v-145z" />
    <glyph glyph-name="Gacute" unicode="&#x1f4;" horiz-adv-x="1311" 
d="M503 1504l271 222h290l-316 -222h-245zM1223 924h-282c-17 143 -124 226 -268 226c-172 0 -295 -119 -295 -380v-167c0 -225 84 -388 298 -388c169 0 274 106 274 236v77h-267v212h542v-270c0 -220 -144 -496 -553 -496c-407 0 -586 269 -586 628v170
c0 375 219 619 591 619c360 0 537 -230 546 -467z" />
    <glyph glyph-name="gacute" unicode="&#x1f5;" horiz-adv-x="1182" 
d="M702 1226h-236l207 294h283zM565 -189c149 0 221 80 221 221v150h-12c-39 -94 -149 -167 -300 -167c-233 0 -399 174 -399 483v93c0 307 163 486 401 486c166 0 262 -77 301 -170h12v157h277v-1050c0 -305 -249 -408 -509 -408c-318 0 -455 158 -460 325h271
c13 -70 80 -120 197 -120zM579 855c-131 0 -216 -103 -216 -279v-80c0 -177 90 -273 217 -273c129 0 205 110 205 267v86c0 167 -79 279 -206 279z" />
    <glyph glyph-name="Ngrave" unicode="&#x1f8;" horiz-adv-x="1385" 
d="M834 1504h-234l-305 214h278zM413 0h-272v1365h237l584 -876h10v876h272v-1365h-236l-585 882h-10v-882z" />
    <glyph glyph-name="ngrave" unicode="&#x1f9;" horiz-adv-x="1204" 
d="M768 1230h-236l-263 290h283zM126 0v1064h274v-158h12c34 81 136 174 307 174c211 0 364 -130 364 -381v-699h-281v617c0 165 -83 225 -195 225c-119 0 -200 -76 -200 -231v-611h-281z" />
    <glyph glyph-name="Aringacute" unicode="&#x1fa;" horiz-adv-x="1272" 
d="M567 1647l304 249h296l-336 -249h-264zM518 1468c0 -62 50 -110 113 -110c62 0 113 48 113 110c0 65 -51 111 -113 111c-63 0 -113 -46 -113 -111zM793 552l-158 541h-14l-160 -541h332zM302 0h-289l429 1289c-50 42 -82 108 -82 181c0 150 120 266 271 266
s271 -116 271 -266c0 -68 -29 -129 -73 -170l430 -1300h-310l-100 339h-445z" />
    <glyph glyph-name="aringacute" unicode="&#x1fb;" horiz-adv-x="1105" 
d="M729 1522h-211l223 312h261zM709 134c-40 -77 -129 -150 -286 -150c-207 0 -350 122 -350 322c0 192 133 317 379 317h256v103c0 97 -61 142 -164 142c-107 0 -160 -54 -167 -134h-265c7 179 118 346 438 346c253 0 436 -100 436 -362v-718h-265v134h-12zM516 186
c106 0 192 70 192 167v105h-189c-111 0 -167 -54 -167 -132c0 -94 80 -140 164 -140zM557 1183c-124 0 -219 88 -219 212s95 211 219 211s218 -87 218 -211s-95 -212 -218 -212zM464 1394c0 -53 39 -93 92 -93s93 40 93 93s-40 93 -93 93s-92 -40 -92 -93z" />
    <glyph glyph-name="AEacute" unicode="&#x1fc;" horiz-adv-x="1900" 
d="M1187 1504l271 222h290l-316 -222h-245zM845 1132l-261 -572l328 1v571h-67zM912 338h-423l-164 -338h-318l657 1365h1135v-233h-601v-333h565v-218h-565v-347h601v-234h-887v338z" />
    <glyph glyph-name="aeacute" unicode="&#x1fd;" horiz-adv-x="1751" 
d="M986 1226h-236l207 294h283zM1218 -19c-208 0 -336 83 -392 195h-16c-56 -98 -175 -195 -365 -195c-227 0 -374 122 -374 326c0 195 136 320 384 320h254v93c0 100 -65 148 -167 148s-155 -46 -167 -110h-265c10 173 135 324 438 324c141 0 267 -49 328 -128h16
c60 79 180 128 312 128c280 0 471 -187 471 -490v-121h-673v-64c0 -127 91 -212 215 -212c104 0 175 50 185 116h264c-10 -136 -137 -330 -448 -330zM1206 875c-117 0 -204 -90 -204 -218v-20h401v14c0 137 -75 224 -197 224zM518 186c104 0 191 70 191 167v109h-189
c-111 0 -172 -55 -172 -134c0 -95 84 -142 170 -142z" />
    <glyph glyph-name="Oslashacute" unicode="&#x1fe;" horiz-adv-x="1357" 
d="M677 -26c-153 0 -280 41 -376 119l-99 -122l-126 103l111 137c-66 100 -101 229 -101 382v170c0 388 222 628 593 628c150 0 277 -41 372 -117l88 109l130 -96l-105 -129c70 -103 107 -237 107 -395v-170c0 -385 -222 -619 -594 -619zM373 589c0 -47 6 -94 18 -129
l494 611c-53 57 -125 86 -208 86c-178 0 -304 -133 -304 -391v-177zM677 206c179 0 305 125 305 383v177c0 53 -7 104 -21 142l-497 -614c53 -60 128 -88 213 -88zM516 1504l271 222h290l-316 -222h-245z" />
    <glyph glyph-name="oslashacute" unicode="&#x1ff;" horiz-adv-x="1141" 
d="M425 256c34 -40 81 -64 146 -64c151 0 215 135 215 288v123c0 34 -7 65 -18 90zM355 465c0 -34 7 -70 18 -94l343 441c-33 40 -81 65 -145 65c-145 0 -216 -133 -216 -289v-123zM572 -19c-116 0 -217 29 -297 83l-105 -128l-106 89l110 135c-61 81 -96 189 -96 319v110
c0 296 196 494 494 494c112 0 212 -30 291 -84l102 124l111 -91l-108 -133c61 -82 95 -187 95 -309v-110c0 -319 -195 -499 -491 -499zM681 1226h-236l207 294h283z" />
    <glyph glyph-name="Adblgrave" unicode="&#x200;" horiz-adv-x="1271" 
d="M302 0h-289l452 1365h343l450 -1365h-309l-101 339h-444zM634 1093h-13l-160 -541h331zM948 1504h-202l-314 230h236zM570 1504h-203l-313 230h236z" />
    <glyph glyph-name="adblgrave" unicode="&#x201;" horiz-adv-x="1105" 
d="M709 134c-40 -77 -129 -150 -286 -150c-207 0 -350 122 -350 322c0 192 133 317 379 317h256v103c0 97 -61 142 -164 142c-107 0 -160 -54 -167 -134h-265c7 179 118 346 438 346c253 0 436 -100 436 -362v-718h-265v134h-12zM516 186c106 0 192 70 192 167v105h-189
c-111 0 -167 -54 -167 -132c0 -94 80 -140 164 -140zM312 1226l-273 329h213l229 -329h-169zM656 1226l-274 329h213l229 -329h-168z" />
    <glyph glyph-name="Ainvertedbreve" unicode="&#x202;" horiz-adv-x="1271" 
d="M302 0h-289l452 1365h343l450 -1365h-309l-101 339h-444zM634 1093h-13l-160 -541h331zM636 1618c-107 0 -174 -56 -174 -136h-164c0 164 118 289 338 289s335 -126 335 -289h-161c0 80 -67 136 -174 136z" />
    <glyph glyph-name="ainvertedbreve" unicode="&#x203;" horiz-adv-x="1105" 
d="M709 134c-40 -77 -129 -150 -286 -150c-207 0 -350 122 -350 322c0 192 133 317 379 317h256v103c0 97 -61 142 -164 142c-107 0 -160 -54 -167 -134h-265c7 179 118 346 438 346c253 0 436 -100 436 -362v-718h-265v134h-12zM516 186c106 0 192 70 192 167v105h-189
c-111 0 -167 -54 -167 -132c0 -94 80 -140 164 -140zM229 1203c1 163 112 314 323 314s321 -151 320 -314h-160c0 84 -49 164 -160 164s-160 -80 -160 -164h-163z" />
    <glyph glyph-name="Edblgrave" unicode="&#x204;" horiz-adv-x="1133" 
d="M889 1504h-202l-314 230h236zM511 1504h-203l-313 230h236zM1032 234v-234h-891v1365h891v-234h-604v-332h568v-218h-568v-347h604z" />
    <glyph glyph-name="edblgrave" unicode="&#x205;" horiz-adv-x="1106" 
d="M570 -19c-308 0 -492 186 -492 508v83c0 322 191 511 478 511c301 0 475 -202 475 -510v-100h-677v-36c0 -135 77 -242 215 -242c116 0 180 60 190 132h263c-13 -148 -135 -346 -452 -346zM354 645h406v2c0 133 -76 228 -202 228c-125 0 -204 -96 -204 -228v-2zM313 1226
l-273 329h213l229 -329h-169zM657 1226l-274 329h213l229 -329h-168z" />
    <glyph glyph-name="Einvertedbreve" unicode="&#x206;" horiz-adv-x="1133" 
d="M1032 234v-234h-891v1365h891v-234h-604v-332h568v-218h-568v-347h604zM577 1618c-107 0 -174 -56 -174 -136h-164c0 164 118 289 338 289s335 -126 335 -289h-161c0 80 -67 136 -174 136z" />
    <glyph glyph-name="einvertedbreve" unicode="&#x207;" horiz-adv-x="1106" 
d="M570 -19c-308 0 -492 186 -492 508v83c0 322 191 511 478 511c301 0 475 -202 475 -510v-100h-677v-36c0 -135 77 -242 215 -242c116 0 180 60 190 132h263c-13 -148 -135 -346 -452 -346zM354 645h406v2c0 133 -76 228 -202 228c-125 0 -204 -96 -204 -228v-2zM230 1203
c1 163 112 314 323 314s321 -151 320 -314h-160c0 84 -49 164 -160 164s-160 -80 -160 -164h-163z" />
    <glyph glyph-name="Idblgrave" unicode="&#x208;" horiz-adv-x="572" 
d="M431 0h-290v1365h290v-1365zM598 1504h-202l-314 230h236zM220 1504h-203l-313 230h236z" />
    <glyph glyph-name="idblgrave" unicode="&#x209;" horiz-adv-x="570" 
d="M148 0v1064h288v-1064h-288zM50 1226l-273 329h213l229 -329h-169zM394 1226l-274 329h213l229 -329h-168z" />
    <glyph glyph-name="Iinvertedbreve" unicode="&#x20a;" horiz-adv-x="572" 
d="M431 0h-290v1365h290v-1365zM286 1618c-107 0 -174 -56 -174 -136h-164c0 164 118 289 338 289s335 -126 335 -289h-161c0 80 -67 136 -174 136z" />
    <glyph glyph-name="iinvertedbreve" unicode="&#x20b;" horiz-adv-x="570" 
d="M148 0v1064h288v-1064h-288zM-33 1203c1 163 112 314 323 314s321 -151 320 -314h-160c0 84 -49 164 -160 164s-160 -80 -160 -164h-163z" />
    <glyph glyph-name="Odblgrave" unicode="&#x20c;" horiz-adv-x="1357" 
d="M990 1504h-202l-314 230h236zM612 1504h-203l-313 230h236zM380 766v-174c0 -255 124 -378 298 -378c175 0 298 123 298 378v174c0 254 -123 386 -298 386c-174 0 -298 -132 -298 -386zM86 593v170c0 388 222 628 593 628c372 0 592 -242 592 -628v-170
c0 -385 -222 -619 -594 -619c-371 0 -591 234 -591 619z" />
    <glyph glyph-name="odblgrave" unicode="&#x20d;" horiz-adv-x="1141" 
d="M572 1083c323 0 491 -211 491 -513v-70c0 -319 -168 -519 -491 -519c-325 0 -494 198 -494 518v70c0 296 169 514 494 514zM571 868c-163 0 -209 -149 -209 -302v-67c0 -150 44 -302 209 -302s207 151 207 302v67c0 154 -44 302 -207 302zM330 1226l-273 329h213
l229 -329h-169zM674 1226l-274 329h213l229 -329h-168z" />
    <glyph glyph-name="Oinvertedbreve" unicode="&#x20e;" horiz-adv-x="1357" 
d="M678 1618c-107 0 -174 -56 -174 -136h-164c0 164 118 289 338 289s335 -126 335 -289h-161c0 80 -67 136 -174 136zM380 766v-174c0 -255 124 -378 298 -378c175 0 298 123 298 378v174c0 254 -123 386 -298 386c-174 0 -298 -132 -298 -386zM86 593v170
c0 388 222 628 593 628c372 0 592 -242 592 -628v-170c0 -385 -222 -619 -594 -619c-371 0 -591 234 -591 619z" />
    <glyph glyph-name="oinvertedbreve" unicode="&#x20f;" horiz-adv-x="1141" 
d="M572 1083c323 0 491 -211 491 -513v-70c0 -319 -168 -519 -491 -519c-325 0 -494 198 -494 518v70c0 296 169 514 494 514zM571 868c-163 0 -209 -149 -209 -302v-67c0 -150 44 -302 209 -302s207 151 207 302v67c0 154 -44 302 -207 302zM247 1203
c1 163 112 314 323 314s321 -151 320 -314h-160c0 84 -49 164 -160 164s-160 -80 -160 -164h-163z" />
    <glyph glyph-name="Rdblgrave" unicode="&#x210;" horiz-adv-x="1270" 
d="M927 1504h-202l-314 230h236zM549 1504h-203l-313 230h236zM697 1365c328 0 486 -190 486 -436c0 -225 -147 -344 -247 -384l274 -545h-322l-237 502h-225v-502h-285v1365h556zM426 714h225c144 0 234 73 234 210c0 145 -98 219 -230 219h-229v-429z" />
    <glyph glyph-name="rdblgrave" unicode="&#x211;" horiz-adv-x="789" 
d="M135 0v1064h282v-147h12c23 68 86 162 246 162c39 0 67 -3 87 -8v-242c-21 7 -65 11 -108 11c-170 0 -230 -99 -230 -242v-598h-289zM190 1226l-273 329h213l229 -329h-169zM534 1226l-274 329h213l229 -329h-168z" />
    <glyph glyph-name="Rinvertedbreve" unicode="&#x212;" horiz-adv-x="1270" 
d="M697 1365c328 0 486 -190 486 -436c0 -225 -147 -344 -247 -384l274 -545h-322l-237 502h-225v-502h-285v1365h556zM426 714h225c144 0 234 73 234 210c0 145 -98 219 -230 219h-229v-429zM615 1618c-107 0 -174 -56 -174 -136h-164c0 164 118 289 338 289
s335 -126 335 -289h-161c0 80 -67 136 -174 136z" />
    <glyph glyph-name="rinvertedbreve" unicode="&#x213;" horiz-adv-x="789" 
d="M135 0v1064h282v-147h12c23 68 86 162 246 162c39 0 67 -3 87 -8v-242c-21 7 -65 11 -108 11c-170 0 -230 -99 -230 -242v-598h-289zM107 1203c1 163 112 314 323 314s321 -151 320 -314h-160c0 84 -49 164 -160 164s-160 -80 -160 -164h-163z" />
    <glyph glyph-name="Udblgrave" unicode="&#x214;" horiz-adv-x="1367" 
d="M995 1504h-202l-314 230h236zM617 1504h-203l-313 230h236zM415 1365v-862c0 -184 107 -284 269 -284c160 0 269 101 269 284v862h289v-892c0 -301 -219 -499 -558 -499s-558 200 -558 501v890h289z" />
    <glyph glyph-name="udblgrave" unicode="&#x215;" horiz-adv-x="1201" 
d="M1075 1064v-1064h-274v158h-13c-32 -82 -130 -174 -307 -174c-216 0 -361 127 -361 378v702h281v-628c0 -170 97 -215 194 -215c111 0 198 73 198 218v625h282zM360 1226l-273 329h213l229 -329h-169zM704 1226l-274 329h213l229 -329h-168z" />
    <glyph glyph-name="Uinvertedbreve" unicode="&#x216;" horiz-adv-x="1367" 
d="M415 1365v-862c0 -184 107 -284 269 -284c160 0 269 101 269 284v862h289v-892c0 -301 -219 -499 -558 -499s-558 200 -558 501v890h289zM683 1618c-107 0 -174 -56 -174 -136h-164c0 164 118 289 338 289s335 -126 335 -289h-161c0 80 -67 136 -174 136z" />
    <glyph glyph-name="uinvertedbreve" unicode="&#x217;" horiz-adv-x="1201" 
d="M1075 1064v-1064h-274v158h-13c-32 -82 -130 -174 -307 -174c-216 0 -361 127 -361 378v702h281v-628c0 -170 97 -215 194 -215c111 0 198 73 198 218v625h282zM277 1203c1 163 112 314 323 314s321 -151 320 -314h-160c0 84 -49 164 -160 164s-160 -80 -160 -164h-163z
" />
    <glyph glyph-name="Scommaaccent" unicode="&#x218;" horiz-adv-x="1217" 
d="M59 392h278c8 -101 99 -191 272 -191c161 0 247 72 247 178c0 93 -70 138 -208 169l-205 47c-192 41 -352 149 -352 381c0 268 228 417 517 417c305 0 510 -168 513 -409h-270c-7 96 -86 185 -244 185c-140 0 -227 -66 -227 -171c0 -79 64 -132 186 -157l207 -46
c200 -43 369 -140 369 -388c0 -268 -209 -433 -547 -433c-402 0 -532 225 -536 418zM598 -489h-189l85 335h218z" />
    <glyph glyph-name="scommaaccent" unicode="&#x219;" horiz-adv-x="1037" 
d="M87 748c0 239 204 335 434 335c252 0 412 -124 412 -326h-248c-7 64 -50 136 -169 136c-100 0 -161 -48 -161 -122c0 -107 163 -120 277 -140c196 -33 334 -108 334 -301c0 -217 -171 -349 -462 -349c-277 0 -438 131 -438 320h273c9 -73 71 -128 178 -128
c124 0 176 55 176 125c0 99 -126 111 -263 137c-189 38 -343 106 -343 313zM521 -489h-189l85 335h218z" />
    <glyph glyph-name="Tcommaaccent" unicode="&#x21a;" horiz-adv-x="1083" 
d="M544 -489h-189l85 335h218zM686 0h-289v1125h-383v240h1055v-240h-383v-1125z" />
    <glyph glyph-name="tcommaaccent" unicode="&#x21b;" horiz-adv-x="757" 
d="M449 -489h-189l85 335h218zM204 1051v264h273v-264h205v-215h-205v-493c0 -102 45 -134 151 -134c23 0 46 0 58 2v-207c-22 -4 -70 -9 -127 -9c-267 0 -361 88 -361 307v534h-152v215h158z" />
    <glyph glyph-name="Hcaron" unicode="&#x21e;" horiz-adv-x="1412" 
d="M1271 0h-290v577h-550v-577h-290v1365h290v-550h550v550h290v-1365zM345 1732h218l137 -120h14l133 120h219l-262 -233h-190z" />
    <glyph glyph-name="hcaron" unicode="&#x21f;" horiz-adv-x="1210" 
d="M130 0v1437h281v-531h13c28 74 119 174 296 174c225 0 372 -152 372 -404v-676h-282v609c0 158 -81 233 -195 233c-119 0 -204 -79 -204 -234v-608h-281zM-51 1881h210l113 -175h10l101 176h216l-220 -309h-200z" />
    <glyph glyph-name="Adotaccent" unicode="&#x226;" horiz-adv-x="1271" 
d="M302 0h-289l452 1365h343l450 -1365h-309l-101 339h-444zM634 1093h-13l-160 -541h331zM510 1605c0 74 54 129 127 129c74 0 131 -55 131 -129s-57 -126 -131 -126c-73 0 -127 52 -127 126z" />
    <glyph glyph-name="adotaccent" unicode="&#x227;" horiz-adv-x="1105" 
d="M709 134c-40 -77 -129 -150 -286 -150c-207 0 -350 122 -350 322c0 192 133 317 379 317h256v103c0 97 -61 142 -164 142c-107 0 -160 -54 -167 -134h-265c7 179 118 346 438 346c253 0 436 -100 436 -362v-718h-265v134h-12zM516 186c106 0 192 70 192 167v105h-189
c-111 0 -167 -54 -167 -132c0 -94 80 -140 164 -140zM426 1303c0 74 54 129 127 129c74 0 131 -55 131 -129s-57 -126 -131 -126c-73 0 -127 52 -127 126z" />
    <glyph glyph-name="Ecedilla" unicode="&#x228;" horiz-adv-x="1133" 
d="M578 -472c-68 -2 -122 8 -146 15v126c27 -8 75 -14 111 -14c52 0 109 11 109 60c0 50 -44 59 -129 59h-55v105l46 121h-373v1365h891v-234h-604v-332h568v-218h-568v-347h604v-234h-356l-42 -107c117 0 192 -63 192 -169c0 -135 -103 -193 -248 -196z" />
    <glyph glyph-name="ecedilla" unicode="&#x229;" horiz-adv-x="1106" 
d="M354 645h406v2c0 133 -76 228 -202 228c-125 0 -204 -96 -204 -228v-2zM560 -482c-68 -2 -121 8 -146 15v126c27 -8 76 -14 111 -14c52 0 109 11 109 60c0 50 -44 59 -128 59h-55v105l44 116c-264 28 -417 210 -417 504v83c0 322 191 511 478 511
c301 0 475 -202 475 -510v-100h-677v-36c0 -135 77 -242 215 -242c116 0 180 60 190 132h263c-12 -133 -113 -308 -365 -341l-41 -103c117 0 192 -63 192 -169c0 -135 -102 -193 -248 -196z" />
    <glyph glyph-name="Odieresismacron" unicode="&#x22a;" horiz-adv-x="1357" 
d="M400 1581c0 65 44 109 112 109c69 0 112 -44 112 -109c0 -64 -43 -108 -112 -108c-67 0 -112 44 -112 108zM758 1581c0 65 43 109 111 109c69 0 113 -44 113 -109c0 -64 -43 -108 -113 -108c-68 0 -111 44 -111 108zM380 766v-174c0 -255 124 -378 298 -378
c175 0 298 123 298 378v174c0 254 -123 386 -298 386c-174 0 -298 -132 -298 -386zM86 593v170c0 388 222 628 593 628c372 0 592 -242 592 -628v-170c0 -385 -222 -619 -594 -619c-371 0 -591 234 -591 619zM973 1792h-590v140h590v-140z" />
    <glyph glyph-name="odieresismacron" unicode="&#x22b;" horiz-adv-x="1141" 
d="M247 1296c0 72 49 121 124 121c76 0 125 -49 125 -121c0 -71 -49 -120 -125 -120c-74 0 -124 49 -124 120zM651 1296c0 72 49 121 123 121c77 0 125 -49 125 -121c0 -71 -48 -120 -125 -120c-74 0 -123 49 -123 120zM572 1083c323 0 491 -211 491 -513v-70
c0 -319 -168 -519 -491 -519c-325 0 -494 198 -494 518v70c0 296 169 514 494 514zM571 868c-163 0 -209 -149 -209 -302v-67c0 -150 44 -302 209 -302s207 151 207 302v67c0 154 -44 302 -207 302zM867 1562h-590v145h590v-145z" />
    <glyph glyph-name="Otildemacron" unicode="&#x22c;" horiz-adv-x="1357" 
d="M380 766v-174c0 -255 124 -378 298 -378c175 0 298 123 298 378v174c0 254 -123 386 -298 386c-174 0 -298 -132 -298 -386zM86 593v170c0 388 222 628 593 628c372 0 592 -242 592 -628v-170c0 -385 -222 -619 -594 -619c-371 0 -591 234 -591 619zM662 1521
c-24 22 -46 51 -82 51c-49 0 -64 -43 -66 -85h-144c0 105 59 217 187 217c71 0 109 -24 152 -63c30 -26 49 -51 82 -51c47 0 63 55 65 99h144c0 -119 -78 -223 -192 -223c-83 0 -115 26 -146 55zM973 1792h-590v140h590v-140z" />
    <glyph glyph-name="otildemacron" unicode="&#x22d;" horiz-adv-x="1141" 
d="M537 1238c-22 23 -47 49 -85 49c-55 0 -71 -48 -73 -97h-160c0 145 66 279 217 279c67 0 110 -28 160 -77c27 -26 48 -53 85 -53c51 0 68 62 70 112h159c0 -144 -86 -279 -223 -279c-78 0 -117 33 -150 66zM867 1562h-590v145h590v-145zM572 1083
c323 0 491 -211 491 -513v-70c0 -319 -168 -519 -491 -519c-325 0 -494 198 -494 518v70c0 296 169 514 494 514zM571 868c-163 0 -209 -149 -209 -302v-67c0 -150 44 -302 209 -302s207 151 207 302v67c0 154 -44 302 -207 302z" />
    <glyph glyph-name="Odotaccent" unicode="&#x22e;" horiz-adv-x="1357" 
d="M552 1605c0 74 54 129 127 129c74 0 131 -55 131 -129s-57 -126 -131 -126c-73 0 -127 52 -127 126zM380 766v-174c0 -255 124 -378 298 -378c175 0 298 123 298 378v174c0 254 -123 386 -298 386c-174 0 -298 -132 -298 -386zM86 593v170c0 388 222 628 593 628
c372 0 592 -242 592 -628v-170c0 -385 -222 -619 -594 -619c-371 0 -591 234 -591 619z" />
    <glyph glyph-name="odotaccent" unicode="&#x22f;" horiz-adv-x="1141" 
d="M444 1303c0 74 54 129 127 129c74 0 131 -55 131 -129s-57 -126 -131 -126c-73 0 -127 52 -127 126zM572 1083c323 0 491 -211 491 -513v-70c0 -319 -168 -519 -491 -519c-325 0 -494 198 -494 518v70c0 296 169 514 494 514zM571 868c-163 0 -209 -149 -209 -302v-67
c0 -150 44 -302 209 -302s207 151 207 302v67c0 154 -44 302 -207 302z" />
    <glyph glyph-name="Odotaccentmacron" unicode="&#x230;" horiz-adv-x="1357" 
d="M552 1605c0 74 54 129 127 129c74 0 131 -55 131 -129s-57 -126 -131 -126c-73 0 -127 52 -127 126zM380 766v-174c0 -255 124 -378 298 -378c175 0 298 123 298 378v174c0 254 -123 386 -298 386c-174 0 -298 -132 -298 -386zM86 593v170c0 388 222 628 593 628
c372 0 592 -242 592 -628v-170c0 -385 -222 -619 -594 -619c-371 0 -591 234 -591 619zM973 1792h-590v140h590v-140z" />
    <glyph glyph-name="odotaccentmacron" unicode="&#x231;" horiz-adv-x="1141" 
d="M444 1303c0 74 54 129 127 129c74 0 131 -55 131 -129s-57 -126 -131 -126c-73 0 -127 52 -127 126zM867 1562h-590v145h590v-145zM572 1083c323 0 491 -211 491 -513v-70c0 -319 -168 -519 -491 -519c-325 0 -494 198 -494 518v70c0 296 169 514 494 514zM571 868
c-163 0 -209 -149 -209 -302v-67c0 -150 44 -302 209 -302s207 151 207 302v67c0 154 -44 302 -207 302z" />
    <glyph glyph-name="Ymacron" unicode="&#x232;" horiz-adv-x="1164" 
d="M727 0h-289v505l-457 860h319l281 -573h10l282 573h311l-457 -853v-512zM877 1505h-590v140h590v-140z" />
    <glyph glyph-name="ymacron" unicode="&#x233;" horiz-adv-x="1099" 
d="M1073 1064c0 0 -339 -1015 -343 -1027l-27 -73c-74 -195 -178 -341 -457 -341c-61 0 -124 6 -152 12v200c18 -4 58 -7 88 -7c132 0 176 51 191 138l9 34l-363 1064h310l214 -826h12l219 826h299zM846 1226h-590v145h590v-145z" />
    <glyph glyph-name="circumflex" unicode="&#x2c6;" horiz-adv-x="948" 
d="M172 1213l230 308h201l219 -309h-216l-101 176h-9l-113 -175h-211z" />
    <glyph glyph-name="caron" unicode="&#x2c7;" horiz-adv-x="948" 
d="M151 1535h210l113 -175h10l101 176h216l-220 -309h-200z" />
    <glyph glyph-name="breve" unicode="&#x2d8;" horiz-adv-x="948" 
d="M152 1551h163c0 -84 48 -164 159 -164s160 80 160 164h160c0 -163 -109 -314 -320 -314s-323 151 -322 314z" />
    <glyph glyph-name="dotaccent" unicode="&#x2d9;" horiz-adv-x="948" 
d="M318 1462c0 98 73 160 165 160c93 0 166 -63 166 -160c0 -98 -73 -158 -166 -158c-91 0 -165 60 -165 158z" />
    <glyph glyph-name="ring" unicode="&#x2da;" horiz-adv-x="948" 
d="M473 1217c-124 0 -219 88 -219 212s95 211 219 211s218 -87 218 -211s-95 -212 -218 -212zM380 1428c0 -53 39 -93 92 -93s93 40 93 93s-40 93 -93 93s-92 -40 -92 -93z" />
    <glyph glyph-name="ogonek" unicode="&#x2db;" horiz-adv-x="948" 
d="M677 -210v-156c-26 -10 -77 -24 -152 -24c-147 0 -236 76 -236 197c0 130 104 230 185 301h160c-64 -55 -151 -142 -151 -233c0 -66 52 -96 113 -96c23 0 55 4 81 11z" />
    <glyph glyph-name="tilde" unicode="&#x2dc;" horiz-adv-x="948" 
d="M416 1290c-22 23 -47 49 -85 49c-55 0 -71 -48 -73 -97h-160c0 145 66 279 217 279c67 0 110 -28 160 -77c27 -26 48 -53 85 -53c51 0 68 62 70 112h159c0 -144 -86 -279 -223 -279c-78 0 -117 33 -150 66z" />
    <glyph glyph-name="hungarumlaut" unicode="&#x2dd;" horiz-adv-x="948" 
d="M248 1229h-168l229 329h213zM592 1229h-169l229 329h213z" />
    <glyph glyph-name="gravecmb" unicode="&#x300;" 
d="M166 1230h-236l-263 290h283z" />
    <glyph glyph-name="acutecmb" unicode="&#x301;" 
d="M111 1226h-236l207 294h283z" />
    <glyph glyph-name="circumflexcmb" unicode="&#x302;" 
d="M-335 1226l230 308h201l219 -309h-216l-101 176h-9l-113 -175h-211z" />
    <glyph glyph-name="tildecmb" unicode="&#x303;" 
d="M-33 1238c-22 23 -47 49 -85 49c-55 0 -71 -48 -73 -97h-160c0 145 66 279 217 279c67 0 110 -28 160 -77c27 -26 48 -53 85 -53c51 0 68 62 70 112h159c0 -144 -86 -279 -223 -279c-78 0 -117 33 -150 66z" />
    <glyph glyph-name="macroncmb" unicode="&#x304;" 
d="M297 1226h-590v145h590v-145z" />
    <glyph glyph-name="brevecmb" unicode="&#x306;" 
d="M-331 1482h163c0 -84 48 -164 159 -164s160 80 160 164h160c0 -163 -109 -314 -320 -314s-323 151 -322 314z" />
    <glyph glyph-name="dotaccentcmb" unicode="&#x307;" 
d="M-126 1303c0 74 54 129 127 129c74 0 131 -55 131 -129s-57 -126 -131 -126c-73 0 -127 52 -127 126z" />
    <glyph glyph-name="dieresiscmb" unicode="&#x308;" 
d="M-323 1296c0 72 49 121 124 121c76 0 125 -49 125 -121c0 -71 -49 -120 -125 -120c-74 0 -124 49 -124 120zM81 1296c0 72 49 121 123 121c77 0 125 -49 125 -121c0 -71 -48 -120 -125 -120c-74 0 -123 49 -123 120z" />
    <glyph glyph-name="hookabovecmb" unicode="&#x309;" 
d="M-144 1433v123c24 10 63 18 112 18c141 0 227 -71 227 -187c0 -112 -75 -166 -165 -212l-78 96c64 36 90 63 90 101c0 44 -37 75 -98 75c-34 0 -67 -6 -88 -14z" />
    <glyph glyph-name="ringcmb" unicode="&#x30a;" 
d="M-3 1183c-124 0 -219 88 -219 212s95 211 219 211s218 -87 218 -211s-95 -212 -218 -212zM-96 1394c0 -53 39 -93 92 -93s93 40 93 93s-40 93 -93 93s-92 -40 -92 -93z" />
    <glyph glyph-name="hungarumlautcmb" unicode="&#x30b;" 
d="M-120 1226h-168l229 329h213zM224 1226h-169l229 329h213z" />
    <glyph glyph-name="caroncmb" unicode="&#x30c;" 
d="M-321 1507h210l113 -175h10l101 176h216l-220 -309h-200z" />
    <glyph glyph-name="dblgravecmb" unicode="&#x30f;" 
d="M-240 1226l-273 329h213l229 -329h-169zM104 1226l-274 329h213l229 -329h-168z" />
    <glyph glyph-name="invertedbrevecmb" unicode="&#x311;" 
d="M-323 1203c1 163 112 314 323 314s321 -151 320 -314h-160c0 84 -49 164 -160 164s-160 -80 -160 -164h-163z" />
    <glyph glyph-name="horncmb" unicode="&#x31b;" 
d="M-243 888v207c21 -15 45 -22 72 -21c71 4 90 53 90 123v157h224v-189c0 -158 -72 -301 -252 -301c-63 0 -110 9 -134 24z" />
    <glyph glyph-name="dotbelowcmb" unicode="&#x323;" 
d="M-132 -262c0 79 60 137 133 137c79 0 138 -58 138 -137c0 -75 -59 -132 -138 -132c-73 0 -133 57 -133 132z" />
    <glyph glyph-name="dieresisbelowcmb" unicode="&#x324;" 
d="M-325 -308c0 72 49 121 124 121c76 0 125 -49 125 -121c0 -71 -49 -120 -125 -120c-74 0 -124 49 -124 120zM79 -308c0 72 49 121 123 121c77 0 125 -49 125 -121c0 -71 -48 -120 -125 -120c-74 0 -123 49 -123 120z" />
    <glyph glyph-name="ringbelowcmb" unicode="&#x325;" 
d="M1 -507c-124 0 -219 88 -219 212s95 211 219 211s218 -87 218 -211s-95 -212 -218 -212zM-92 -296c0 -53 39 -93 92 -93s93 40 93 93s-40 93 -93 93s-92 -40 -92 -93z" />
    <glyph glyph-name="commabelowcmb" unicode="&#x326;" 
d="M3 -489h-189l85 335h218z" />
    <glyph glyph-name="cedillacmb" unicode="&#x327;" 
d="M-124 -236v105l52 136h161l-47 -122c117 0 192 -63 192 -169c0 -135 -103 -193 -248 -196c-68 -2 -122 8 -146 15v126c27 -8 75 -14 111 -14c52 0 109 11 109 60c0 50 -44 59 -129 59h-55z" />
    <glyph glyph-name="ogonekcmb" unicode="&#x328;" 
d="M170 -210v-156c-26 -10 -77 -24 -152 -24c-147 0 -236 76 -236 197c0 130 104 230 185 301h160c-64 -55 -151 -142 -151 -233c0 -66 52 -96 113 -96c23 0 55 4 81 11z" />
    <glyph glyph-name="circumflexbelowcmb" unicode="&#x32d;" 
d="M-329 -400l230 287h201l219 -288h-216l-101 161h-10l-113 -160h-210z" />
    <glyph glyph-name="brevebelowcmb" unicode="&#x32e;" 
d="M-332 -127h168c0 -84 51 -164 164 -164s164 80 164 164h161c0 -163 -107 -313 -325 -313s-332 147 -332 313z" />
    <glyph glyph-name="tildebelowcmb" unicode="&#x330;" 
d="M-21 -308c-24 23 -47 53 -83 53c-50 0 -65 -45 -67 -89h-146c0 109 60 226 190 226c72 0 111 -25 155 -66c30 -28 49 -53 83 -53c48 0 64 57 66 103h146c0 -123 -79 -232 -195 -232c-84 0 -117 27 -149 58z" />
    <glyph glyph-name="macronbelowcmb" unicode="&#x331;" 
d="M298 -326h-590v145h590v-145z" />
    <glyph glyph-name="Delta" unicode="&#x394;" horiz-adv-x="1272" 
d="M13 0l452 1365h344l450 -1365h-1246zM621 1093l-251 -841h513l-248 841h-14z" />
    <glyph glyph-name="Omega" unicode="&#x3a9;" horiz-adv-x="1375" 
d="M778 0v292c118 38 208 183 208 384v125c0 249 -124 351 -298 351c-175 0 -298 -102 -298 -351v-125c0 -196 85 -340 197 -380v-295h-522v241h238v20c-123 61 -207 236 -207 421v125c0 386 222 583 592 583c373 0 592 -197 592 -583v-125c0 -184 -91 -363 -213 -421v-22
h244v-240h-533z" />
    <glyph glyph-name="mu" unicode="&#x3bc;" horiz-adv-x="1249" 
d="M367 43h-12l10 -380h-245v1401h281v-646c0 -159 93 -201 183 -201c115 0 209 84 209 213v634h282v-762c0 -74 28 -108 101 -108c19 0 37 2 51 4v-200c-37 -9 -83 -16 -150 -16c-122 0 -235 52 -242 186l-1 15h-14c-19 -90 -118 -198 -285 -198c-72 0 -142 25 -168 58z
" />
    <glyph glyph-name="pi" unicode="&#x3c0;" horiz-adv-x="1367" 
d="M1274 0c-23 -5 -88 -16 -166 -16c-179 0 -266 98 -266 236v629h-300v-849h-282v849h-217v215h1278v-215h-198v-548c0 -57 29 -94 86 -94c22 0 49 2 65 6v-213z" />
    <glyph glyph-name="Aringbelow" unicode="&#x1e00;" horiz-adv-x="1272" 
d="M302 0h-289l452 1365h343l450 -1365h-309l-101 339h-444zM634 1093h-13l-160 -541h331zM625 -493c-124 0 -219 88 -219 212s95 211 219 211s218 -87 218 -211s-95 -212 -218 -212zM532 -282c0 -53 39 -93 92 -93s93 40 93 93s-40 93 -93 93s-92 -40 -92 -93z" />
    <glyph glyph-name="aringbelow" unicode="&#x1e01;" horiz-adv-x="1105" 
d="M709 134c-40 -77 -129 -150 -286 -150c-207 0 -350 122 -350 322c0 192 133 317 379 317h256v103c0 97 -61 142 -164 142c-107 0 -160 -54 -167 -134h-265c7 179 118 346 438 346c253 0 436 -100 436 -362v-718h-265v134h-12zM516 186c106 0 192 70 192 167v105h-189
c-111 0 -167 -54 -167 -132c0 -94 80 -140 164 -140zM553 -507c-124 0 -219 88 -219 212s95 211 219 211s218 -87 218 -211s-95 -212 -218 -212zM460 -296c0 -53 39 -93 92 -93s93 40 93 93s-40 93 -93 93s-92 -40 -92 -93z" />
    <glyph glyph-name="Bdotaccent" unicode="&#x1e02;" horiz-adv-x="1266" 
d="M141 0v1365h581c243 0 409 -123 409 -335c0 -175 -109 -270 -237 -299v-13c164 -15 305 -128 305 -332c0 -251 -209 -386 -475 -386h-583zM428 1153v-351h172c166 0 247 63 247 178c0 114 -80 173 -194 173h-225zM428 606v-393h193c174 0 284 52 284 193
c0 128 -88 200 -236 200h-241zM484 1605c0 74 54 129 127 129c74 0 131 -55 131 -129s-57 -126 -131 -126c-73 0 -127 52 -127 126z" />
    <glyph glyph-name="bdotaccent" unicode="&#x1e03;" horiz-adv-x="1205" 
d="M141 1677c0 74 54 129 127 129c74 0 131 -55 131 -129s-57 -126 -131 -126c-73 0 -127 52 -127 126zM724 -13c-159 0 -267 76 -305 178h-12v-165h-278v1437h282v-530h12c41 92 134 170 304 170c252 0 398 -183 398 -493v-102c0 -319 -152 -495 -401 -495zM625 209
c125 0 210 96 210 282v78c0 187 -81 286 -210 286s-214 -109 -214 -279v-91c0 -156 74 -276 214 -276z" />
    <glyph glyph-name="Bdotbelow" unicode="&#x1e04;" horiz-adv-x="1266" 
d="M478 -262c0 79 60 137 133 137c79 0 138 -58 138 -137c0 -75 -59 -132 -138 -132c-73 0 -133 57 -133 132zM141 0v1365h581c243 0 409 -123 409 -335c0 -175 -109 -270 -237 -299v-13c164 -15 305 -128 305 -332c0 -251 -209 -386 -475 -386h-583zM428 1153v-351h172
c166 0 247 63 247 178c0 114 -80 173 -194 173h-225zM428 606v-393h193c174 0 284 52 284 193c0 128 -88 200 -236 200h-241z" />
    <glyph glyph-name="bdotbelow" unicode="&#x1e05;" horiz-adv-x="1205" 
d="M470 -262c0 79 60 137 133 137c79 0 138 -58 138 -137c0 -75 -59 -132 -138 -132c-73 0 -133 57 -133 132zM724 -13c-159 0 -267 76 -305 178h-12v-165h-278v1437h282v-530h12c41 92 134 170 304 170c252 0 398 -183 398 -493v-102c0 -319 -152 -495 -401 -495zM625 209
c125 0 210 96 210 282v78c0 187 -81 286 -210 286s-214 -109 -214 -279v-91c0 -156 74 -276 214 -276z" />
    <glyph glyph-name="Blinebelow" unicode="&#x1e06;" horiz-adv-x="1266" 
d="M141 0v1365h581c243 0 409 -123 409 -335c0 -175 -109 -270 -237 -299v-13c164 -15 305 -128 305 -332c0 -251 -209 -386 -475 -386h-583zM428 1153v-351h172c166 0 247 63 247 178c0 114 -80 173 -194 173h-225zM428 606v-393h193c174 0 284 52 284 193
c0 128 -88 200 -236 200h-241zM908 -326h-590v145h590v-145z" />
    <glyph glyph-name="blinebelow" unicode="&#x1e07;" horiz-adv-x="1205" 
d="M900 -326h-590v145h590v-145zM724 -13c-159 0 -267 76 -305 178h-12v-165h-278v1437h282v-530h12c41 92 134 170 304 170c252 0 398 -183 398 -493v-102c0 -319 -152 -495 -401 -495zM625 209c125 0 210 96 210 282v78c0 187 -81 286 -210 286s-214 -109 -214 -279v-91
c0 -156 74 -276 214 -276z" />
    <glyph glyph-name="Ccedillaacute" unicode="&#x1e08;" horiz-adv-x="1286" 
d="M491 1504l271 222h290l-316 -222h-245zM649 -482c-68 -2 -121 8 -146 15v126c27 -8 76 -14 111 -14c52 0 109 11 109 60c0 50 -44 59 -128 59h-55v105l41 109c-313 33 -495 258 -495 626v154c0 399 216 633 578 633c338 0 543 -220 543 -484v-29h-278
c0 140 -91 270 -263 270c-173 0 -286 -129 -286 -391v-154c0 -263 112 -386 288 -386c172 0 261 117 261 258h278v-30c0 -226 -164 -436 -464 -466l-38 -96c117 0 192 -63 192 -169c0 -135 -102 -193 -248 -196z" />
    <glyph glyph-name="ccedillaacute" unicode="&#x1e09;" horiz-adv-x="1073" 
d="M647 1226h-236l207 294h283zM539 -472c-68 -1 -121 8 -146 16v125c27 -8 76 -13 111 -13c52 0 109 11 109 60s-39 59 -123 59h-55v104l44 107c-252 30 -401 217 -401 503v94c0 291 175 500 480 500c280 0 443 -172 445 -384h-258c-7 79 -69 164 -179 164
c-136 0 -205 -121 -205 -283v-89c0 -172 75 -286 205 -286c122 0 171 71 183 150h258c-4 -205 -149 -342 -366 -369l-41 -93c117 0 187 -62 187 -168c0 -136 -102 -194 -248 -197z" />
    <glyph glyph-name="Ddotaccent" unicode="&#x1e0a;" horiz-adv-x="1336" 
d="M484 1605c0 74 54 129 127 129c74 0 131 -55 131 -129s-57 -126 -131 -126c-73 0 -127 52 -127 126zM141 1365h511c441 0 612 -276 612 -678c0 -401 -170 -687 -612 -687h-511v1365zM431 1132v-898h179c223 0 357 113 357 447c0 255 -81 451 -357 451h-179z" />
    <glyph glyph-name="ddotaccent" unicode="&#x1e0b;" horiz-adv-x="1206" 
d="M811 1677c0 74 54 129 127 129c74 0 131 -55 131 -129s-57 -126 -131 -126c-73 0 -127 52 -127 126zM480 1077c159 0 267 -72 303 -170h11v530h282v-1437h-278v165h-11c-31 -98 -144 -178 -307 -178c-254 0 -400 188 -400 491v109c0 301 145 490 400 490zM579 854
c-137 0 -210 -111 -210 -288v-68c0 -179 75 -289 213 -289c130 0 212 101 212 288v73c0 180 -83 284 -215 284z" />
    <glyph glyph-name="Ddotbelow" unicode="&#x1e0c;" horiz-adv-x="1336" 
d="M478 -262c0 79 60 137 133 137c79 0 138 -58 138 -137c0 -75 -59 -132 -138 -132c-73 0 -133 57 -133 132zM141 1365h511c441 0 612 -276 612 -678c0 -401 -170 -687 -612 -687h-511v1365zM431 1132v-898h179c223 0 357 113 357 447c0 255 -81 451 -357 451h-179z" />
    <glyph glyph-name="ddotbelow" unicode="&#x1e0d;" horiz-adv-x="1206" 
d="M470 -262c0 79 60 137 133 137c79 0 138 -58 138 -137c0 -75 -59 -132 -138 -132c-73 0 -133 57 -133 132zM480 1077c159 0 267 -72 303 -170h11v530h282v-1437h-278v165h-11c-31 -98 -144 -178 -307 -178c-254 0 -400 188 -400 491v109c0 301 145 490 400 490zM579 854
c-137 0 -210 -111 -210 -288v-68c0 -179 75 -289 213 -289c130 0 212 101 212 288v73c0 180 -83 284 -215 284z" />
    <glyph glyph-name="Dlinebelow" unicode="&#x1e0e;" horiz-adv-x="1336" 
d="M908 -326h-590v145h590v-145zM141 1365h511c441 0 612 -276 612 -678c0 -401 -170 -687 -612 -687h-511v1365zM431 1132v-898h179c223 0 357 113 357 447c0 255 -81 451 -357 451h-179z" />
    <glyph glyph-name="dlinebelow" unicode="&#x1e0f;" horiz-adv-x="1206" 
d="M900 -326h-590v145h590v-145zM480 1077c159 0 267 -72 303 -170h11v530h282v-1437h-278v165h-11c-31 -98 -144 -178 -307 -178c-254 0 -400 188 -400 491v109c0 301 145 490 400 490zM579 854c-137 0 -210 -111 -210 -288v-68c0 -179 75 -289 213 -289
c130 0 212 101 212 288v73c0 180 -83 284 -215 284z" />
    <glyph glyph-name="Dcommaaccent" unicode="&#x1e10;" horiz-adv-x="1336" 
d="M613 -489h-189l85 335h218zM141 1365h511c441 0 612 -276 612 -678c0 -401 -170 -687 -612 -687h-511v1365zM431 1132v-898h179c223 0 357 113 357 447c0 255 -81 451 -357 451h-179z" />
    <glyph glyph-name="dcommaaccent" unicode="&#x1e11;" horiz-adv-x="1206" 
d="M605 -489h-189l85 335h218zM480 1077c159 0 267 -72 303 -170h11v530h282v-1437h-278v165h-11c-31 -98 -144 -178 -307 -178c-254 0 -400 188 -400 491v109c0 301 145 490 400 490zM579 854c-137 0 -210 -111 -210 -288v-68c0 -179 75 -289 213 -289
c130 0 212 101 212 288v73c0 180 -83 284 -215 284z" />
    <glyph glyph-name="Dcircumflexbelow" unicode="&#x1e12;" horiz-adv-x="1336" 
d="M141 1365h511c441 0 612 -276 612 -678c0 -401 -170 -687 -612 -687h-511v1365zM431 1132v-898h179c223 0 357 113 357 447c0 255 -81 451 -357 451h-179zM281 -400l230 287h201l219 -288h-216l-101 161h-10l-113 -160h-210z" />
    <glyph glyph-name="dcircumflexbelow" unicode="&#x1e13;" horiz-adv-x="1206" 
d="M480 1077c159 0 267 -72 303 -170h11v530h282v-1437h-278v165h-11c-31 -98 -144 -178 -307 -178c-254 0 -400 188 -400 491v109c0 301 145 490 400 490zM579 854c-137 0 -210 -111 -210 -288v-68c0 -179 75 -289 213 -289c130 0 212 101 212 288v73
c0 180 -83 284 -215 284zM273 -400l230 287h201l219 -288h-216l-101 161h-10l-113 -160h-210z" />
    <glyph glyph-name="Emacrongrave" unicode="&#x1e14;" horiz-adv-x="1133" 
d="M719 1746h-234l-305 214h278zM1032 234v-234h-891v1365h891v-234h-604v-332h568v-218h-568v-347h604zM872 1505h-590v140h590v-140z" />
    <glyph glyph-name="emacrongrave" unicode="&#x1e15;" horiz-adv-x="1106" 
d="M719 1514h-236l-263 290h283zM570 -19c-308 0 -492 186 -492 508v83c0 322 191 511 478 511c301 0 475 -202 475 -510v-100h-677v-36c0 -135 77 -242 215 -242c116 0 180 60 190 132h263c-13 -148 -135 -346 -452 -346zM354 645h406v2c0 133 -76 228 -202 228
c-125 0 -204 -96 -204 -228v-2zM850 1226h-590v145h590v-145z" />
    <glyph glyph-name="Emacronacute" unicode="&#x1e16;" horiz-adv-x="1133" 
d="M415 1746l271 222h290l-316 -222h-245zM1032 234v-234h-891v1365h891v-234h-604v-332h568v-218h-568v-347h604zM872 1505h-590v140h590v-140z" />
    <glyph glyph-name="emacronacute" unicode="&#x1e17;" horiz-adv-x="1106" 
d="M664 1515h-236l207 294h283zM570 -19c-308 0 -492 186 -492 508v83c0 322 191 511 478 511c301 0 475 -202 475 -510v-100h-677v-36c0 -135 77 -242 215 -242c116 0 180 60 190 132h263c-13 -148 -135 -346 -452 -346zM354 645h406v2c0 133 -76 228 -202 228
c-125 0 -204 -96 -204 -228v-2zM850 1226h-590v145h590v-145z" />
    <glyph glyph-name="Ecircumflexbelow" unicode="&#x1e18;" horiz-adv-x="1133" 
d="M1032 234v-234h-891v1365h891v-234h-604v-332h568v-218h-568v-347h604zM248 -400l230 287h201l219 -288h-216l-101 161h-10l-113 -160h-210z" />
    <glyph glyph-name="ecircumflexbelow" unicode="&#x1e19;" horiz-adv-x="1106" 
d="M570 -19c-308 0 -492 186 -492 508v83c0 322 191 511 478 511c301 0 475 -202 475 -510v-100h-677v-36c0 -135 77 -242 215 -242c116 0 180 60 190 132h263c-13 -148 -135 -346 -452 -346zM354 645h406v2c0 133 -76 228 -202 228c-125 0 -204 -96 -204 -228v-2zM224 -400
l230 287h201l219 -288h-216l-101 161h-10l-113 -160h-210z" />
    <glyph glyph-name="Etildebelow" unicode="&#x1e1a;" horiz-adv-x="1133" 
d="M556 -308c-24 23 -47 53 -83 53c-50 0 -65 -45 -67 -89h-146c0 109 60 226 190 226c72 0 111 -25 155 -66c30 -28 49 -53 83 -53c48 0 64 57 66 103h146c0 -123 -79 -232 -195 -232c-84 0 -117 27 -149 58zM1032 234v-234h-891v1365h891v-234h-604v-332h568v-218h-568
v-347h604z" />
    <glyph glyph-name="etildebelow" unicode="&#x1e1b;" horiz-adv-x="1106" 
d="M532 -308c-24 23 -47 53 -83 53c-50 0 -65 -45 -67 -89h-146c0 109 60 226 190 226c72 0 111 -25 155 -66c30 -28 49 -53 83 -53c48 0 64 57 66 103h146c0 -123 -79 -232 -195 -232c-84 0 -117 27 -149 58zM570 -19c-308 0 -492 186 -492 508v83c0 322 191 511 478 511
c301 0 475 -202 475 -510v-100h-677v-36c0 -135 77 -242 215 -242c116 0 180 60 190 132h263c-13 -148 -135 -346 -452 -346zM354 645h406v2c0 133 -76 228 -202 228c-125 0 -204 -96 -204 -228v-2z" />
    <glyph glyph-name="Ecedillabreve" unicode="&#x1e1c;" horiz-adv-x="1133" 
d="M578 -472c-68 -2 -122 8 -146 15v126c27 -8 75 -14 111 -14c52 0 109 11 109 60c0 50 -44 59 -129 59h-55v105l46 121h-373v1365h891v-234h-604v-332h568v-218h-568v-347h604v-234h-356l-42 -107c117 0 192 -63 192 -169c0 -135 -103 -193 -248 -196zM239 1766h164
c0 -80 62 -139 174 -139s174 59 174 139h161c0 -163 -110 -291 -335 -291s-338 127 -338 291z" />
    <glyph glyph-name="ecedillabreve" unicode="&#x1e1d;" horiz-adv-x="1106" 
d="M222 1482h163c0 -84 48 -164 159 -164s160 80 160 164h160c0 -163 -109 -314 -320 -314s-323 151 -322 314zM354 645h406v2c0 133 -76 228 -202 228c-125 0 -204 -96 -204 -228v-2zM560 -482c-68 -2 -121 8 -146 15v126c27 -8 76 -14 111 -14c52 0 109 11 109 60
c0 50 -44 59 -128 59h-55v105l44 116c-264 28 -417 210 -417 504v83c0 322 191 511 478 511c301 0 475 -202 475 -510v-100h-677v-36c0 -135 77 -242 215 -242c116 0 180 60 190 132h263c-12 -133 -113 -308 -365 -341l-41 -103c117 0 192 -63 192 -169
c0 -135 -102 -193 -248 -196z" />
    <glyph glyph-name="Fdotaccent" unicode="&#x1e1e;" horiz-adv-x="1077" 
d="M441 1605c0 74 54 129 127 129c74 0 131 -55 131 -129s-57 -126 -131 -126c-73 0 -127 52 -127 126zM431 0h-290v1365h883v-236h-593v-364h541v-231h-541v-534z" />
    <glyph glyph-name="fdotaccent" unicode="&#x1e1f;" horiz-adv-x="759" 
d="M273 1695c0 74 54 129 127 129c74 0 131 -55 131 -129s-57 -126 -131 -126c-73 0 -127 52 -127 126zM210 0v836h-158v215h158v106c0 216 113 301 365 301c66 0 102 -5 121 -7v-197c-14 2 -27 3 -65 3c-98 0 -147 -31 -147 -124v-82h203v-215h-197v-836h-280z" />
    <glyph glyph-name="Gmacron" unicode="&#x1e20;" horiz-adv-x="1311" 
d="M1223 924h-282c-17 143 -124 226 -268 226c-172 0 -295 -119 -295 -380v-167c0 -225 84 -388 298 -388c169 0 274 106 274 236v77h-267v212h542v-270c0 -220 -144 -496 -553 -496c-407 0 -586 269 -586 628v170c0 375 219 619 591 619c360 0 537 -230 546 -467zM960 1505
h-590v140h590v-140z" />
    <glyph glyph-name="gmacron" unicode="&#x1e21;" horiz-adv-x="1182" 
d="M888 1226h-590v145h590v-145zM565 -189c149 0 221 80 221 221v150h-12c-39 -94 -149 -167 -300 -167c-233 0 -399 174 -399 483v93c0 307 163 486 401 486c166 0 262 -77 301 -170h12v157h277v-1050c0 -305 -249 -408 -509 -408c-318 0 -455 158 -460 325h271
c13 -70 80 -120 197 -120zM579 855c-131 0 -216 -103 -216 -279v-80c0 -177 90 -273 217 -273c129 0 205 110 205 267v86c0 167 -79 279 -206 279z" />
    <glyph glyph-name="Hdotaccent" unicode="&#x1e22;" horiz-adv-x="1412" 
d="M1271 0h-290v577h-550v-577h-290v1365h290v-550h550v550h290v-1365zM579 1605c0 74 54 129 127 129c74 0 131 -55 131 -129s-57 -126 -131 -126c-73 0 -127 52 -127 126z" />
    <glyph glyph-name="hdotaccent" unicode="&#x1e23;" horiz-adv-x="1210" 
d="M130 0v1437h281v-531h13c28 74 119 174 296 174c225 0 372 -152 372 -404v-676h-282v609c0 158 -81 233 -195 233c-119 0 -204 -79 -204 -234v-608h-281zM144 1677c0 74 54 129 127 129c74 0 131 -55 131 -129s-57 -126 -131 -126c-73 0 -127 52 -127 126z" />
    <glyph glyph-name="Hdotbelow" unicode="&#x1e24;" horiz-adv-x="1412" 
d="M1271 0h-290v577h-550v-577h-290v1365h290v-550h550v550h290v-1365zM573 -262c0 79 60 137 133 137c79 0 138 -58 138 -137c0 -75 -59 -132 -138 -132c-73 0 -133 57 -133 132z" />
    <glyph glyph-name="hdotbelow" unicode="&#x1e25;" horiz-adv-x="1210" 
d="M130 0v1437h281v-531h13c28 74 119 174 296 174c225 0 372 -152 372 -404v-676h-282v609c0 158 -81 233 -195 233c-119 0 -204 -79 -204 -234v-608h-281zM469 -262c0 79 60 137 133 137c79 0 138 -58 138 -137c0 -75 -59 -132 -138 -132c-73 0 -133 57 -133 132z" />
    <glyph glyph-name="Hdieresis" unicode="&#x1e26;" horiz-adv-x="1412" 
d="M1271 0h-290v577h-550v-577h-290v1365h290v-550h550v550h290v-1365zM428 1581c0 65 44 109 112 109c69 0 112 -44 112 -109c0 -64 -43 -108 -112 -108c-67 0 -112 44 -112 108zM786 1581c0 65 43 109 111 109c69 0 113 -44 113 -109c0 -64 -43 -108 -113 -108
c-68 0 -111 44 -111 108z" />
    <glyph glyph-name="hdieresis" unicode="&#x1e27;" horiz-adv-x="1210" 
d="M130 0v1437h281v-531h13c28 74 119 174 296 174c225 0 372 -152 372 -404v-676h-282v609c0 158 -81 233 -195 233c-119 0 -204 -79 -204 -234v-608h-281zM-53 1670c0 72 49 121 124 121c76 0 125 -49 125 -121c0 -71 -49 -120 -125 -120c-74 0 -124 49 -124 120z
M351 1670c0 72 49 121 123 121c77 0 125 -49 125 -121c0 -71 -48 -120 -125 -120c-74 0 -123 49 -123 120z" />
    <glyph glyph-name="Hcedilla" unicode="&#x1e28;" horiz-adv-x="1412" 
d="M334 -472c-68 -2 -122 8 -146 15v126c27 -8 75 -14 111 -14c52 0 109 11 109 60c0 50 -44 59 -129 59h-55v105l46 121h-129v1365h290v-550h550v550h290v-1365h-290v577h-550v-577l-41 -107c117 0 192 -63 192 -169c0 -135 -103 -193 -248 -196z" />
    <glyph glyph-name="hcedilla" unicode="&#x1e29;" horiz-adv-x="1210" 
d="M310 -482c-68 -2 -122 8 -146 15v126c27 -8 75 -14 111 -14c52 0 109 11 109 60c0 50 -44 59 -129 59h-55v105l50 131h-120v1437h281v-531h13c28 74 119 174 296 174c225 0 372 -152 372 -404v-676h-282v609c0 158 -81 233 -195 233c-119 0 -204 -79 -204 -234v-608
l-45 -117c117 0 192 -63 192 -169c0 -135 -103 -193 -248 -196z" />
    <glyph glyph-name="Hbrevebelow" unicode="&#x1e2a;" horiz-adv-x="1412" 
d="M373 -127c0 -166 114 -313 332 -313s325 150 325 313h-161c0 -84 -51 -164 -164 -164s-164 80 -164 164h-168zM1271 0h-290v577h-550v-577h-290v1365h290v-550h550v550h290v-1365z" />
    <glyph glyph-name="hbrevebelow" unicode="&#x1e2b;" horiz-adv-x="1210" 
d="M269 -127c0 -166 114 -313 332 -313s325 150 325 313h-161c0 -84 -51 -164 -164 -164s-164 80 -164 164h-168zM130 0v1437h281v-531h13c28 74 119 174 296 174c225 0 372 -152 372 -404v-676h-282v609c0 158 -81 233 -195 233c-119 0 -204 -79 -204 -234v-608h-281z" />
    <glyph glyph-name="Itildebelow" unicode="&#x1e2c;" horiz-adv-x="572" 
d="M431 0h-290v1365h290v-1365zM264 -308c-24 23 -47 53 -83 53c-50 0 -65 -45 -67 -89h-146c0 109 60 226 190 226c72 0 111 -25 155 -66c30 -28 49 -53 83 -53c48 0 64 57 66 103h146c0 -123 -79 -232 -195 -232c-84 0 -117 27 -149 58z" />
    <glyph glyph-name="itildebelow" unicode="&#x1e2d;" horiz-adv-x="570" 
d="M145 0v1064h281v-1064h-281zM123 1332c0 80 63 138 161 138c100 0 163 -58 163 -138c0 -81 -62 -139 -163 -139c-98 0 -161 58 -161 139zM264 -308c-24 23 -47 53 -83 53c-50 0 -65 -45 -67 -89h-146c0 109 60 226 190 226c72 0 111 -25 155 -66c30 -28 49 -53 83 -53
c48 0 64 57 66 103h146c0 -123 -79 -232 -195 -232c-84 0 -117 27 -149 58z" />
    <glyph glyph-name="Idieresisacute" unicode="&#x1e2e;" horiz-adv-x="572" 
d="M431 0h-290v1365h290v-1365zM124 1746l271 222h290l-316 -222h-245zM8 1581c0 65 44 109 112 109c69 0 112 -44 112 -109c0 -64 -43 -108 -112 -108c-67 0 -112 44 -112 108zM366 1581c0 65 43 109 111 109c69 0 113 -44 113 -109c0 -64 -43 -108 -113 -108
c-68 0 -111 44 -111 108z" />
    <glyph glyph-name="idieresisacute" unicode="&#x1e2f;" horiz-adv-x="570" 
d="M401 1515h-236l207 294h283zM148 0v1064h288v-1064h-288zM-33 1296c0 72 49 121 124 121c76 0 125 -49 125 -121c0 -71 -49 -120 -125 -120c-74 0 -124 49 -124 120zM371 1296c0 72 49 121 123 121c77 0 125 -49 125 -121c0 -71 -48 -120 -125 -120
c-74 0 -123 49 -123 120z" />
    <glyph glyph-name="Kacute" unicode="&#x1e30;" horiz-adv-x="1273" 
d="M462 1504l271 222h290l-316 -222h-245zM1260 1365l-483 -589l503 -776h-346l-369 584l-134 -154v-430h-290v1365h290v-601h13l501 601h315z" />
    <glyph glyph-name="kacute" unicode="&#x1e31;" horiz-adv-x="1120" 
d="M409 366v-366h-281v1437h281v-810h13l339 437h316l-381 -459l408 -605h-328l-295 446zM378 1600h-236l207 294h283z" />
    <glyph glyph-name="Kdotbelow" unicode="&#x1e32;" horiz-adv-x="1273" 
d="M504 -262c0 79 60 137 133 137c79 0 138 -58 138 -137c0 -75 -59 -132 -138 -132c-73 0 -133 57 -133 132zM1260 1365l-483 -589l503 -776h-346l-369 584l-134 -154v-430h-290v1365h290v-601h13l501 601h315z" />
    <glyph glyph-name="kdotbelow" unicode="&#x1e33;" horiz-adv-x="1120" 
d="M442 -262c0 79 60 137 133 137c79 0 138 -58 138 -137c0 -75 -59 -132 -138 -132c-73 0 -133 57 -133 132zM409 366v-366h-281v1437h281v-810h13l339 437h316l-381 -459l408 -605h-328l-295 446z" />
    <glyph glyph-name="Klinebelow" unicode="&#x1e34;" horiz-adv-x="1273" 
d="M1260 1365l-483 -589l503 -776h-346l-369 584l-134 -154v-430h-290v1365h290v-601h13l501 601h315zM934 -326h-590v145h590v-145z" />
    <glyph glyph-name="klinebelow" unicode="&#x1e35;" horiz-adv-x="1120" 
d="M409 366v-366h-281v1437h281v-810h13l339 437h316l-381 -459l408 -605h-328l-295 446zM872 -326h-590v145h590v-145z" />
    <glyph glyph-name="Ldotbelow" unicode="&#x1e36;" horiz-adv-x="1025" 
d="M387 -262c0 79 60 137 133 137c79 0 138 -58 138 -137c0 -75 -59 -132 -138 -132c-73 0 -133 57 -133 132zM1000 245v-245h-859v1365h290v-1120h569z" />
    <glyph glyph-name="ldotbelow" unicode="&#x1e37;" horiz-adv-x="550" 
d="M143 -262c0 79 60 137 133 137c79 0 138 -58 138 -137c0 -75 -59 -132 -138 -132c-73 0 -133 57 -133 132zM134 0v1437h282v-1437h-282z" />
    <glyph glyph-name="Ldotbelowmacron" unicode="&#x1e38;" horiz-adv-x="1025" 
d="M387 -262c0 79 60 137 133 137c79 0 138 -58 138 -137c0 -75 -59 -132 -138 -132c-73 0 -133 57 -133 132zM1000 245v-245h-859v1365h290v-1120h569zM580 1505h-590v140h590v-140z" />
    <glyph glyph-name="ldotbelowmacron" unicode="&#x1e39;" horiz-adv-x="550" 
d="M143 -262c0 79 60 137 133 137c79 0 138 -58 138 -137c0 -75 -59 -132 -138 -132c-73 0 -133 57 -133 132zM134 0v1437h282v-1437h-282zM572 1600h-590v145h590v-145z" />
    <glyph glyph-name="Llinebelow" unicode="&#x1e3a;" horiz-adv-x="1025" 
d="M817 -326h-590v145h590v-145zM1000 245v-245h-859v1365h290v-1120h569z" />
    <glyph glyph-name="llinebelow" unicode="&#x1e3b;" horiz-adv-x="550" 
d="M573 -326h-590v145h590v-145zM134 0v1437h282v-1437h-282z" />
    <glyph glyph-name="Lcircumflexbelow" unicode="&#x1e3c;" horiz-adv-x="1025" 
d="M1000 245v-245h-859v1365h290v-1120h569zM190 -400l230 287h201l219 -288h-216l-101 161h-10l-113 -160h-210z" />
    <glyph glyph-name="lcircumflexbelow" unicode="&#x1e3d;" horiz-adv-x="550" 
d="M134 0v1437h282v-1437h-282zM-54 -400l230 287h201l219 -288h-216l-101 161h-10l-113 -160h-210z" />
    <glyph glyph-name="Macute" unicode="&#x1e3e;" horiz-adv-x="1640" 
d="M658 1504l271 222h290l-316 -222h-245zM402 0h-258v1365h296l377 -846h9l377 846h294v-1365h-261v884h-12l-314 -702h-181l-315 702h-12v-884z" />
    <glyph glyph-name="macute" unicode="&#x1e3f;" horiz-adv-x="1791" 
d="M1006 1226h-236l207 294h283zM126 0v1064h274v-157h14c28 78 118 173 281 173s261 -75 296 -185h12c33 90 143 185 323 185c218 0 344 -141 344 -352v-728h-281v647c0 135 -72 200 -176 200c-111 0 -180 -75 -180 -209v-638h-270v638c0 151 -78 209 -178 209
c-97 0 -178 -63 -178 -207v-640h-281z" />
    <glyph glyph-name="Mdotaccent" unicode="&#x1e40;" horiz-adv-x="1640" 
d="M694 1605c0 74 54 129 127 129c74 0 131 -55 131 -129s-57 -126 -131 -126c-73 0 -127 52 -127 126zM402 0h-258v1365h296l377 -846h9l377 846h294v-1365h-261v884h-12l-314 -702h-181l-315 702h-12v-884z" />
    <glyph glyph-name="mdotaccent" unicode="&#x1e41;" horiz-adv-x="1791" 
d="M769 1303c0 74 54 129 127 129c74 0 131 -55 131 -129s-57 -126 -131 -126c-73 0 -127 52 -127 126zM126 0v1064h274v-157h14c28 78 118 173 281 173s261 -75 296 -185h12c33 90 143 185 323 185c218 0 344 -141 344 -352v-728h-281v647c0 135 -72 200 -176 200
c-111 0 -180 -75 -180 -209v-638h-270v638c0 151 -78 209 -178 209c-97 0 -178 -63 -178 -207v-640h-281z" />
    <glyph glyph-name="Mdotbelow" unicode="&#x1e42;" horiz-adv-x="1640" 
d="M688 -262c0 79 60 137 133 137c79 0 138 -58 138 -137c0 -75 -59 -132 -138 -132c-73 0 -133 57 -133 132zM402 0h-258v1365h296l377 -846h9l377 846h294v-1365h-261v884h-12l-314 -702h-181l-315 702h-12v-884z" />
    <glyph glyph-name="mdotbelow" unicode="&#x1e43;" horiz-adv-x="1791" 
d="M763 -262c0 79 60 137 133 137c79 0 138 -58 138 -137c0 -75 -59 -132 -138 -132c-73 0 -133 57 -133 132zM126 0v1064h274v-157h14c28 78 118 173 281 173s261 -75 296 -185h12c33 90 143 185 323 185c218 0 344 -141 344 -352v-728h-281v647c0 135 -72 200 -176 200
c-111 0 -180 -75 -180 -209v-638h-270v638c0 151 -78 209 -178 209c-97 0 -178 -63 -178 -207v-640h-281z" />
    <glyph glyph-name="Ndotaccent" unicode="&#x1e44;" horiz-adv-x="1385" 
d="M566 1605c0 74 54 129 127 129c74 0 131 -55 131 -129s-57 -126 -131 -126c-73 0 -127 52 -127 126zM413 0h-272v1365h237l584 -876h10v876h272v-1365h-236l-585 882h-10v-882z" />
    <glyph glyph-name="ndotaccent" unicode="&#x1e45;" horiz-adv-x="1204" 
d="M476 1303c0 74 54 129 127 129c74 0 131 -55 131 -129s-57 -126 -131 -126c-73 0 -127 52 -127 126zM126 0v1064h274v-158h12c34 81 136 174 307 174c211 0 364 -130 364 -381v-699h-281v617c0 165 -83 225 -195 225c-119 0 -200 -76 -200 -231v-611h-281z" />
    <glyph glyph-name="Ndotbelow" unicode="&#x1e46;" horiz-adv-x="1385" 
d="M560 -262c0 79 60 137 133 137c79 0 138 -58 138 -137c0 -75 -59 -132 -138 -132c-73 0 -133 57 -133 132zM413 0h-272v1365h237l584 -876h10v876h272v-1365h-236l-585 882h-10v-882z" />
    <glyph glyph-name="ndotbelow" unicode="&#x1e47;" horiz-adv-x="1204" 
d="M470 -262c0 79 60 137 133 137c79 0 138 -58 138 -137c0 -75 -59 -132 -138 -132c-73 0 -133 57 -133 132zM126 0v1064h274v-158h12c34 81 136 174 307 174c211 0 364 -130 364 -381v-699h-281v617c0 165 -83 225 -195 225c-119 0 -200 -76 -200 -231v-611h-281z" />
    <glyph glyph-name="Nlinebelow" unicode="&#x1e48;" horiz-adv-x="1385" 
d="M990 -326h-590v145h590v-145zM413 0h-272v1365h237l584 -876h10v876h272v-1365h-236l-585 882h-10v-882z" />
    <glyph glyph-name="nlinebelow" unicode="&#x1e49;" horiz-adv-x="1204" 
d="M900 -326h-590v145h590v-145zM126 0v1064h274v-158h12c34 81 136 174 307 174c211 0 364 -130 364 -381v-699h-281v617c0 165 -83 225 -195 225c-119 0 -200 -76 -200 -231v-611h-281z" />
    <glyph glyph-name="Ncircumflexbelow" unicode="&#x1e4a;" horiz-adv-x="1385" 
d="M413 0h-272v1365h237l584 -876h10v876h272v-1365h-236l-585 882h-10v-882zM363 -400l230 287h201l219 -288h-216l-101 161h-10l-113 -160h-210z" />
    <glyph glyph-name="ncircumflexbelow" unicode="&#x1e4b;" horiz-adv-x="1204" 
d="M126 0v1064h274v-158h12c34 81 136 174 307 174c211 0 364 -130 364 -381v-699h-281v617c0 165 -83 225 -195 225c-119 0 -200 -76 -200 -231v-611h-281zM273 -400l230 287h201l219 -288h-216l-101 161h-10l-113 -160h-210z" />
    <glyph glyph-name="Otildeacute" unicode="&#x1e4c;" horiz-adv-x="1357" 
d="M516 1746l271 222h290l-316 -222h-245zM380 766v-174c0 -255 124 -378 298 -378c175 0 298 123 298 378v174c0 254 -123 386 -298 386c-174 0 -298 -132 -298 -386zM86 593v170c0 388 222 628 593 628c372 0 592 -242 592 -628v-170c0 -385 -222 -619 -594 -619
c-371 0 -591 234 -591 619zM662 1521c-24 22 -46 51 -82 51c-49 0 -64 -43 -66 -85h-144c0 105 59 217 187 217c71 0 109 -24 152 -63c30 -26 49 -51 82 -51c47 0 63 55 65 99h144c0 -119 -78 -223 -192 -223c-83 0 -115 26 -146 55z" />
    <glyph glyph-name="otildeacute" unicode="&#x1e4d;" horiz-adv-x="1141" 
d="M681 1515h-236l207 294h283zM537 1238c-22 23 -47 49 -85 49c-55 0 -71 -48 -73 -97h-160c0 145 66 279 217 279c67 0 110 -28 160 -77c27 -26 48 -53 85 -53c51 0 68 62 70 112h159c0 -144 -86 -279 -223 -279c-78 0 -117 33 -150 66zM572 1083c323 0 491 -211 491 -513
v-70c0 -319 -168 -519 -491 -519c-325 0 -494 198 -494 518v70c0 296 169 514 494 514zM571 868c-163 0 -209 -149 -209 -302v-67c0 -150 44 -302 209 -302s207 151 207 302v67c0 154 -44 302 -207 302z" />
    <glyph glyph-name="Otildedieresis" unicode="&#x1e4e;" horiz-adv-x="1357" 
d="M387 1863c0 65 44 109 112 109c69 0 112 -44 112 -109c0 -64 -43 -108 -112 -108c-67 0 -112 44 -112 108zM745 1863c0 65 43 109 111 109c69 0 113 -44 113 -109c0 -64 -43 -108 -113 -108c-68 0 -111 44 -111 108zM380 766v-174c0 -255 124 -378 298 -378
c175 0 298 123 298 378v174c0 254 -123 386 -298 386c-174 0 -298 -132 -298 -386zM86 593v170c0 388 222 628 593 628c372 0 592 -242 592 -628v-170c0 -385 -222 -619 -594 -619c-371 0 -591 234 -591 619zM662 1521c-24 22 -46 51 -82 51c-49 0 -64 -43 -66 -85h-144
c0 105 59 217 187 217c71 0 109 -24 152 -63c30 -26 49 -51 82 -51c47 0 63 55 65 99h144c0 -119 -78 -223 -192 -223c-83 0 -115 26 -146 55z" />
    <glyph glyph-name="otildedieresis" unicode="&#x1e4f;" horiz-adv-x="1141" 
d="M537 1238c-22 23 -47 49 -85 49c-55 0 -71 -48 -73 -97h-160c0 145 66 279 217 279c67 0 110 -28 160 -77c27 -26 48 -53 85 -53c51 0 68 62 70 112h159c0 -144 -86 -279 -223 -279c-78 0 -117 33 -150 66zM247 1607c0 72 49 121 124 121c76 0 125 -49 125 -121
c0 -71 -49 -120 -125 -120c-74 0 -124 49 -124 120zM651 1607c0 72 49 121 123 121c77 0 125 -49 125 -121c0 -71 -48 -120 -125 -120c-74 0 -123 49 -123 120zM572 1083c323 0 491 -211 491 -513v-70c0 -319 -168 -519 -491 -519c-325 0 -494 198 -494 518v70
c0 296 169 514 494 514zM571 868c-163 0 -209 -149 -209 -302v-67c0 -150 44 -302 209 -302s207 151 207 302v67c0 154 -44 302 -207 302z" />
    <glyph glyph-name="Omacrongrave" unicode="&#x1e50;" horiz-adv-x="1357" 
d="M820 1746h-234l-305 214h278zM380 766v-174c0 -255 124 -378 298 -378c175 0 298 123 298 378v174c0 254 -123 386 -298 386c-174 0 -298 -132 -298 -386zM86 593v170c0 388 222 628 593 628c372 0 592 -242 592 -628v-170c0 -385 -222 -619 -594 -619
c-371 0 -591 234 -591 619zM973 1505h-590v140h590v-140z" />
    <glyph glyph-name="omacrongrave" unicode="&#x1e51;" horiz-adv-x="1141" 
d="M736 1514h-236l-263 290h283zM867 1226h-590v145h590v-145zM572 1083c323 0 491 -211 491 -513v-70c0 -319 -168 -519 -491 -519c-325 0 -494 198 -494 518v70c0 296 169 514 494 514zM571 868c-163 0 -209 -149 -209 -302v-67c0 -150 44 -302 209 -302s207 151 207 302
v67c0 154 -44 302 -207 302z" />
    <glyph glyph-name="Omacronacute" unicode="&#x1e52;" horiz-adv-x="1357" 
d="M516 1746l271 222h290l-316 -222h-245zM380 766v-174c0 -255 124 -378 298 -378c175 0 298 123 298 378v174c0 254 -123 386 -298 386c-174 0 -298 -132 -298 -386zM86 593v170c0 388 222 628 593 628c372 0 592 -242 592 -628v-170c0 -385 -222 -619 -594 -619
c-371 0 -591 234 -591 619zM973 1505h-590v140h590v-140z" />
    <glyph glyph-name="omacronacute" unicode="&#x1e53;" horiz-adv-x="1141" 
d="M681 1515h-236l207 294h283zM867 1226h-590v145h590v-145zM572 1083c323 0 491 -211 491 -513v-70c0 -319 -168 -519 -491 -519c-325 0 -494 198 -494 518v70c0 296 169 514 494 514zM571 868c-163 0 -209 -149 -209 -302v-67c0 -150 44 -302 209 -302s207 151 207 302
v67c0 154 -44 302 -207 302z" />
    <glyph glyph-name="Pacute" unicode="&#x1e54;" horiz-adv-x="1207" 
d="M426 1504l271 222h290l-316 -222h-245zM141 1365h556c300 0 467 -204 467 -461c0 -260 -169 -456 -470 -456h-264v-448h-289v1365zM429 1138v-468h153c179 0 288 57 288 234c0 150 -88 234 -233 234h-208z" />
    <glyph glyph-name="pacute" unicode="&#x1e55;" horiz-adv-x="1202" 
d="M724 -13c-160 0 -259 73 -303 169h-12v-508h-282v1416h278v-157h12c42 100 149 170 310 170c236 0 394 -172 394 -488v-114c0 -315 -156 -488 -397 -488zM623 209c123 0 209 93 209 283v81c0 185 -82 282 -211 282s-212 -104 -212 -273v-96c0 -163 82 -277 214 -277z
M711 1226h-236l207 294h283z" />
    <glyph glyph-name="Pdotaccent" unicode="&#x1e56;" horiz-adv-x="1207" 
d="M141 1365h556c300 0 467 -204 467 -461c0 -260 -169 -456 -470 -456h-264v-448h-289v1365zM429 1138v-468h153c179 0 288 57 288 234c0 150 -88 234 -233 234h-208zM462 1605c0 74 54 129 127 129c74 0 131 -55 131 -129s-57 -126 -131 -126c-73 0 -127 52 -127 126z" />
    <glyph glyph-name="pdotaccent" unicode="&#x1e57;" horiz-adv-x="1202" 
d="M724 -13c-160 0 -259 73 -303 169h-12v-508h-282v1416h278v-157h12c42 100 149 170 310 170c236 0 394 -172 394 -488v-114c0 -315 -156 -488 -397 -488zM623 209c123 0 209 93 209 283v81c0 185 -82 282 -211 282s-212 -104 -212 -273v-96c0 -163 82 -277 214 -277z
M474 1303c0 74 54 129 127 129c74 0 131 -55 131 -129s-57 -126 -131 -126c-73 0 -127 52 -127 126z" />
    <glyph glyph-name="Rdotaccent" unicode="&#x1e58;" horiz-adv-x="1270" 
d="M697 1365c328 0 486 -190 486 -436c0 -225 -147 -344 -247 -384l274 -545h-322l-237 502h-225v-502h-285v1365h556zM426 714h225c144 0 234 73 234 210c0 145 -98 219 -230 219h-229v-429zM489 1605c0 74 54 129 127 129c74 0 131 -55 131 -129s-57 -126 -131 -126
c-73 0 -127 52 -127 126z" />
    <glyph glyph-name="rdotaccent" unicode="&#x1e59;" horiz-adv-x="789" 
d="M135 0v1064h282v-147h12c23 68 86 162 246 162c39 0 67 -3 87 -8v-242c-21 7 -65 11 -108 11c-170 0 -230 -99 -230 -242v-598h-289zM304 1303c0 74 54 129 127 129c74 0 131 -55 131 -129s-57 -126 -131 -126c-73 0 -127 52 -127 126z" />
    <glyph glyph-name="Rdotbelow" unicode="&#x1e5a;" horiz-adv-x="1270" 
d="M483 -262c0 79 60 137 133 137c79 0 138 -58 138 -137c0 -75 -59 -132 -138 -132c-73 0 -133 57 -133 132zM697 1365c328 0 486 -190 486 -436c0 -225 -147 -344 -247 -384l274 -545h-322l-237 502h-225v-502h-285v1365h556zM426 714h225c144 0 234 73 234 210
c0 145 -98 219 -230 219h-229v-429z" />
    <glyph glyph-name="rdotbelow" unicode="&#x1e5b;" horiz-adv-x="789" 
d="M150 -262c0 79 60 137 133 137c79 0 138 -58 138 -137c0 -75 -59 -132 -138 -132c-73 0 -133 57 -133 132zM135 0v1064h282v-147h12c23 68 86 162 246 162c39 0 67 -3 87 -8v-242c-21 7 -65 11 -108 11c-170 0 -230 -99 -230 -242v-598h-289z" />
    <glyph glyph-name="Rdotbelowmacron" unicode="&#x1e5c;" horiz-adv-x="1270" 
d="M483 -262c0 79 60 137 133 137c79 0 138 -58 138 -137c0 -75 -59 -132 -138 -132c-73 0 -133 57 -133 132zM697 1365c328 0 486 -190 486 -436c0 -225 -147 -344 -247 -384l274 -545h-322l-237 502h-225v-502h-285v1365h556zM426 714h225c144 0 234 73 234 210
c0 145 -98 219 -230 219h-229v-429zM910 1505h-590v140h590v-140z" />
    <glyph glyph-name="rdotbelowmacron" unicode="&#x1e5d;" horiz-adv-x="789" 
d="M150 -262c0 79 60 137 133 137c79 0 138 -58 138 -137c0 -75 -59 -132 -138 -132c-73 0 -133 57 -133 132zM135 0v1064h282v-147h12c23 68 86 162 246 162c39 0 67 -3 87 -8v-242c-21 7 -65 11 -108 11c-170 0 -230 -99 -230 -242v-598h-289zM727 1226h-590v145h590v-145
z" />
    <glyph glyph-name="Rlinebelow" unicode="&#x1e5e;" horiz-adv-x="1270" 
d="M697 1365c328 0 486 -190 486 -436c0 -225 -147 -344 -247 -384l274 -545h-322l-237 502h-225v-502h-285v1365h556zM426 714h225c144 0 234 73 234 210c0 145 -98 219 -230 219h-229v-429zM913 -326h-590v145h590v-145z" />
    <glyph glyph-name="rlinebelow" unicode="&#x1e5f;" horiz-adv-x="789" 
d="M135 0v1064h282v-147h12c23 68 86 162 246 162c39 0 67 -3 87 -8v-242c-21 7 -65 11 -108 11c-170 0 -230 -99 -230 -242v-598h-289zM580 -326h-590v145h590v-145z" />
    <glyph glyph-name="Sdotaccent" unicode="&#x1e60;" horiz-adv-x="1217" 
d="M59 392h278c8 -101 99 -191 272 -191c161 0 247 72 247 178c0 93 -70 138 -208 169l-205 47c-192 41 -352 149 -352 381c0 268 228 417 517 417c305 0 510 -168 513 -409h-270c-7 96 -86 185 -244 185c-140 0 -227 -66 -227 -171c0 -79 64 -132 186 -157l207 -46
c200 -43 369 -140 369 -388c0 -268 -209 -433 -547 -433c-402 0 -532 225 -536 418zM481 1605c0 74 54 129 127 129c74 0 131 -55 131 -129s-57 -126 -131 -126c-73 0 -127 52 -127 126z" />
    <glyph glyph-name="sdotaccent" unicode="&#x1e61;" horiz-adv-x="1037" 
d="M87 748c0 239 204 335 434 335c252 0 412 -124 412 -326h-248c-7 64 -50 136 -169 136c-100 0 -161 -48 -161 -122c0 -107 163 -120 277 -140c196 -33 334 -108 334 -301c0 -217 -171 -349 -462 -349c-277 0 -438 131 -438 320h273c9 -73 71 -128 178 -128
c124 0 176 55 176 125c0 99 -126 111 -263 137c-189 38 -343 106 -343 313zM392 1303c0 74 54 129 127 129c74 0 131 -55 131 -129s-57 -126 -131 -126c-73 0 -127 52 -127 126z" />
    <glyph glyph-name="Sdotbelow" unicode="&#x1e62;" horiz-adv-x="1217" 
d="M463 -262c0 79 60 137 133 137c79 0 138 -58 138 -137c0 -75 -59 -132 -138 -132c-73 0 -133 57 -133 132zM59 392h278c8 -101 99 -191 272 -191c161 0 247 72 247 178c0 93 -70 138 -208 169l-205 47c-192 41 -352 149 -352 381c0 268 228 417 517 417
c305 0 510 -168 513 -409h-270c-7 96 -86 185 -244 185c-140 0 -227 -66 -227 -171c0 -79 64 -132 186 -157l207 -46c200 -43 369 -140 369 -388c0 -268 -209 -433 -547 -433c-402 0 -532 225 -536 418z" />
    <glyph glyph-name="sdotbelow" unicode="&#x1e63;" horiz-adv-x="1037" 
d="M386 -262c0 79 60 137 133 137c79 0 138 -58 138 -137c0 -75 -59 -132 -138 -132c-73 0 -133 57 -133 132zM87 748c0 239 204 335 434 335c252 0 412 -124 412 -326h-248c-7 64 -50 136 -169 136c-100 0 -161 -48 -161 -122c0 -107 163 -120 277 -140
c196 -33 334 -108 334 -301c0 -217 -171 -349 -462 -349c-277 0 -438 131 -438 320h273c9 -73 71 -128 178 -128c124 0 176 55 176 125c0 99 -126 111 -263 137c-189 38 -343 106 -343 313z" />
    <glyph glyph-name="Sacutedotaccent" unicode="&#x1e64;" horiz-adv-x="1217" 
d="M228 1661c0 69 52 120 116 120c70 0 122 -51 122 -120c0 -67 -52 -116 -122 -116c-64 0 -116 49 -116 116zM577 1541l271 222h290l-316 -222h-245zM59 392h278c8 -101 99 -191 272 -191c161 0 247 72 247 178c0 93 -70 138 -208 169l-205 47c-192 41 -352 149 -352 381
c0 268 228 417 517 417c305 0 510 -168 513 -409h-270c-7 96 -86 185 -244 185c-140 0 -227 -66 -227 -171c0 -79 64 -132 186 -157l207 -46c200 -43 369 -140 369 -388c0 -268 -209 -433 -547 -433c-402 0 -532 225 -536 418z" />
    <glyph glyph-name="sacutedotaccent" unicode="&#x1e65;" horiz-adv-x="1037" 
d="M168 1409c0 75 56 129 125 129c75 0 131 -54 131 -129c0 -72 -56 -126 -131 -126c-69 0 -125 54 -125 126zM87 748c0 239 204 335 434 335c252 0 412 -124 412 -326h-248c-7 64 -50 136 -169 136c-100 0 -161 -48 -161 -122c0 -107 163 -120 277 -140
c196 -33 334 -108 334 -301c0 -217 -171 -349 -462 -349c-277 0 -438 131 -438 320h273c9 -73 71 -128 178 -128c124 0 176 55 176 125c0 99 -126 111 -263 137c-189 38 -343 106 -343 313zM701 1226h-236l207 294h283z" />
    <glyph glyph-name="Scarondotaccent" unicode="&#x1e66;" horiz-adv-x="1217" 
d="M490 1880c0 70 49 122 117 122c70 0 123 -52 123 -122c0 -69 -53 -117 -123 -117c-68 0 -117 48 -117 117zM59 392h278c8 -101 99 -191 272 -191c161 0 247 72 247 178c0 93 -70 138 -208 169l-205 47c-192 41 -352 149 -352 381c0 268 228 417 517 417
c305 0 510 -168 513 -409h-270c-7 96 -86 185 -244 185c-140 0 -227 -66 -227 -171c0 -79 64 -132 186 -157l207 -46c200 -43 369 -140 369 -388c0 -268 -209 -433 -547 -433c-402 0 -532 225 -536 418zM247 1732h218l137 -120h14l133 120h219l-262 -233h-190z" />
    <glyph glyph-name="scarondotaccent" unicode="&#x1e67;" horiz-adv-x="1037" 
d="M382 1722c0 76 57 131 127 131c75 0 132 -55 132 -131c0 -72 -57 -126 -132 -126c-70 0 -127 54 -127 126zM191 1507h210l113 -175h10l101 176h216l-220 -309h-200zM87 748c0 239 204 335 434 335c252 0 412 -124 412 -326h-248c-7 64 -50 136 -169 136
c-100 0 -161 -48 -161 -122c0 -107 163 -120 277 -140c196 -33 334 -108 334 -301c0 -217 -171 -349 -462 -349c-277 0 -438 131 -438 320h273c9 -73 71 -128 178 -128c124 0 176 55 176 125c0 99 -126 111 -263 137c-189 38 -343 106 -343 313z" />
    <glyph glyph-name="Sdotbelowdotaccent" unicode="&#x1e68;" horiz-adv-x="1217" 
d="M463 -262c0 79 60 137 133 137c79 0 138 -58 138 -137c0 -75 -59 -132 -138 -132c-73 0 -133 57 -133 132zM59 392h278c8 -101 99 -191 272 -191c161 0 247 72 247 178c0 93 -70 138 -208 169l-205 47c-192 41 -352 149 -352 381c0 268 228 417 517 417
c305 0 510 -168 513 -409h-270c-7 96 -86 185 -244 185c-140 0 -227 -66 -227 -171c0 -79 64 -132 186 -157l207 -46c200 -43 369 -140 369 -388c0 -268 -209 -433 -547 -433c-402 0 -532 225 -536 418zM481 1605c0 74 54 129 127 129c74 0 131 -55 131 -129
s-57 -126 -131 -126c-73 0 -127 52 -127 126z" />
    <glyph glyph-name="sdotbelowdotaccent" unicode="&#x1e69;" horiz-adv-x="1037" 
d="M386 -262c0 79 60 137 133 137c79 0 138 -58 138 -137c0 -75 -59 -132 -138 -132c-73 0 -133 57 -133 132zM87 748c0 239 204 335 434 335c252 0 412 -124 412 -326h-248c-7 64 -50 136 -169 136c-100 0 -161 -48 -161 -122c0 -107 163 -120 277 -140
c196 -33 334 -108 334 -301c0 -217 -171 -349 -462 -349c-277 0 -438 131 -438 320h273c9 -73 71 -128 178 -128c124 0 176 55 176 125c0 99 -126 111 -263 137c-189 38 -343 106 -343 313zM392 1303c0 74 54 129 127 129c74 0 131 -55 131 -129s-57 -126 -131 -126
c-73 0 -127 52 -127 126z" />
    <glyph glyph-name="Tdotaccent" unicode="&#x1e6a;" horiz-adv-x="1083" 
d="M415 1605c0 74 54 129 127 129c74 0 131 -55 131 -129s-57 -126 -131 -126c-73 0 -127 52 -127 126zM686 0h-289v1125h-383v240h1055v-240h-383v-1125z" />
    <glyph glyph-name="tdotaccent" unicode="&#x1e6b;" horiz-adv-x="757" 
d="M221 1549c0 74 54 129 127 129c74 0 131 -55 131 -129s-57 -126 -131 -126c-73 0 -127 52 -127 126zM204 1051v264h273v-264h205v-215h-205v-493c0 -102 45 -134 151 -134c23 0 46 0 58 2v-207c-22 -4 -70 -9 -127 -9c-267 0 -361 88 -361 307v534h-152v215h158z" />
    <glyph glyph-name="Tdotbelow" unicode="&#x1e6c;" horiz-adv-x="1083" 
d="M409 -262c0 79 60 137 133 137c79 0 138 -58 138 -137c0 -75 -59 -132 -138 -132c-73 0 -133 57 -133 132zM686 0h-289v1125h-383v240h1055v-240h-383v-1125z" />
    <glyph glyph-name="tdotbelow" unicode="&#x1e6d;" horiz-adv-x="757" 
d="M314 -262c0 79 60 137 133 137c79 0 138 -58 138 -137c0 -75 -59 -132 -138 -132c-73 0 -133 57 -133 132zM204 1051v264h273v-264h205v-215h-205v-493c0 -102 45 -134 151 -134c23 0 46 0 58 2v-207c-22 -4 -70 -9 -127 -9c-267 0 -361 88 -361 307v534h-152v215h158z
" />
    <glyph glyph-name="Tlinebelow" unicode="&#x1e6e;" horiz-adv-x="1083" 
d="M839 -326h-590v145h590v-145zM686 0h-289v1125h-383v240h1055v-240h-383v-1125z" />
    <glyph glyph-name="tlinebelow" unicode="&#x1e6f;" horiz-adv-x="757" 
d="M744 -326h-590v145h590v-145zM204 1051v264h273v-264h205v-215h-205v-493c0 -102 45 -134 151 -134c23 0 46 0 58 2v-207c-22 -4 -70 -9 -127 -9c-267 0 -361 88 -361 307v534h-152v215h158z" />
    <glyph glyph-name="Tcircumflexbelow" unicode="&#x1e70;" horiz-adv-x="1083" 
d="M686 0h-289v1125h-383v240h1055v-240h-383v-1125zM212 -400l230 287h201l219 -288h-216l-101 161h-10l-113 -160h-210z" />
    <glyph glyph-name="tcircumflexbelow" unicode="&#x1e71;" horiz-adv-x="757" 
d="M204 1051v264h273v-264h205v-215h-205v-493c0 -102 45 -134 151 -134c23 0 46 0 58 2v-207c-22 -4 -70 -9 -127 -9c-267 0 -361 88 -361 307v534h-152v215h158zM117 -400l230 287h201l219 -288h-216l-101 161h-10l-113 -160h-210z" />
    <glyph glyph-name="Udieresisbelow" unicode="&#x1e72;" horiz-adv-x="1367" 
d="M415 1365v-862c0 -184 107 -284 269 -284c160 0 269 101 269 284v862h289v-892c0 -301 -219 -499 -558 -499s-558 200 -558 501v890h289zM358 -308c0 72 49 121 124 121c76 0 125 -49 125 -121c0 -71 -49 -120 -125 -120c-74 0 -124 49 -124 120zM762 -308
c0 72 49 121 123 121c77 0 125 -49 125 -121c0 -71 -48 -120 -125 -120c-74 0 -123 49 -123 120z" />
    <glyph glyph-name="udieresisbelow" unicode="&#x1e73;" horiz-adv-x="1201" 
d="M1075 1064v-1064h-274v158h-13c-32 -82 -130 -174 -307 -174c-216 0 -361 127 -361 378v702h281v-628c0 -170 97 -215 194 -215c111 0 198 73 198 218v625h282zM275 -308c0 72 49 121 124 121c76 0 125 -49 125 -121c0 -71 -49 -120 -125 -120c-74 0 -124 49 -124 120z
M679 -308c0 72 49 121 123 121c77 0 125 -49 125 -121c0 -71 -48 -120 -125 -120c-74 0 -123 49 -123 120z" />
    <glyph glyph-name="Utildebelow" unicode="&#x1e74;" horiz-adv-x="1367" 
d="M662 -308c-24 23 -47 53 -83 53c-50 0 -65 -45 -67 -89h-146c0 109 60 226 190 226c72 0 111 -25 155 -66c30 -28 49 -53 83 -53c48 0 64 57 66 103h146c0 -123 -79 -232 -195 -232c-84 0 -117 27 -149 58zM415 1365v-862c0 -184 107 -284 269 -284
c160 0 269 101 269 284v862h289v-892c0 -301 -219 -499 -558 -499s-558 200 -558 501v890h289z" />
    <glyph glyph-name="utildebelow" unicode="&#x1e75;" horiz-adv-x="1201" 
d="M579 -308c-24 23 -47 53 -83 53c-50 0 -65 -45 -67 -89h-146c0 109 60 226 190 226c72 0 111 -25 155 -66c30 -28 49 -53 83 -53c48 0 64 57 66 103h146c0 -123 -79 -232 -195 -232c-84 0 -117 27 -149 58zM1075 1064v-1064h-274v158h-13c-32 -82 -130 -174 -307 -174
c-216 0 -361 127 -361 378v702h281v-628c0 -170 97 -215 194 -215c111 0 198 73 198 218v625h282z" />
    <glyph glyph-name="Ucircumflexbelow" unicode="&#x1e76;" horiz-adv-x="1367" 
d="M415 1365v-862c0 -184 107 -284 269 -284c160 0 269 101 269 284v862h289v-892c0 -301 -219 -499 -558 -499s-558 200 -558 501v890h289zM354 -400l230 287h201l219 -288h-216l-101 161h-10l-113 -160h-210z" />
    <glyph glyph-name="ucircumflexbelow" unicode="&#x1e77;" horiz-adv-x="1201" 
d="M1075 1064v-1064h-274v158h-13c-32 -82 -130 -174 -307 -174c-216 0 -361 127 -361 378v702h281v-628c0 -170 97 -215 194 -215c111 0 198 73 198 218v625h282zM271 -400l230 287h201l219 -288h-216l-101 161h-10l-113 -160h-210z" />
    <glyph glyph-name="Utildeacute" unicode="&#x1e78;" horiz-adv-x="1367" 
d="M521 1746l271 222h290l-316 -222h-245zM415 1365v-862c0 -184 107 -284 269 -284c160 0 269 101 269 284v862h289v-892c0 -301 -219 -499 -558 -499s-558 200 -558 501v890h289zM667 1521c-24 22 -46 51 -82 51c-49 0 -64 -43 -66 -85h-144c0 105 59 217 187 217
c71 0 109 -24 152 -63c30 -26 49 -51 82 -51c47 0 63 55 65 99h144c0 -119 -78 -223 -192 -223c-83 0 -115 26 -146 55z" />
    <glyph glyph-name="utildeacute" unicode="&#x1e79;" horiz-adv-x="1201" 
d="M1075 1064v-1064h-274v158h-13c-32 -82 -130 -174 -307 -174c-216 0 -361 127 -361 378v702h281v-628c0 -170 97 -215 194 -215c111 0 198 73 198 218v625h282zM711 1515h-236l207 294h283zM567 1238c-22 23 -47 49 -85 49c-55 0 -71 -48 -73 -97h-160
c0 145 66 279 217 279c67 0 110 -28 160 -77c27 -26 48 -53 85 -53c51 0 68 62 70 112h159c0 -144 -86 -279 -223 -279c-78 0 -117 33 -150 66z" />
    <glyph glyph-name="Umacrondieresis" unicode="&#x1e7a;" horiz-adv-x="1367" 
d="M392 1863c0 65 44 109 112 109c69 0 112 -44 112 -109c0 -64 -43 -108 -112 -108c-67 0 -112 44 -112 108zM750 1863c0 65 43 109 111 109c69 0 113 -44 113 -109c0 -64 -43 -108 -113 -108c-68 0 -111 44 -111 108zM415 1365v-862c0 -184 107 -284 269 -284
c160 0 269 101 269 284v862h289v-892c0 -301 -219 -499 -558 -499s-558 200 -558 501v890h289zM978 1505h-590v140h590v-140z" />
    <glyph glyph-name="umacrondieresis" unicode="&#x1e7b;" horiz-adv-x="1201" 
d="M1075 1064v-1064h-274v158h-13c-32 -82 -130 -174 -307 -174c-216 0 -361 127 -361 378v702h281v-628c0 -170 97 -215 194 -215c111 0 198 73 198 218v625h282zM897 1226h-590v145h590v-145zM277 1607c0 72 49 121 124 121c76 0 125 -49 125 -121
c0 -71 -49 -120 -125 -120c-74 0 -124 49 -124 120zM681 1607c0 72 49 121 123 121c77 0 125 -49 125 -121c0 -71 -48 -120 -125 -120c-74 0 -123 49 -123 120z" />
    <glyph glyph-name="Vtilde" unicode="&#x1e7c;" horiz-adv-x="1261" 
d="M614 1521c-24 22 -46 51 -82 51c-49 0 -64 -43 -66 -85h-144c0 105 59 217 187 217c71 0 109 -24 152 -63c30 -26 49 -51 82 -51c47 0 63 55 65 99h144c0 -119 -78 -223 -192 -223c-83 0 -115 26 -146 55zM809 0h-353l-449 1365h335l292 -1044h12l288 1044h321z" />
    <glyph glyph-name="vtilde" unicode="&#x1e7d;" horiz-adv-x="1058" 
d="M496 1238c-22 23 -47 49 -85 49c-55 0 -71 -48 -73 -97h-160c0 145 66 279 217 279c67 0 110 -28 160 -77c27 -26 48 -53 85 -53c51 0 68 62 70 112h159c0 -144 -86 -279 -223 -279c-78 0 -117 33 -150 66zM361 0l-349 1064h306l199 -806h11l223 806h296l-370 -1064h-316
z" />
    <glyph glyph-name="Vdotbelow" unicode="&#x1e7e;" horiz-adv-x="1261" 
d="M498 -262c0 79 60 137 133 137c79 0 138 -58 138 -137c0 -75 -59 -132 -138 -132c-73 0 -133 57 -133 132zM809 0h-353l-449 1365h335l292 -1044h12l288 1044h321z" />
    <glyph glyph-name="vdotbelow" unicode="&#x1e7f;" horiz-adv-x="1058" 
d="M397 -262c0 79 60 137 133 137c79 0 138 -58 138 -137c0 -75 -59 -132 -138 -132c-73 0 -133 57 -133 132zM361 0l-349 1064h306l199 -806h11l223 806h296l-370 -1064h-316z" />
    <glyph glyph-name="Wgrave" unicode="&#x1e80;" horiz-adv-x="1763" 
d="M1023 1504h-234l-305 214h278zM630 0h-268l-357 1365h311l196 -955h11l236 955h247l235 -955h12l195 955h310l-357 -1365h-268l-246 921h-10z" />
    <glyph glyph-name="wgrave" unicode="&#x1e81;" horiz-adv-x="1584" 
d="M958 1230h-236l-263 290h283zM1565 1064l-275 -1064h-293l-197 745h-9l-194 -745h-296l-282 1064h295l148 -774h11l191 774h264l195 -774h11l151 774h280z" />
    <glyph glyph-name="Wacute" unicode="&#x1e82;" horiz-adv-x="1763" 
d="M719 1504l271 222h290l-316 -222h-245zM630 0h-268l-357 1365h311l196 -955h11l236 955h247l235 -955h12l195 955h310l-357 -1365h-268l-246 921h-10z" />
    <glyph glyph-name="wacute" unicode="&#x1e83;" horiz-adv-x="1584" 
d="M903 1226h-236l207 294h283zM1565 1064l-275 -1064h-293l-197 745h-9l-194 -745h-296l-282 1064h295l148 -774h11l191 774h264l195 -774h11l151 774h280z" />
    <glyph glyph-name="Wdieresis" unicode="&#x1e84;" horiz-adv-x="1763" 
d="M604 1581c0 65 44 109 112 109c69 0 112 -44 112 -109c0 -64 -43 -108 -112 -108c-67 0 -112 44 -112 108zM962 1581c0 65 43 109 111 109c69 0 113 -44 113 -109c0 -64 -43 -108 -113 -108c-68 0 -111 44 -111 108zM630 0h-268l-357 1365h311l196 -955h11l236 955h247
l235 -955h12l195 955h310l-357 -1365h-268l-246 921h-10z" />
    <glyph glyph-name="wdieresis" unicode="&#x1e85;" horiz-adv-x="1584" 
d="M469 1296c0 72 49 121 124 121c76 0 125 -49 125 -121c0 -71 -49 -120 -125 -120c-74 0 -124 49 -124 120zM873 1296c0 72 49 121 123 121c77 0 125 -49 125 -121c0 -71 -48 -120 -125 -120c-74 0 -123 49 -123 120zM1565 1064l-275 -1064h-293l-197 745h-9l-194 -745
h-296l-282 1064h295l148 -774h11l191 774h264l195 -774h11l151 774h280z" />
    <glyph glyph-name="Wdotaccent" unicode="&#x1e86;" horiz-adv-x="1763" 
d="M755 1605c0 74 54 129 127 129c74 0 131 -55 131 -129s-57 -126 -131 -126c-73 0 -127 52 -127 126zM630 0h-268l-357 1365h311l196 -955h11l236 955h247l235 -955h12l195 955h310l-357 -1365h-268l-246 921h-10z" />
    <glyph glyph-name="wdotaccent" unicode="&#x1e87;" horiz-adv-x="1584" 
d="M666 1303c0 74 54 129 127 129c74 0 131 -55 131 -129s-57 -126 -131 -126c-73 0 -127 52 -127 126zM1565 1064l-275 -1064h-293l-197 745h-9l-194 -745h-296l-282 1064h295l148 -774h11l191 774h264l195 -774h11l151 774h280z" />
    <glyph glyph-name="Wdotbelow" unicode="&#x1e88;" horiz-adv-x="1763" 
d="M749 -262c0 79 60 137 133 137c79 0 138 -58 138 -137c0 -75 -59 -132 -138 -132c-73 0 -133 57 -133 132zM630 0h-268l-357 1365h311l196 -955h11l236 955h247l235 -955h12l195 955h310l-357 -1365h-268l-246 921h-10z" />
    <glyph glyph-name="wdotbelow" unicode="&#x1e89;" horiz-adv-x="1584" 
d="M660 -262c0 79 60 137 133 137c79 0 138 -58 138 -137c0 -75 -59 -132 -138 -132c-73 0 -133 57 -133 132zM1565 1064l-275 -1064h-293l-197 745h-9l-194 -745h-296l-282 1064h295l148 -774h11l191 774h264l195 -774h11l151 774h280z" />
    <glyph glyph-name="Xdotaccent" unicode="&#x1e8a;" horiz-adv-x="1198" 
d="M1215 1365l-431 -684l425 -681h-330l-280 472h-13l-280 -472h-313l418 688l-416 677h341l271 -481h13l269 481h326zM472 1605c0 74 54 129 127 129c74 0 131 -55 131 -129s-57 -126 -131 -126c-73 0 -127 52 -127 126z" />
    <glyph glyph-name="xdotaccent" unicode="&#x1e8b;" horiz-adv-x="1094" 
d="M743 0l-197 352h-11l-198 -352h-298l327 529l-339 535h325l193 -350h12l198 350h309l-346 -526l339 -538h-314zM421 1303c0 74 54 129 127 129c74 0 131 -55 131 -129s-57 -126 -131 -126c-73 0 -127 52 -127 126z" />
    <glyph glyph-name="Xdieresis" unicode="&#x1e8c;" horiz-adv-x="1198" 
d="M1215 1365l-431 -684l425 -681h-330l-280 472h-13l-280 -472h-313l418 688l-416 677h341l271 -481h13l269 481h326zM321 1581c0 65 44 109 112 109c69 0 112 -44 112 -109c0 -64 -43 -108 -112 -108c-67 0 -112 44 -112 108zM679 1581c0 65 43 109 111 109
c69 0 113 -44 113 -109c0 -64 -43 -108 -113 -108c-68 0 -111 44 -111 108z" />
    <glyph glyph-name="xdieresis" unicode="&#x1e8d;" horiz-adv-x="1094" 
d="M743 0l-197 352h-11l-198 -352h-298l327 529l-339 535h325l193 -350h12l198 350h309l-346 -526l339 -538h-314zM224 1296c0 72 49 121 124 121c76 0 125 -49 125 -121c0 -71 -49 -120 -125 -120c-74 0 -124 49 -124 120zM628 1296c0 72 49 121 123 121
c77 0 125 -49 125 -121c0 -71 -48 -120 -125 -120c-74 0 -123 49 -123 120z" />
    <glyph glyph-name="Ydotaccent" unicode="&#x1e8e;" horiz-adv-x="1164" 
d="M727 0h-289v505l-457 860h319l281 -573h10l282 573h311l-457 -853v-512zM456 1605c0 74 54 129 127 129c74 0 131 -55 131 -129s-57 -126 -131 -126c-73 0 -127 52 -127 126z" />
    <glyph glyph-name="ydotaccent" unicode="&#x1e8f;" horiz-adv-x="1099" 
d="M1073 1064c0 0 -339 -1015 -343 -1027l-27 -73c-74 -195 -178 -341 -457 -341c-61 0 -124 6 -152 12v200c18 -4 58 -7 88 -7c132 0 176 51 191 138l9 34l-363 1064h310l214 -826h12l219 826h299zM423 1303c0 74 54 129 127 129c74 0 131 -55 131 -129s-57 -126 -131 -126
c-73 0 -127 52 -127 126z" />
    <glyph glyph-name="Zcircumflex" unicode="&#x1e90;" horiz-adv-x="1183" 
d="M84 0v188l646 931v11h-630v235h980v-187l-644 -930v-12h664v-236h-1016zM232 1495l269 244h190l262 -244h-219l-133 128h-14l-137 -128h-218z" />
    <glyph glyph-name="zcircumflex" unicode="&#x1e91;" horiz-adv-x="1006" 
d="M167 1226l230 308h201l219 -309h-216l-101 176h-9l-113 -175h-211zM84 0v157l497 679v13h-490v215h830v-174l-479 -661v-13h492v-216h-850z" />
    <glyph glyph-name="Zdotbelow" unicode="&#x1e92;" horiz-adv-x="1183" 
d="M459 -262c0 79 60 137 133 137c79 0 138 -58 138 -137c0 -75 -59 -132 -138 -132c-73 0 -133 57 -133 132zM84 0v188l646 931v11h-630v235h980v-187l-644 -930v-12h664v-236h-1016z" />
    <glyph glyph-name="zdotbelow" unicode="&#x1e93;" horiz-adv-x="1006" 
d="M370 -262c0 79 60 137 133 137c79 0 138 -58 138 -137c0 -75 -59 -132 -138 -132c-73 0 -133 57 -133 132zM84 0v157l497 679v13h-490v215h830v-174l-479 -661v-13h492v-216h-850z" />
    <glyph glyph-name="Zlinebelow" unicode="&#x1e94;" horiz-adv-x="1183" 
d="M84 0v188l646 931v11h-630v235h980v-187l-644 -930v-12h664v-236h-1016zM889 -326h-590v145h590v-145z" />
    <glyph glyph-name="zlinebelow" unicode="&#x1e95;" horiz-adv-x="1006" 
d="M800 -326h-590v145h590v-145zM84 0v157l497 679v13h-490v215h830v-174l-479 -661v-13h492v-216h-850z" />
    <glyph glyph-name="hlinebelow" unicode="&#x1e96;" horiz-adv-x="1210" 
d="M130 0v1437h281v-531h13c28 74 119 174 296 174c225 0 372 -152 372 -404v-676h-282v609c0 158 -81 233 -195 233c-119 0 -204 -79 -204 -234v-608h-281zM899 -326h-590v145h590v-145z" />
    <glyph glyph-name="tdieresis" unicode="&#x1e97;" horiz-adv-x="757" 
d="M204 1051v264h273v-264h205v-215h-205v-493c0 -102 45 -134 151 -134c23 0 46 0 58 2v-207c-22 -4 -70 -9 -127 -9c-267 0 -361 88 -361 307v534h-152v215h158zM24 1542c0 72 49 121 124 121c76 0 125 -49 125 -121c0 -71 -49 -120 -125 -120c-74 0 -124 49 -124 120z
M428 1542c0 72 49 121 123 121c77 0 125 -49 125 -121c0 -71 -48 -120 -125 -120c-74 0 -123 49 -123 120z" />
    <glyph glyph-name="wring" unicode="&#x1e98;" horiz-adv-x="1584" 
d="M1565 1064l-275 -1064h-293l-197 745h-9l-194 -745h-296l-282 1064h295l148 -774h11l191 774h264l195 -774h11l151 774h280zM789 1183c-124 0 -219 88 -219 212s95 211 219 211s218 -87 218 -211s-95 -212 -218 -212zM696 1394c0 -53 39 -93 92 -93s93 40 93 93
s-40 93 -93 93s-92 -40 -92 -93z" />
    <glyph glyph-name="yring" unicode="&#x1e99;" horiz-adv-x="1099" 
d="M1073 1064c0 0 -339 -1015 -343 -1027l-27 -73c-74 -195 -178 -341 -457 -341c-61 0 -124 6 -152 12v200c18 -4 58 -7 88 -7c132 0 176 51 191 138l9 34l-363 1064h310l214 -826h12l219 826h299zM546 1183c-124 0 -219 88 -219 212s95 211 219 211s218 -87 218 -211
s-95 -212 -218 -212zM453 1394c0 -53 39 -93 92 -93s93 40 93 93s-40 93 -93 93s-92 -40 -92 -93z" />
    <glyph glyph-name="Adotbelow" unicode="&#x1ea0;" horiz-adv-x="1271" 
d="M302 0h-289l452 1365h343l450 -1365h-309l-101 339h-444zM634 1093h-13l-160 -541h331zM503 -262c0 79 60 137 133 137c79 0 138 -58 138 -137c0 -75 -59 -132 -138 -132c-73 0 -133 57 -133 132z" />
    <glyph glyph-name="adotbelow" unicode="&#x1ea1;" horiz-adv-x="1105" 
d="M709 134c-40 -77 -129 -150 -286 -150c-207 0 -350 122 -350 322c0 192 133 317 379 317h256v103c0 97 -61 142 -164 142c-107 0 -160 -54 -167 -134h-265c7 179 118 346 438 346c253 0 436 -100 436 -362v-718h-265v134h-12zM516 186c106 0 192 70 192 167v105h-189
c-111 0 -167 -54 -167 -132c0 -94 80 -140 164 -140zM420 -262c0 79 60 137 133 137c79 0 138 -58 138 -137c0 -75 -59 -132 -138 -132c-73 0 -133 57 -133 132z" />
    <glyph glyph-name="Ahookabove" unicode="&#x1ea2;" horiz-adv-x="1271" 
d="M302 0h-289l452 1365h343l450 -1365h-309l-101 339h-444zM634 1093h-13l-160 -541h331zM483 1671v116c19 8 62 19 112 19c133 0 221 -63 221 -175c0 -105 -87 -153 -147 -180l-84 95c38 12 81 37 81 75c0 46 -47 61 -95 61c-34 0 -66 -5 -88 -11z" />
    <glyph glyph-name="ahookabove" unicode="&#x1ea3;" horiz-adv-x="1105" 
d="M709 134c-40 -77 -129 -150 -286 -150c-207 0 -350 122 -350 322c0 192 133 317 379 317h256v103c0 97 -61 142 -164 142c-107 0 -160 -54 -167 -134h-265c7 179 118 346 438 346c253 0 436 -100 436 -362v-718h-265v134h-12zM516 186c106 0 192 70 192 167v105h-189
c-111 0 -167 -54 -167 -132c0 -94 80 -140 164 -140zM408 1433v123c24 10 63 18 112 18c141 0 227 -71 227 -187c0 -112 -75 -166 -165 -212l-78 96c64 36 90 63 90 101c0 44 -37 75 -98 75c-34 0 -67 -6 -88 -14z" />
    <glyph glyph-name="Acircumflexacute" unicode="&#x1ea4;" horiz-adv-x="1271" 
d="M302 0h-289l452 1365h343l450 -1365h-309l-101 339h-444zM634 1093h-13l-160 -541h331zM277 1504l262 244h190l269 -244h-218l-137 128h-15l-132 -128h-219zM848 1721l174 187h213l-272 -241z" />
    <glyph glyph-name="acircumflexacute" unicode="&#x1ea5;" horiz-adv-x="1105" 
d="M709 134c-40 -77 -129 -150 -286 -150c-207 0 -350 122 -350 322c0 192 133 317 379 317h256v103c0 97 -61 142 -164 142c-107 0 -160 -54 -167 -134h-265c7 179 118 346 438 346c253 0 436 -100 436 -362v-718h-265v134h-12zM516 186c106 0 192 70 192 167v105h-189
c-111 0 -167 -54 -167 -132c0 -94 80 -140 164 -140zM193 1202l262 244h190l269 -244h-218l-137 128h-15l-132 -128h-219zM764 1419l174 187h213l-272 -241z" />
    <glyph glyph-name="Acircumflexgrave" unicode="&#x1ea6;" horiz-adv-x="1271" 
d="M302 0h-289l452 1365h343l450 -1365h-309l-101 339h-444zM634 1093h-13l-160 -541h331zM1153 1668h-175l-255 240h209zM998 1504h-218l-137 128h-15l-132 -128h-219l262 244h190z" />
    <glyph glyph-name="acircumflexgrave" unicode="&#x1ea7;" horiz-adv-x="1105" 
d="M709 134c-40 -77 -129 -150 -286 -150c-207 0 -350 122 -350 322c0 192 133 317 379 317h256v103c0 97 -61 142 -164 142c-107 0 -160 -54 -167 -134h-265c7 179 118 346 438 346c253 0 436 -100 436 -362v-718h-265v134h-12zM516 186c106 0 192 70 192 167v105h-189
c-111 0 -167 -54 -167 -132c0 -94 80 -140 164 -140zM1069 1366h-175l-255 240h209zM914 1202h-218l-137 128h-15l-132 -128h-219l262 244h190z" />
    <glyph glyph-name="Acircumflexhookabove" unicode="&#x1ea8;" horiz-adv-x="1271" 
d="M302 0h-289l452 1365h343l450 -1365h-309l-101 339h-444zM634 1093h-13l-160 -541h331zM277 1499l262 234h189l269 -234h-218l-137 120h-14l-133 -120h-218zM785 1976c21 4 62 8 97 8c124 0 211 -52 211 -158c0 -80 -65 -142 -127 -178l-80 83c33 22 53 44 53 74
c0 37 -30 61 -86 61c-23 0 -45 -1 -68 -5v115z" />
    <glyph glyph-name="acircumflexhookabove" unicode="&#x1ea9;" horiz-adv-x="1105" 
d="M709 134c-40 -77 -129 -150 -286 -150c-207 0 -350 122 -350 322c0 192 133 317 379 317h256v103c0 97 -61 142 -164 142c-107 0 -160 -54 -167 -134h-265c7 179 118 346 438 346c253 0 436 -100 436 -362v-718h-265v134h-12zM516 186c106 0 192 70 192 167v105h-189
c-111 0 -167 -54 -167 -132c0 -94 80 -140 164 -140zM193 1197l262 234h189l269 -234h-218l-137 120h-14l-133 -120h-218zM701 1674c21 4 62 8 97 8c124 0 211 -52 211 -158c0 -80 -65 -142 -127 -178l-80 83c33 22 53 44 53 74c0 37 -30 61 -86 61c-23 0 -45 -1 -68 -5v115
z" />
    <glyph glyph-name="Acircumflextilde" unicode="&#x1eaa;" horiz-adv-x="1271" 
d="M302 0h-289l452 1365h343l450 -1365h-309l-101 339h-444zM634 1093h-13l-160 -541h331zM279 1489l262 229h189l269 -229h-218l-137 123h-14l-133 -123h-218zM467 1781h-147c0 101 62 214 192 214c73 0 111 -24 156 -62c31 -26 52 -50 86 -50c48 0 64 54 66 98h148
c0 -122 -81 -220 -198 -220c-85 0 -118 26 -150 54c-24 22 -48 51 -85 51c-51 0 -66 -44 -68 -85z" />
    <glyph glyph-name="acircumflextilde" unicode="&#x1eab;" horiz-adv-x="1105" 
d="M709 134c-40 -77 -129 -150 -286 -150c-207 0 -350 122 -350 322c0 192 133 317 379 317h256v103c0 97 -61 142 -164 142c-107 0 -160 -54 -167 -134h-265c7 179 118 346 438 346c253 0 436 -100 436 -362v-718h-265v134h-12zM516 186c106 0 192 70 192 167v105h-189
c-111 0 -167 -54 -167 -132c0 -94 80 -140 164 -140zM195 1187l262 229h189l269 -229h-218l-137 123h-14l-133 -123h-218zM383 1479h-147c0 101 62 214 192 214c73 0 111 -24 156 -62c31 -26 52 -50 86 -50c48 0 64 54 66 98h148c0 -122 -81 -220 -198 -220
c-85 0 -118 26 -150 54c-24 22 -48 51 -85 51c-51 0 -66 -44 -68 -85z" />
    <glyph glyph-name="Acircumflexdotbelow" unicode="&#x1eac;" horiz-adv-x="1271" 
d="M302 0h-289l452 1365h343l450 -1365h-309l-101 339h-444zM634 1093h-13l-160 -541h331zM503 -262c0 79 60 137 133 137c79 0 138 -58 138 -137c0 -75 -59 -132 -138 -132c-73 0 -133 57 -133 132zM277 1495l269 244h190l262 -244h-219l-133 128h-14l-137 -128h-218z" />
    <glyph glyph-name="acircumflexdotbelow" unicode="&#x1ead;" horiz-adv-x="1105" 
d="M709 134c-40 -77 -129 -150 -286 -150c-207 0 -350 122 -350 322c0 192 133 317 379 317h256v103c0 97 -61 142 -164 142c-107 0 -160 -54 -167 -134h-265c7 179 118 346 438 346c253 0 436 -100 436 -362v-718h-265v134h-12zM516 186c106 0 192 70 192 167v105h-189
c-111 0 -167 -54 -167 -132c0 -94 80 -140 164 -140zM217 1226l230 308h201l219 -309h-216l-101 176h-9l-113 -175h-211zM420 -262c0 79 60 137 133 137c79 0 138 -58 138 -137c0 -75 -59 -132 -138 -132c-73 0 -133 57 -133 132z" />
    <glyph glyph-name="Abreveacute" unicode="&#x1eae;" horiz-adv-x="1271" 
d="M302 0h-289l452 1365h343l450 -1365h-309l-101 339h-444zM634 1093h-13l-160 -541h331zM951 1745c0 -154 -109 -273 -315 -273s-317 118 -317 273h159c2 -72 55 -128 158 -128c105 0 159 53 159 128h156zM520 1746l223 228h229l-258 -228h-194z" />
    <glyph glyph-name="abreveacute" unicode="&#x1eaf;" horiz-adv-x="1105" 
d="M709 134c-40 -77 -129 -150 -286 -150c-207 0 -350 122 -350 322c0 192 133 317 379 317h256v103c0 97 -61 142 -164 142c-107 0 -160 -54 -167 -134h-265c7 179 118 346 438 346c253 0 436 -100 436 -362v-718h-265v134h-12zM516 186c106 0 192 70 192 167v105h-189
c-111 0 -167 -54 -167 -132c0 -94 80 -140 164 -140zM867 1443c0 -154 -109 -273 -315 -273s-317 118 -317 273h159c2 -72 55 -128 158 -128c105 0 159 53 159 128h156zM436 1444l223 228h229l-258 -228h-194z" />
    <glyph glyph-name="Abrevegrave" unicode="&#x1eb0;" horiz-adv-x="1271" 
d="M302 0h-289l452 1365h343l450 -1365h-309l-101 339h-444zM634 1093h-13l-160 -541h331zM949 1745c0 -154 -107 -273 -313 -273s-319 117 -319 273h161c0 -75 53 -128 158 -128c103 0 157 55 159 128h154zM760 1746h-193l-269 228h240z" />
    <glyph glyph-name="abrevegrave" unicode="&#x1eb1;" horiz-adv-x="1105" 
d="M709 134c-40 -77 -129 -150 -286 -150c-207 0 -350 122 -350 322c0 192 133 317 379 317h256v103c0 97 -61 142 -164 142c-107 0 -160 -54 -167 -134h-265c7 179 118 346 438 346c253 0 436 -100 436 -362v-718h-265v134h-12zM516 186c106 0 192 70 192 167v105h-189
c-111 0 -167 -54 -167 -132c0 -94 80 -140 164 -140zM865 1443c0 -154 -107 -273 -313 -273s-319 117 -319 273h161c0 -75 53 -128 158 -128c103 0 157 55 159 128h154zM676 1444h-193l-269 228h240z" />
    <glyph glyph-name="Abrevehookabove" unicode="&#x1eb2;" horiz-adv-x="1271" 
d="M302 0h-289l452 1365h343l450 -1365h-309l-101 339h-444zM634 1093h-13l-160 -541h331zM949 1718c0 -147 -107 -249 -313 -249c-197 0 -317 101 -317 252h159c0 -60 53 -117 158 -117s159 56 159 114h154zM449 1987c21 8 63 16 106 16c126 0 213 -57 213 -159
c0 -76 -72 -143 -132 -161l-86 86c24 7 57 28 57 58c0 35 -42 52 -88 52c-24 0 -48 -3 -70 -8v116z" />
    <glyph glyph-name="abrevehookabove" unicode="&#x1eb3;" horiz-adv-x="1105" 
d="M709 134c-40 -77 -129 -150 -286 -150c-207 0 -350 122 -350 322c0 192 133 317 379 317h256v103c0 97 -61 142 -164 142c-107 0 -160 -54 -167 -134h-265c7 179 118 346 438 346c253 0 436 -100 436 -362v-718h-265v134h-12zM516 186c106 0 192 70 192 167v105h-189
c-111 0 -167 -54 -167 -132c0 -94 80 -140 164 -140zM865 1416c0 -147 -107 -249 -313 -249c-197 0 -317 101 -317 252h159c0 -60 53 -117 158 -117s159 56 159 114h154zM365 1685c21 8 63 16 106 16c126 0 213 -57 213 -159c0 -76 -72 -143 -132 -161l-86 86
c24 7 57 28 57 58c0 35 -42 52 -88 52c-24 0 -48 -3 -70 -8v116z" />
    <glyph glyph-name="Abrevetilde" unicode="&#x1eb4;" horiz-adv-x="1271" 
d="M302 0h-289l452 1365h343l450 -1365h-309l-101 339h-444zM634 1093h-13l-160 -541h331zM951 1702c0 -146 -128 -244 -315 -244s-317 96 -317 244h159c0 -69 66 -114 158 -114s159 45 159 114h156zM617 1805c-23 23 -45 51 -83 51c-48 0 -64 -42 -67 -84h-149
c0 106 69 216 193 216c72 0 107 -21 151 -61c30 -27 50 -50 84 -50c47 0 64 53 66 98h148c0 -126 -82 -223 -197 -223c-83 0 -115 24 -146 53z" />
    <glyph glyph-name="abrevetilde" unicode="&#x1eb5;" horiz-adv-x="1105" 
d="M709 134c-40 -77 -129 -150 -286 -150c-207 0 -350 122 -350 322c0 192 133 317 379 317h256v103c0 97 -61 142 -164 142c-107 0 -160 -54 -167 -134h-265c7 179 118 346 438 346c253 0 436 -100 436 -362v-718h-265v134h-12zM516 186c106 0 192 70 192 167v105h-189
c-111 0 -167 -54 -167 -132c0 -94 80 -140 164 -140zM867 1400c0 -146 -128 -244 -315 -244s-317 96 -317 244h159c0 -69 66 -114 158 -114s159 45 159 114h156zM533 1503c-23 23 -45 51 -83 51c-48 0 -64 -42 -67 -84h-149c0 106 69 216 193 216c72 0 107 -21 151 -61
c30 -27 50 -50 84 -50c47 0 64 53 66 98h148c0 -126 -82 -223 -197 -223c-83 0 -115 24 -146 53z" />
    <glyph glyph-name="Abrevedotbelow" unicode="&#x1eb6;" horiz-adv-x="1271" 
d="M302 0h-289l452 1365h343l450 -1365h-309l-101 339h-444zM634 1093h-13l-160 -541h331zM503 -262c0 79 60 137 133 137c79 0 138 -58 138 -137c0 -75 -59 -132 -138 -132c-73 0 -133 57 -133 132zM298 1766h164c0 -80 62 -139 174 -139s174 59 174 139h161
c0 -163 -110 -291 -335 -291s-338 127 -338 291z" />
    <glyph glyph-name="abrevedotbelow" unicode="&#x1eb7;" horiz-adv-x="1105" 
d="M709 134c-40 -77 -129 -150 -286 -150c-207 0 -350 122 -350 322c0 192 133 317 379 317h256v103c0 97 -61 142 -164 142c-107 0 -160 -54 -167 -134h-265c7 179 118 346 438 346c253 0 436 -100 436 -362v-718h-265v134h-12zM516 186c106 0 192 70 192 167v105h-189
c-111 0 -167 -54 -167 -132c0 -94 80 -140 164 -140zM420 -262c0 79 60 137 133 137c79 0 138 -58 138 -137c0 -75 -59 -132 -138 -132c-73 0 -133 57 -133 132zM221 1482h163c0 -84 48 -164 159 -164s160 80 160 164h160c0 -163 -109 -314 -320 -314s-323 151 -322 314z
" />
    <glyph glyph-name="Edotbelow" unicode="&#x1eb8;" horiz-adv-x="1133" 
d="M445 -262c0 79 60 137 133 137c79 0 138 -58 138 -137c0 -75 -59 -132 -138 -132c-73 0 -133 57 -133 132zM1032 234v-234h-891v1365h891v-234h-604v-332h568v-218h-568v-347h604z" />
    <glyph glyph-name="edotbelow" unicode="&#x1eb9;" horiz-adv-x="1106" 
d="M421 -262c0 79 60 137 133 137c79 0 138 -58 138 -137c0 -75 -59 -132 -138 -132c-73 0 -133 57 -133 132zM570 -19c-308 0 -492 186 -492 508v83c0 322 191 511 478 511c301 0 475 -202 475 -510v-100h-677v-36c0 -135 77 -242 215 -242c116 0 180 60 190 132h263
c-13 -148 -135 -346 -452 -346zM354 645h406v2c0 133 -76 228 -202 228c-125 0 -204 -96 -204 -228v-2z" />
    <glyph glyph-name="Ehookabove" unicode="&#x1eba;" horiz-adv-x="1133" 
d="M1032 234v-234h-891v1365h891v-234h-604v-332h568v-218h-568v-347h604zM424 1671v116c19 8 62 19 112 19c133 0 221 -63 221 -175c0 -105 -87 -153 -147 -180l-84 95c38 12 81 37 81 75c0 46 -47 61 -95 61c-34 0 -66 -5 -88 -11z" />
    <glyph glyph-name="ehookabove" unicode="&#x1ebb;" horiz-adv-x="1106" 
d="M570 -19c-308 0 -492 186 -492 508v83c0 322 191 511 478 511c301 0 475 -202 475 -510v-100h-677v-36c0 -135 77 -242 215 -242c116 0 180 60 190 132h263c-13 -148 -135 -346 -452 -346zM354 645h406v2c0 133 -76 228 -202 228c-125 0 -204 -96 -204 -228v-2zM409 1433
v123c24 10 63 18 112 18c141 0 227 -71 227 -187c0 -112 -75 -166 -165 -212l-78 96c64 36 90 63 90 101c0 44 -37 75 -98 75c-34 0 -67 -6 -88 -14z" />
    <glyph glyph-name="Etilde" unicode="&#x1ebc;" horiz-adv-x="1133" 
d="M1032 234v-234h-891v1365h891v-234h-604v-332h568v-218h-568v-347h604zM561 1521c-24 22 -46 51 -82 51c-49 0 -64 -43 -66 -85h-144c0 105 59 217 187 217c71 0 109 -24 152 -63c30 -26 49 -51 82 -51c47 0 63 55 65 99h144c0 -119 -78 -223 -192 -223
c-83 0 -115 26 -146 55z" />
    <glyph glyph-name="etilde" unicode="&#x1ebd;" horiz-adv-x="1106" 
d="M570 -19c-308 0 -492 186 -492 508v83c0 322 191 511 478 511c301 0 475 -202 475 -510v-100h-677v-36c0 -135 77 -242 215 -242c116 0 180 60 190 132h263c-13 -148 -135 -346 -452 -346zM354 645h406v2c0 133 -76 228 -202 228c-125 0 -204 -96 -204 -228v-2zM520 1238
c-22 23 -47 49 -85 49c-55 0 -71 -48 -73 -97h-160c0 145 66 279 217 279c67 0 110 -28 160 -77c27 -26 48 -53 85 -53c51 0 68 62 70 112h159c0 -144 -86 -279 -223 -279c-78 0 -117 33 -150 66z" />
    <glyph glyph-name="Ecircumflexacute" unicode="&#x1ebe;" horiz-adv-x="1133" 
d="M218 1504l262 244h190l269 -244h-218l-137 128h-15l-132 -128h-219zM789 1721l174 187h213l-272 -241zM1032 234v-234h-891v1365h891v-234h-604v-332h568v-218h-568v-347h604z" />
    <glyph glyph-name="ecircumflexacute" unicode="&#x1ebf;" horiz-adv-x="1106" 
d="M194 1202l262 244h190l269 -244h-218l-137 128h-15l-132 -128h-219zM765 1419l174 187h213l-272 -241zM570 -19c-308 0 -492 186 -492 508v83c0 322 191 511 478 511c301 0 475 -202 475 -510v-100h-677v-36c0 -135 77 -242 215 -242c116 0 180 60 190 132h263
c-13 -148 -135 -346 -452 -346zM354 645h406v2c0 133 -76 228 -202 228c-125 0 -204 -96 -204 -228v-2z" />
    <glyph glyph-name="Ecircumflexgrave" unicode="&#x1ec0;" horiz-adv-x="1133" 
d="M1094 1668h-175l-255 240h209zM939 1504h-218l-137 128h-15l-132 -128h-219l262 244h190zM1032 234v-234h-891v1365h891v-234h-604v-332h568v-218h-568v-347h604z" />
    <glyph glyph-name="ecircumflexgrave" unicode="&#x1ec1;" horiz-adv-x="1106" 
d="M1070 1366h-175l-255 240h209zM915 1202h-218l-137 128h-15l-132 -128h-219l262 244h190zM570 -19c-308 0 -492 186 -492 508v83c0 322 191 511 478 511c301 0 475 -202 475 -510v-100h-677v-36c0 -135 77 -242 215 -242c116 0 180 60 190 132h263
c-13 -148 -135 -346 -452 -346zM354 645h406v2c0 133 -76 228 -202 228c-125 0 -204 -96 -204 -228v-2z" />
    <glyph glyph-name="Ecircumflexhookabove" unicode="&#x1ec2;" horiz-adv-x="1133" 
d="M218 1499l262 234h189l269 -234h-218l-137 120h-14l-133 -120h-218zM726 1976c21 4 62 8 97 8c124 0 211 -52 211 -158c0 -80 -65 -142 -127 -178l-80 83c33 22 53 44 53 74c0 37 -30 61 -86 61c-23 0 -45 -1 -68 -5v115zM1032 234v-234h-891v1365h891v-234h-604v-332
h568v-218h-568v-347h604z" />
    <glyph glyph-name="ecircumflexhookabove" unicode="&#x1ec3;" horiz-adv-x="1106" 
d="M194 1197l262 234h189l269 -234h-218l-137 120h-14l-133 -120h-218zM702 1674c21 4 62 8 97 8c124 0 211 -52 211 -158c0 -80 -65 -142 -127 -178l-80 83c33 22 53 44 53 74c0 37 -30 61 -86 61c-23 0 -45 -1 -68 -5v115zM570 -19c-308 0 -492 186 -492 508v83
c0 322 191 511 478 511c301 0 475 -202 475 -510v-100h-677v-36c0 -135 77 -242 215 -242c116 0 180 60 190 132h263c-13 -148 -135 -346 -452 -346zM354 645h406v2c0 133 -76 228 -202 228c-125 0 -204 -96 -204 -228v-2z" />
    <glyph glyph-name="Ecircumflextilde" unicode="&#x1ec4;" horiz-adv-x="1133" 
d="M1032 234v-234h-891v1365h891v-234h-604v-332h568v-218h-568v-347h604zM220 1489l262 229h189l269 -229h-218l-137 123h-14l-133 -123h-218zM408 1781h-147c0 101 62 214 192 214c73 0 111 -24 156 -62c31 -26 52 -50 86 -50c48 0 64 54 66 98h148
c0 -122 -81 -220 -198 -220c-85 0 -118 26 -150 54c-24 22 -48 51 -85 51c-51 0 -66 -44 -68 -85z" />
    <glyph glyph-name="ecircumflextilde" unicode="&#x1ec5;" horiz-adv-x="1106" 
d="M570 -19c-308 0 -492 186 -492 508v83c0 322 191 511 478 511c301 0 475 -202 475 -510v-100h-677v-36c0 -135 77 -242 215 -242c116 0 180 60 190 132h263c-13 -148 -135 -346 -452 -346zM354 645h406v2c0 133 -76 228 -202 228c-125 0 -204 -96 -204 -228v-2zM196 1187
l262 229h189l269 -229h-218l-137 123h-14l-133 -123h-218zM384 1479h-147c0 101 62 214 192 214c73 0 111 -24 156 -62c31 -26 52 -50 86 -50c48 0 64 54 66 98h148c0 -122 -81 -220 -198 -220c-85 0 -118 26 -150 54c-24 22 -48 51 -85 51c-51 0 -66 -44 -68 -85z" />
    <glyph glyph-name="Ecircumflexdotbelow" unicode="&#x1ec6;" horiz-adv-x="1133" 
d="M445 -262c0 79 60 137 133 137c79 0 138 -58 138 -137c0 -75 -59 -132 -138 -132c-73 0 -133 57 -133 132zM218 1495l269 244h190l262 -244h-219l-133 128h-14l-137 -128h-218zM1032 234v-234h-891v1365h891v-234h-604v-332h568v-218h-568v-347h604z" />
    <glyph glyph-name="ecircumflexdotbelow" unicode="&#x1ec7;" horiz-adv-x="1106" 
d="M218 1226l230 308h201l219 -309h-216l-101 176h-9l-113 -175h-211zM570 -19c-308 0 -492 186 -492 508v83c0 322 191 511 478 511c301 0 475 -202 475 -510v-100h-677v-36c0 -135 77 -242 215 -242c116 0 180 60 190 132h263c-13 -148 -135 -346 -452 -346zM354 645h406
v2c0 133 -76 228 -202 228c-125 0 -204 -96 -204 -228v-2zM421 -262c0 79 60 137 133 137c79 0 138 -58 138 -137c0 -75 -59 -132 -138 -132c-73 0 -133 57 -133 132z" />
    <glyph glyph-name="Ihookabove" unicode="&#x1ec8;" horiz-adv-x="572" 
d="M431 0h-290v1365h290v-1365zM133 1671v116c19 8 62 19 112 19c133 0 221 -63 221 -175c0 -105 -87 -153 -147 -180l-84 95c38 12 81 37 81 75c0 46 -47 61 -95 61c-34 0 -66 -5 -88 -11z" />
    <glyph glyph-name="ihookabove" unicode="&#x1ec9;" horiz-adv-x="570" 
d="M148 0v1064h288v-1064h-288zM146 1433v123c24 10 63 18 112 18c141 0 227 -71 227 -187c0 -112 -75 -166 -165 -212l-78 96c64 36 90 63 90 101c0 44 -37 75 -98 75c-34 0 -67 -6 -88 -14z" />
    <glyph glyph-name="Idotbelow" unicode="&#x1eca;" horiz-adv-x="572" 
d="M431 0h-290v1365h290v-1365zM153 -262c0 79 60 137 133 137c79 0 138 -58 138 -137c0 -75 -59 -132 -138 -132c-73 0 -133 57 -133 132z" />
    <glyph glyph-name="idotbelow" unicode="&#x1ecb;" horiz-adv-x="570" 
d="M145 0v1064h281v-1064h-281zM123 1332c0 80 63 138 161 138c100 0 163 -58 163 -138c0 -81 -62 -139 -163 -139c-98 0 -161 58 -161 139zM153 -262c0 79 60 137 133 137c79 0 138 -58 138 -137c0 -75 -59 -132 -138 -132c-73 0 -133 57 -133 132z" />
    <glyph glyph-name="Odotbelow" unicode="&#x1ecc;" horiz-adv-x="1357" 
d="M546 -262c0 79 60 137 133 137c79 0 138 -58 138 -137c0 -75 -59 -132 -138 -132c-73 0 -133 57 -133 132zM380 766v-174c0 -255 124 -378 298 -378c175 0 298 123 298 378v174c0 254 -123 386 -298 386c-174 0 -298 -132 -298 -386zM86 593v170c0 388 222 628 593 628
c372 0 592 -242 592 -628v-170c0 -385 -222 -619 -594 -619c-371 0 -591 234 -591 619z" />
    </font>
</defs>
</svg>
